<?xml version="1.0" encoding="utf-8"?>
<svg xmlns="http://www.w3.org/2000/svg" xmlns:xlink="http://www.w3.org/1999/xlink" width="600" height="400" viewBox="0 0 2400 1600">
<defs>
  <clipPath id="clip530">
    <rect x="0" y="0" width="2400" height="1600"/>
  </clipPath>
</defs>
<path clip-path="url(#clip530)" d="
M0 1600 L2400 1600 L2400 0 L0 0  Z
  " fill="#ffffff" fill-rule="evenodd" fill-opacity="1"/>
<defs>
  <clipPath id="clip531">
    <rect x="480" y="0" width="1681" height="1600"/>
  </clipPath>
</defs>
<path clip-path="url(#clip530)" d="
M205.352 1423.18 L2352.76 1423.18 L2352.76 47.2441 L205.352 47.2441  Z
  " fill="#ffffff" fill-rule="evenodd" fill-opacity="1"/>
<defs>
  <clipPath id="clip532">
    <rect x="205" y="47" width="2148" height="1377"/>
  </clipPath>
</defs>
<polyline clip-path="url(#clip532)" style="stroke:#000000; stroke-width:2; stroke-opacity:0.1; fill:none" points="
  468.713,1423.18 468.713,47.2441 
  "/>
<polyline clip-path="url(#clip532)" style="stroke:#000000; stroke-width:2; stroke-opacity:0.1; fill:none" points="
  873.884,1423.18 873.884,47.2441 
  "/>
<polyline clip-path="url(#clip532)" style="stroke:#000000; stroke-width:2; stroke-opacity:0.1; fill:none" points="
  1279.05,1423.18 1279.05,47.2441 
  "/>
<polyline clip-path="url(#clip532)" style="stroke:#000000; stroke-width:2; stroke-opacity:0.1; fill:none" points="
  1684.22,1423.18 1684.22,47.2441 
  "/>
<polyline clip-path="url(#clip532)" style="stroke:#000000; stroke-width:2; stroke-opacity:0.1; fill:none" points="
  2089.4,1423.18 2089.4,47.2441 
  "/>
<polyline clip-path="url(#clip530)" style="stroke:#000000; stroke-width:4; stroke-opacity:1; fill:none" points="
  205.352,1423.18 2352.76,1423.18 
  "/>
<polyline clip-path="url(#clip530)" style="stroke:#000000; stroke-width:4; stroke-opacity:1; fill:none" points="
  468.713,1423.18 468.713,1406.67 
  "/>
<polyline clip-path="url(#clip530)" style="stroke:#000000; stroke-width:4; stroke-opacity:1; fill:none" points="
  873.884,1423.18 873.884,1406.67 
  "/>
<polyline clip-path="url(#clip530)" style="stroke:#000000; stroke-width:4; stroke-opacity:1; fill:none" points="
  1279.05,1423.18 1279.05,1406.67 
  "/>
<polyline clip-path="url(#clip530)" style="stroke:#000000; stroke-width:4; stroke-opacity:1; fill:none" points="
  1684.22,1423.18 1684.22,1406.67 
  "/>
<polyline clip-path="url(#clip530)" style="stroke:#000000; stroke-width:4; stroke-opacity:1; fill:none" points="
  2089.4,1423.18 2089.4,1406.67 
  "/>
<path clip-path="url(#clip530)" d="M 0 0 M421.642 1467.02 L451.318 1467.02 L451.318 1470.96 L421.642 1470.96 L421.642 1467.02 Z" fill="#000000" fill-rule="evenodd" fill-opacity="1" /><path clip-path="url(#clip530)" d="M 0 0 M466.387 1452.37 Q462.776 1452.37 460.947 1455.94 Q459.142 1459.48 459.142 1466.61 Q459.142 1473.71 460.947 1477.28 Q462.776 1480.82 466.387 1480.82 Q470.021 1480.82 471.827 1477.28 Q473.655 1473.71 473.655 1466.61 Q473.655 1459.48 471.827 1455.94 Q470.021 1452.37 466.387 1452.37 M466.387 1448.67 Q472.197 1448.67 475.253 1453.27 Q478.331 1457.86 478.331 1466.61 Q478.331 1475.33 475.253 1479.94 Q472.197 1484.52 466.387 1484.52 Q460.577 1484.52 457.498 1479.94 Q454.442 1475.33 454.442 1466.61 Q454.442 1457.86 457.498 1453.27 Q460.577 1448.67 466.387 1448.67 Z" fill="#000000" fill-rule="evenodd" fill-opacity="1" /><path clip-path="url(#clip530)" d="M 0 0 M483.401 1477.97 L488.285 1477.97 L488.285 1483.85 L483.401 1483.85 L483.401 1477.97 Z" fill="#000000" fill-rule="evenodd" fill-opacity="1" /><path clip-path="url(#clip530)" d="M 0 0 M506.201 1453.37 L494.396 1471.81 L506.201 1471.81 L506.201 1453.37 M504.975 1449.29 L510.854 1449.29 L510.854 1471.81 L515.785 1471.81 L515.785 1475.7 L510.854 1475.7 L510.854 1483.85 L506.201 1483.85 L506.201 1475.7 L490.6 1475.7 L490.6 1471.19 L504.975 1449.29 Z" fill="#000000" fill-rule="evenodd" fill-opacity="1" /><path clip-path="url(#clip530)" d="M 0 0 M827.854 1467.02 L857.53 1467.02 L857.53 1470.96 L827.854 1470.96 L827.854 1467.02 Z" fill="#000000" fill-rule="evenodd" fill-opacity="1" /><path clip-path="url(#clip530)" d="M 0 0 M872.599 1452.37 Q868.988 1452.37 867.159 1455.94 Q865.354 1459.48 865.354 1466.61 Q865.354 1473.71 867.159 1477.28 Q868.988 1480.82 872.599 1480.82 Q876.233 1480.82 878.039 1477.28 Q879.867 1473.71 879.867 1466.61 Q879.867 1459.48 878.039 1455.94 Q876.233 1452.37 872.599 1452.37 M872.599 1448.67 Q878.409 1448.67 881.465 1453.27 Q884.543 1457.86 884.543 1466.61 Q884.543 1475.33 881.465 1479.94 Q878.409 1484.52 872.599 1484.52 Q866.789 1484.52 863.71 1479.94 Q860.655 1475.33 860.655 1466.61 Q860.655 1457.86 863.71 1453.27 Q866.789 1448.67 872.599 1448.67 Z" fill="#000000" fill-rule="evenodd" fill-opacity="1" /><path clip-path="url(#clip530)" d="M 0 0 M889.613 1477.97 L894.497 1477.97 L894.497 1483.85 L889.613 1483.85 L889.613 1477.97 Z" fill="#000000" fill-rule="evenodd" fill-opacity="1" /><path clip-path="url(#clip530)" d="M 0 0 M903.594 1479.92 L919.914 1479.92 L919.914 1483.85 L897.969 1483.85 L897.969 1479.92 Q900.631 1477.16 905.215 1472.53 Q909.821 1467.88 911.002 1466.54 Q913.247 1464.01 914.127 1462.28 Q915.029 1460.52 915.029 1458.83 Q915.029 1456.07 913.085 1454.34 Q911.164 1452.6 908.062 1452.6 Q905.863 1452.6 903.409 1453.37 Q900.978 1454.13 898.201 1455.68 L898.201 1450.96 Q901.025 1449.82 903.478 1449.25 Q905.932 1448.67 907.969 1448.67 Q913.34 1448.67 916.534 1451.35 Q919.728 1454.04 919.728 1458.53 Q919.728 1460.66 918.918 1462.58 Q918.131 1464.48 916.025 1467.07 Q915.446 1467.74 912.344 1470.96 Q909.242 1474.15 903.594 1479.92 Z" fill="#000000" fill-rule="evenodd" fill-opacity="1" /><path clip-path="url(#clip530)" d="M 0 0 M1260.57 1452.37 Q1256.96 1452.37 1255.13 1455.94 Q1253.33 1459.48 1253.33 1466.61 Q1253.33 1473.71 1255.13 1477.28 Q1256.96 1480.82 1260.57 1480.82 Q1264.2 1480.82 1266.01 1477.28 Q1267.84 1473.71 1267.84 1466.61 Q1267.84 1459.48 1266.01 1455.94 Q1264.2 1452.37 1260.57 1452.37 M1260.57 1448.67 Q1266.38 1448.67 1269.44 1453.27 Q1272.51 1457.86 1272.51 1466.61 Q1272.51 1475.33 1269.44 1479.94 Q1266.38 1484.52 1260.57 1484.52 Q1254.76 1484.52 1251.68 1479.94 Q1248.63 1475.33 1248.63 1466.61 Q1248.63 1457.86 1251.68 1453.27 Q1254.76 1448.67 1260.57 1448.67 Z" fill="#000000" fill-rule="evenodd" fill-opacity="1" /><path clip-path="url(#clip530)" d="M 0 0 M1277.58 1477.97 L1282.47 1477.97 L1282.47 1483.85 L1277.58 1483.85 L1277.58 1477.97 Z" fill="#000000" fill-rule="evenodd" fill-opacity="1" /><path clip-path="url(#clip530)" d="M 0 0 M1297.54 1452.37 Q1293.93 1452.37 1292.1 1455.94 Q1290.29 1459.48 1290.29 1466.61 Q1290.29 1473.71 1292.1 1477.28 Q1293.93 1480.82 1297.54 1480.82 Q1301.17 1480.82 1302.98 1477.28 Q1304.81 1473.71 1304.81 1466.61 Q1304.81 1459.48 1302.98 1455.94 Q1301.17 1452.37 1297.54 1452.37 M1297.54 1448.67 Q1303.35 1448.67 1306.4 1453.27 Q1309.48 1457.86 1309.48 1466.61 Q1309.48 1475.33 1306.4 1479.94 Q1303.35 1484.52 1297.54 1484.52 Q1291.73 1484.52 1288.65 1479.94 Q1285.59 1475.33 1285.59 1466.61 Q1285.59 1457.86 1288.65 1453.27 Q1291.73 1448.67 1297.54 1448.67 Z" fill="#000000" fill-rule="evenodd" fill-opacity="1" /><path clip-path="url(#clip530)" d="M 0 0 M1666.54 1452.37 Q1662.93 1452.37 1661.1 1455.94 Q1659.29 1459.48 1659.29 1466.61 Q1659.29 1473.71 1661.1 1477.28 Q1662.93 1480.82 1666.54 1480.82 Q1670.17 1480.82 1671.98 1477.28 Q1673.81 1473.71 1673.81 1466.61 Q1673.81 1459.48 1671.98 1455.94 Q1670.17 1452.37 1666.54 1452.37 M1666.54 1448.67 Q1672.35 1448.67 1675.41 1453.27 Q1678.48 1457.86 1678.48 1466.61 Q1678.48 1475.33 1675.41 1479.94 Q1672.35 1484.52 1666.54 1484.52 Q1660.73 1484.52 1657.65 1479.94 Q1654.6 1475.33 1654.6 1466.61 Q1654.6 1457.86 1657.65 1453.27 Q1660.73 1448.67 1666.54 1448.67 Z" fill="#000000" fill-rule="evenodd" fill-opacity="1" /><path clip-path="url(#clip530)" d="M 0 0 M1683.55 1477.97 L1688.44 1477.97 L1688.44 1483.85 L1683.55 1483.85 L1683.55 1477.97 Z" fill="#000000" fill-rule="evenodd" fill-opacity="1" /><path clip-path="url(#clip530)" d="M 0 0 M1697.53 1479.92 L1713.85 1479.92 L1713.85 1483.85 L1691.91 1483.85 L1691.91 1479.92 Q1694.57 1477.16 1699.16 1472.53 Q1703.76 1467.88 1704.94 1466.54 Q1707.19 1464.01 1708.07 1462.28 Q1708.97 1460.52 1708.97 1458.83 Q1708.97 1456.07 1707.03 1454.34 Q1705.1 1452.6 1702 1452.6 Q1699.8 1452.6 1697.35 1453.37 Q1694.92 1454.13 1692.14 1455.68 L1692.14 1450.96 Q1694.97 1449.82 1697.42 1449.25 Q1699.87 1448.67 1701.91 1448.67 Q1707.28 1448.67 1710.47 1451.35 Q1713.67 1454.04 1713.67 1458.53 Q1713.67 1460.66 1712.86 1462.58 Q1712.07 1464.48 1709.97 1467.07 Q1709.39 1467.74 1706.28 1470.96 Q1703.18 1474.15 1697.53 1479.92 Z" fill="#000000" fill-rule="evenodd" fill-opacity="1" /><path clip-path="url(#clip530)" d="M 0 0 M2070.67 1452.37 Q2067.06 1452.37 2065.23 1455.94 Q2063.42 1459.48 2063.42 1466.61 Q2063.42 1473.71 2065.23 1477.28 Q2067.06 1480.82 2070.67 1480.82 Q2074.3 1480.82 2076.11 1477.28 Q2077.94 1473.71 2077.94 1466.61 Q2077.94 1459.48 2076.11 1455.94 Q2074.3 1452.37 2070.67 1452.37 M2070.67 1448.67 Q2076.48 1448.67 2079.53 1453.27 Q2082.61 1457.86 2082.61 1466.61 Q2082.61 1475.33 2079.53 1479.94 Q2076.48 1484.52 2070.67 1484.52 Q2064.86 1484.52 2061.78 1479.94 Q2058.72 1475.33 2058.72 1466.61 Q2058.72 1457.86 2061.78 1453.27 Q2064.86 1448.67 2070.67 1448.67 Z" fill="#000000" fill-rule="evenodd" fill-opacity="1" /><path clip-path="url(#clip530)" d="M 0 0 M2087.68 1477.97 L2092.57 1477.97 L2092.57 1483.85 L2087.68 1483.85 L2087.68 1477.97 Z" fill="#000000" fill-rule="evenodd" fill-opacity="1" /><path clip-path="url(#clip530)" d="M 0 0 M2110.48 1453.37 L2098.68 1471.81 L2110.48 1471.81 L2110.48 1453.37 M2109.26 1449.29 L2115.14 1449.29 L2115.14 1471.81 L2120.07 1471.81 L2120.07 1475.7 L2115.14 1475.7 L2115.14 1483.85 L2110.48 1483.85 L2110.48 1475.7 L2094.88 1475.7 L2094.88 1471.19 L2109.26 1449.29 Z" fill="#000000" fill-rule="evenodd" fill-opacity="1" /><path clip-path="url(#clip530)" d="M 0 0 M1199.98 1506.52 L1205.86 1506.52 L1205.86 1535.77 L1223.34 1520.4 L1230.82 1520.4 L1211.91 1537.07 L1231.61 1556.04 L1223.97 1556.04 L1205.86 1538.63 L1205.86 1556.04 L1199.98 1556.04 L1199.98 1506.52 Z" fill="#000000" fill-rule="evenodd" fill-opacity="1" /><path clip-path="url(#clip530)" d="M 0 0 M1264.14 1550.7 L1264.14 1569.6 L1258.25 1569.6 L1258.25 1520.4 L1264.14 1520.4 L1264.14 1525.81 Q1265.99 1522.62 1268.79 1521.1 Q1271.62 1519.54 1275.54 1519.54 Q1282.03 1519.54 1286.07 1524.69 Q1290.15 1529.85 1290.15 1538.25 Q1290.15 1546.65 1286.07 1551.81 Q1282.03 1556.97 1275.54 1556.97 Q1271.62 1556.97 1268.79 1555.44 Q1265.99 1553.88 1264.14 1550.7 M1284.07 1538.25 Q1284.07 1531.79 1281.39 1528.13 Q1278.75 1524.44 1274.1 1524.44 Q1269.46 1524.44 1266.78 1528.13 Q1264.14 1531.79 1264.14 1538.25 Q1264.14 1544.71 1266.78 1548.4 Q1269.46 1552.07 1274.1 1552.07 Q1278.75 1552.07 1281.39 1548.4 Q1284.07 1544.71 1284.07 1538.25 Z" fill="#000000" fill-rule="evenodd" fill-opacity="1" /><path clip-path="url(#clip530)" d="M 0 0 M1296.29 1520.4 L1302.15 1520.4 L1302.15 1556.04 L1296.29 1556.04 L1296.29 1520.4 M1296.29 1506.52 L1302.15 1506.52 L1302.15 1513.93 L1296.29 1513.93 L1296.29 1506.52 Z" fill="#000000" fill-rule="evenodd" fill-opacity="1" /><path clip-path="url(#clip530)" d="M 0 0 M1318.7 1508.52 L1324.11 1508.52 L1307.56 1562.09 L1302.15 1562.09 L1318.7 1508.52 Z" fill="#000000" fill-rule="evenodd" fill-opacity="1" /><path clip-path="url(#clip530)" d="M 0 0 M1346.45 1538.12 Q1339.35 1538.12 1336.62 1539.75 Q1333.88 1541.37 1333.88 1545.29 Q1333.88 1548.4 1335.92 1550.25 Q1337.98 1552.07 1341.52 1552.07 Q1346.39 1552.07 1349.32 1548.63 Q1352.28 1545.16 1352.28 1539.43 L1352.28 1538.12 L1346.45 1538.12 M1358.13 1535.71 L1358.13 1556.04 L1352.28 1556.04 L1352.28 1550.63 Q1350.27 1553.88 1347.28 1555.44 Q1344.29 1556.97 1339.96 1556.97 Q1334.48 1556.97 1331.24 1553.91 Q1328.02 1550.82 1328.02 1545.67 Q1328.02 1539.65 1332.03 1536.6 Q1336.07 1533.54 1344.06 1533.54 L1352.28 1533.54 L1352.28 1532.97 Q1352.28 1528.93 1349.6 1526.73 Q1346.96 1524.5 1342.15 1524.5 Q1339.1 1524.5 1336.2 1525.23 Q1333.31 1525.97 1330.63 1527.43 L1330.63 1522.02 Q1333.85 1520.78 1336.87 1520.17 Q1339.89 1519.54 1342.76 1519.54 Q1350.49 1519.54 1354.31 1523.55 Q1358.13 1527.56 1358.13 1535.71 Z" fill="#000000" fill-rule="evenodd" fill-opacity="1" /><polyline clip-path="url(#clip532)" style="stroke:#000000; stroke-width:2; stroke-opacity:0.1; fill:none" points="
  205.352,1207.45 2352.76,1207.45 
  "/>
<polyline clip-path="url(#clip532)" style="stroke:#000000; stroke-width:2; stroke-opacity:0.1; fill:none" points="
  205.352,892.624 2352.76,892.624 
  "/>
<polyline clip-path="url(#clip532)" style="stroke:#000000; stroke-width:2; stroke-opacity:0.1; fill:none" points="
  205.352,577.8 2352.76,577.8 
  "/>
<polyline clip-path="url(#clip532)" style="stroke:#000000; stroke-width:2; stroke-opacity:0.1; fill:none" points="
  205.352,262.976 2352.76,262.976 
  "/>
<polyline clip-path="url(#clip530)" style="stroke:#000000; stroke-width:4; stroke-opacity:1; fill:none" points="
  205.352,1423.18 205.352,47.2441 
  "/>
<polyline clip-path="url(#clip530)" style="stroke:#000000; stroke-width:4; stroke-opacity:1; fill:none" points="
  205.352,1207.45 231.121,1207.45 
  "/>
<polyline clip-path="url(#clip530)" style="stroke:#000000; stroke-width:4; stroke-opacity:1; fill:none" points="
  205.352,892.624 231.121,892.624 
  "/>
<polyline clip-path="url(#clip530)" style="stroke:#000000; stroke-width:4; stroke-opacity:1; fill:none" points="
  205.352,577.8 231.121,577.8 
  "/>
<polyline clip-path="url(#clip530)" style="stroke:#000000; stroke-width:4; stroke-opacity:1; fill:none" points="
  205.352,262.976 231.121,262.976 
  "/>
<path clip-path="url(#clip530)" d="M 0 0 M114.26 1207.9 L143.936 1207.9 L143.936 1211.83 L114.26 1211.83 L114.26 1207.9 Z" fill="#000000" fill-rule="evenodd" fill-opacity="1" /><path clip-path="url(#clip530)" d="M 0 0 M153.033 1220.79 L169.352 1220.79 L169.352 1224.73 L147.408 1224.73 L147.408 1220.79 Q150.07 1218.04 154.653 1213.41 Q159.26 1208.76 160.44 1207.41 Q162.686 1204.89 163.565 1203.15 Q164.468 1201.39 164.468 1199.7 Q164.468 1196.95 162.524 1195.21 Q160.603 1193.48 157.501 1193.48 Q155.302 1193.48 152.848 1194.24 Q150.417 1195.01 147.64 1196.56 L147.64 1191.83 Q150.464 1190.7 152.917 1190.12 Q155.371 1189.54 157.408 1189.54 Q162.778 1189.54 165.973 1192.23 Q169.167 1194.91 169.167 1199.4 Q169.167 1201.53 168.357 1203.45 Q167.57 1205.35 165.464 1207.95 Q164.885 1208.62 161.783 1211.83 Q158.681 1215.03 153.033 1220.79 Z" fill="#000000" fill-rule="evenodd" fill-opacity="1" /><path clip-path="url(#clip530)" d="M 0 0 M157.408 878.423 Q153.797 878.423 151.968 881.987 Q150.163 885.529 150.163 892.659 Q150.163 899.765 151.968 903.33 Q153.797 906.872 157.408 906.872 Q161.042 906.872 162.848 903.33 Q164.677 899.765 164.677 892.659 Q164.677 885.529 162.848 881.987 Q161.042 878.423 157.408 878.423 M157.408 874.719 Q163.218 874.719 166.274 879.325 Q169.352 883.909 169.352 892.659 Q169.352 901.385 166.274 905.992 Q163.218 910.575 157.408 910.575 Q151.598 910.575 148.519 905.992 Q145.464 901.385 145.464 892.659 Q145.464 883.909 148.519 879.325 Q151.598 874.719 157.408 874.719 Z" fill="#000000" fill-rule="evenodd" fill-opacity="1" /><path clip-path="url(#clip530)" d="M 0 0 M153.033 591.145 L169.352 591.145 L169.352 595.08 L147.408 595.08 L147.408 591.145 Q150.07 588.39 154.653 583.761 Q159.26 579.108 160.44 577.765 Q162.686 575.242 163.565 573.506 Q164.468 571.747 164.468 570.057 Q164.468 567.302 162.524 565.566 Q160.603 563.83 157.501 563.83 Q155.302 563.83 152.848 564.594 Q150.417 565.358 147.64 566.909 L147.64 562.187 Q150.464 561.052 152.917 560.474 Q155.371 559.895 157.408 559.895 Q162.778 559.895 165.973 562.58 Q169.167 565.265 169.167 569.756 Q169.167 571.886 168.357 573.807 Q167.57 575.705 165.464 578.298 Q164.885 578.969 161.783 582.187 Q158.681 585.381 153.033 591.145 Z" fill="#000000" fill-rule="evenodd" fill-opacity="1" /><path clip-path="url(#clip530)" d="M 0 0 M159.769 249.77 L147.964 268.219 L159.769 268.219 L159.769 249.77 M158.542 245.696 L164.422 245.696 L164.422 268.219 L169.352 268.219 L169.352 272.108 L164.422 272.108 L164.422 280.256 L159.769 280.256 L159.769 272.108 L144.167 272.108 L144.167 267.594 L158.542 245.696 Z" fill="#000000" fill-rule="evenodd" fill-opacity="1" /><path clip-path="url(#clip530)" d="M 0 0 M40.4842 835.599 L40.4842 805.553 L45.895 805.553 L45.895 829.17 L59.9632 829.17 L59.9632 806.54 L65.3741 806.54 L65.3741 829.17 L82.5933 829.17 L82.5933 804.98 L88.0042 804.98 L88.0042 835.599 L40.4842 835.599 Z" fill="#000000" fill-rule="evenodd" fill-opacity="1" /><path clip-path="url(#clip530)" d="M 0 0 M66.4881 769.205 L88.0042 769.205 L88.0042 775.061 L66.679 775.061 Q61.6183 775.061 59.1038 777.035 Q56.5894 779.008 56.5894 782.955 Q56.5894 787.697 59.6131 790.434 Q62.6368 793.172 67.8567 793.172 L88.0042 793.172 L88.0042 799.06 L52.3562 799.06 L52.3562 793.172 L57.8944 793.172 Q54.6797 791.071 53.0883 788.238 Q51.4968 785.374 51.4968 781.65 Q51.4968 775.507 55.3163 772.356 Q59.1038 769.205 66.4881 769.205 Z" fill="#000000" fill-rule="evenodd" fill-opacity="1" /><path clip-path="url(#clip530)" d="M 0 0 M68.7161 732.57 L71.5806 732.57 L71.5806 759.497 Q77.6281 759.115 80.8109 755.869 Q83.9619 752.59 83.9619 746.766 Q83.9619 743.392 83.1344 740.241 Q82.3069 737.058 80.6518 733.939 L86.1899 733.939 Q87.5267 737.09 88.227 740.4 Q88.9272 743.71 88.9272 747.116 Q88.9272 755.646 83.9619 760.643 Q78.9967 765.608 70.5303 765.608 Q61.7774 765.608 56.6531 760.898 Q51.4968 756.155 51.4968 748.134 Q51.4968 740.941 56.1438 736.772 Q60.7589 732.57 68.7161 732.57 M66.9973 738.427 Q62.1912 738.49 59.3266 741.132 Q56.4621 743.742 56.4621 748.071 Q56.4621 752.972 59.2312 755.932 Q62.0002 758.861 67.0292 759.306 L66.9973 738.427 Z" fill="#000000" fill-rule="evenodd" fill-opacity="1" /><path clip-path="url(#clip530)" d="M 0 0 M57.8307 705.771 Q57.2578 706.757 57.0032 707.935 Q56.7167 709.081 56.7167 710.481 Q56.7167 715.446 59.9632 718.12 Q63.1779 720.762 69.2253 720.762 L88.0042 720.762 L88.0042 726.65 L52.3562 726.65 L52.3562 720.762 L57.8944 720.762 Q54.6479 718.916 53.0883 715.956 Q51.4968 712.996 51.4968 708.762 Q51.4968 708.158 51.5923 707.426 Q51.656 706.694 51.8151 705.802 L57.8307 705.771 Z" fill="#000000" fill-rule="evenodd" fill-opacity="1" /><path clip-path="url(#clip530)" d="M 0 0 M69.7664 677.316 Q63.4007 677.316 59.8996 679.958 Q56.3984 682.568 56.3984 687.31 Q56.3984 692.021 59.8996 694.662 Q63.4007 697.272 69.7664 697.272 Q76.1003 697.272 79.6014 694.662 Q83.1026 692.021 83.1026 687.31 Q83.1026 682.568 79.6014 679.958 Q76.1003 677.316 69.7664 677.316 M83.58 671.459 Q92.683 671.459 97.1071 675.502 Q101.563 679.544 101.563 687.883 Q101.563 690.97 101.086 693.708 Q100.64 696.445 99.6852 699.023 L93.9879 699.023 Q95.3884 696.445 96.0568 693.93 Q96.7252 691.416 96.7252 688.806 Q96.7252 683.045 93.7015 680.18 Q90.7096 677.316 84.6303 677.316 L81.7339 677.316 Q84.885 679.13 86.4446 681.963 Q88.0042 684.796 88.0042 688.742 Q88.0042 695.299 83.0071 699.309 Q78.01 703.32 69.7664 703.32 Q61.491 703.32 56.4939 699.309 Q51.4968 695.299 51.4968 688.742 Q51.4968 684.796 53.0564 681.963 Q54.616 679.13 57.7671 677.316 L52.3562 677.316 L52.3562 671.459 L83.58 671.459 Z" fill="#000000" fill-rule="evenodd" fill-opacity="1" /><path clip-path="url(#clip530)" d="M 0 0 M91.3143 650.484 Q97.68 652.967 99.6216 655.322 Q101.563 657.678 101.563 661.624 L101.563 666.303 L96.6615 666.303 L96.6615 662.866 Q96.6615 660.447 95.5157 659.11 Q94.3699 657.773 90.1048 656.15 L87.4312 655.1 L52.3562 669.518 L52.3562 663.311 L80.238 652.171 L52.3562 641.031 L52.3562 634.825 L91.3143 650.484 Z" fill="#000000" fill-rule="evenodd" fill-opacity="1" /><polyline clip-path="url(#clip532)" style="stroke:#009af9; stroke-width:4; stroke-opacity:1; fill:none" points="
  266.128,1384.24 286.591,1383.93 307.054,1383.01 327.517,1381.47 347.981,1379.33 368.444,1376.57 388.907,1373.21 409.37,1369.24 429.833,1364.68 450.296,1359.53 
  470.76,1353.79 491.223,1347.47 511.686,1340.58 532.149,1333.13 552.612,1325.13 573.075,1316.58 593.538,1307.5 614.002,1297.91 634.465,1287.8 654.928,1277.2 
  675.391,1266.12 695.854,1254.58 716.317,1242.59 736.781,1230.16 757.244,1217.33 777.707,1204.11 798.17,1190.51 818.633,1176.57 839.096,1162.3 859.56,1147.75 
  880.023,1132.92 900.486,1117.86 920.949,1102.61 941.412,1087.2 961.875,1071.67 982.338,1056.08 1002.8,1040.49 1023.26,1024.96 1043.73,1009.57 1064.19,994.42 
  1084.65,979.611 1105.12,965.278 1125.58,951.579 1146.04,938.702 1166.51,926.871 1186.97,916.342 1207.43,907.401 1227.9,900.344 1248.36,895.45 1268.82,892.941 
  1289.29,892.941 1309.75,895.45 1330.21,900.344 1350.68,907.401 1371.14,916.342 1391.6,926.871 1412.06,938.702 1432.53,951.579 1452.99,965.278 1473.45,979.611 
  1493.92,994.42 1514.38,1009.57 1534.84,1024.96 1555.31,1040.49 1575.77,1056.08 1596.23,1071.67 1616.7,1087.2 1637.16,1102.61 1657.62,1117.86 1678.09,1132.92 
  1698.55,1147.75 1719.01,1162.3 1739.48,1176.57 1759.94,1190.51 1780.4,1204.11 1800.86,1217.33 1821.33,1230.16 1841.79,1242.59 1862.25,1254.58 1882.72,1266.12 
  1903.18,1277.2 1923.64,1287.8 1944.11,1297.91 1964.57,1307.5 1985.03,1316.58 2005.5,1325.13 2025.96,1333.13 2046.42,1340.58 2066.89,1347.47 2087.35,1353.79 
  2107.81,1359.53 2128.28,1364.68 2148.74,1369.24 2169.2,1373.21 2189.66,1376.57 2210.13,1379.33 2230.59,1381.47 2251.05,1383.01 2271.52,1383.93 2291.98,1384.24 
  
  "/>
<polyline clip-path="url(#clip532)" style="stroke:#e26f46; stroke-width:4; stroke-opacity:1; fill:none" points="
  266.128,86.1857 286.591,86.4932 307.054,87.4154 327.517,88.9513 347.981,91.0989 368.444,93.8557 388.907,97.2185 409.37,101.183 429.833,105.745 450.296,110.899 
  470.76,116.638 491.223,122.955 511.686,129.843 532.149,137.293 552.612,145.297 573.075,153.842 593.538,162.92 614.002,172.518 634.465,182.624 654.928,193.223 
  675.391,204.303 695.854,215.846 716.317,227.838 736.781,240.259 757.244,253.093 777.707,266.318 798.17,279.913 818.633,293.855 839.096,308.119 859.56,322.678 
  880.023,337.503 900.486,352.56 920.949,367.815 941.412,383.228 961.875,398.754 982.338,414.341 1002.8,429.934 1023.26,445.463 1043.73,460.85 1064.19,476.004 
  1084.65,490.813 1105.12,505.146 1125.58,518.845 1146.04,531.722 1166.51,543.553 1186.97,554.082 1207.43,563.023 1227.9,570.08 1248.36,574.974 1268.82,577.483 
  1289.29,577.483 1309.75,574.974 1330.21,570.08 1350.68,563.023 1371.14,554.082 1391.6,543.553 1412.06,531.722 1432.53,518.845 1452.99,505.146 1473.45,490.813 
  1493.92,476.004 1514.38,460.85 1534.84,445.463 1555.31,429.934 1575.77,414.341 1596.23,398.754 1616.7,383.228 1637.16,367.815 1657.62,352.56 1678.09,337.503 
  1698.55,322.678 1719.01,308.119 1739.48,293.855 1759.94,279.913 1780.4,266.318 1800.86,253.093 1821.33,240.259 1841.79,227.838 1862.25,215.846 1882.72,204.303 
  1903.18,193.223 1923.64,182.624 1944.11,172.518 1964.57,162.92 1985.03,153.842 2005.5,145.297 2025.96,137.293 2046.42,129.843 2066.89,122.955 2087.35,116.638 
  2107.81,110.899 2128.28,105.745 2148.74,101.183 2169.2,97.2185 2189.66,93.8557 2210.13,91.0989 2230.59,88.9513 2251.05,87.4154 2271.52,86.4932 2291.98,86.1857 
  
  "/>
<path clip-path="url(#clip530)" d="
M1895.63 795.692 L2281.18 795.692 L2281.18 614.252 L1895.63 614.252  Z
  " fill="#ffffff" fill-rule="evenodd" fill-opacity="1"/>
<polyline clip-path="url(#clip530)" style="stroke:#000000; stroke-width:4; stroke-opacity:1; fill:none" points="
  1895.63,795.692 2281.18,795.692 2281.18,614.252 1895.63,614.252 1895.63,795.692 
  "/>
<polyline clip-path="url(#clip530)" style="stroke:#009af9; stroke-width:4; stroke-opacity:1; fill:none" points="
  1919.49,674.732 2062.65,674.732 
  "/>
<path clip-path="url(#clip530)" d="M 0 0 M2090.79 688.123 L2090.79 701.873 L2086.51 701.873 L2086.51 666.086 L2090.79 666.086 L2090.79 670.021 Q2092.14 667.707 2094.17 666.595 Q2096.23 665.461 2099.08 665.461 Q2103.8 665.461 2106.74 669.211 Q2109.71 672.961 2109.71 679.072 Q2109.71 685.183 2106.74 688.933 Q2103.8 692.683 2099.08 692.683 Q2096.23 692.683 2094.17 691.572 Q2092.14 690.438 2090.79 688.123 M2105.29 679.072 Q2105.29 674.373 2103.34 671.711 Q2101.42 669.026 2098.04 669.026 Q2094.66 669.026 2092.72 671.711 Q2090.79 674.373 2090.79 679.072 Q2090.79 683.771 2092.72 686.456 Q2094.66 689.118 2098.04 689.118 Q2101.42 689.118 2103.34 686.456 Q2105.29 683.771 2105.29 679.072 Z" fill="#000000" fill-rule="evenodd" fill-opacity="1" /><path clip-path="url(#clip530)" d="M 0 0 M2145.77 666.85 L2145.77 670.878 Q2143.97 669.952 2142.02 669.489 Q2140.08 669.026 2137.99 669.026 Q2134.82 669.026 2133.22 669.998 Q2131.65 670.97 2131.65 672.915 Q2131.65 674.396 2132.78 675.253 Q2133.92 676.086 2137.35 676.85 L2138.8 677.174 Q2143.34 678.146 2145.24 679.929 Q2147.16 681.688 2147.16 684.859 Q2147.16 688.47 2144.29 690.577 Q2141.44 692.683 2136.44 692.683 Q2134.36 692.683 2132.09 692.267 Q2129.85 691.873 2127.35 691.063 L2127.35 686.665 Q2129.71 687.892 2132 688.517 Q2134.29 689.118 2136.53 689.118 Q2139.54 689.118 2141.16 688.1 Q2142.78 687.058 2142.78 685.183 Q2142.78 683.447 2141.6 682.521 Q2140.45 681.595 2136.49 680.739 L2135.01 680.392 Q2131.05 679.558 2129.29 677.845 Q2127.53 676.109 2127.53 673.1 Q2127.53 669.443 2130.12 667.452 Q2132.72 665.461 2137.48 665.461 Q2139.85 665.461 2141.93 665.808 Q2144.01 666.156 2145.77 666.85 Z" fill="#000000" fill-rule="evenodd" fill-opacity="1" /><path clip-path="url(#clip530)" d="M 0 0 M2155.84 658.725 L2155.84 666.086 L2164.61 666.086 L2164.61 669.396 L2155.84 669.396 L2155.84 683.47 Q2155.84 686.642 2156.7 687.544 Q2157.58 688.447 2160.24 688.447 L2164.61 688.447 L2164.61 692.012 L2160.24 692.012 Q2155.31 692.012 2153.43 690.183 Q2151.56 688.331 2151.56 683.47 L2151.56 669.396 L2148.43 669.396 L2148.43 666.086 L2151.56 666.086 L2151.56 658.725 L2155.84 658.725 Z" fill="#000000" fill-rule="evenodd" fill-opacity="1" /><path clip-path="url(#clip530)" d="M 0 0 M2180.86 678.98 Q2175.7 678.98 2173.71 680.16 Q2171.72 681.341 2171.72 684.188 Q2171.72 686.456 2173.2 687.799 Q2174.71 689.118 2177.28 689.118 Q2180.82 689.118 2182.95 686.618 Q2185.1 684.095 2185.1 679.929 L2185.1 678.98 L2180.86 678.98 M2189.36 677.22 L2189.36 692.012 L2185.1 692.012 L2185.1 688.077 Q2183.64 690.438 2181.47 691.572 Q2179.29 692.683 2176.14 692.683 Q2172.16 692.683 2169.8 690.461 Q2167.46 688.216 2167.46 684.466 Q2167.46 680.091 2170.38 677.869 Q2173.32 675.646 2179.13 675.646 L2185.1 675.646 L2185.1 675.23 Q2185.1 672.29 2183.16 670.693 Q2181.23 669.072 2177.74 669.072 Q2175.52 669.072 2173.41 669.605 Q2171.3 670.137 2169.36 671.202 L2169.36 667.267 Q2171.7 666.364 2173.9 665.924 Q2176.09 665.461 2178.18 665.461 Q2183.8 665.461 2186.58 668.378 Q2189.36 671.294 2189.36 677.22 Z" fill="#000000" fill-rule="evenodd" fill-opacity="1" /><path clip-path="url(#clip530)" d="M 0 0 M2198.04 658.725 L2198.04 666.086 L2206.81 666.086 L2206.81 669.396 L2198.04 669.396 L2198.04 683.47 Q2198.04 686.642 2198.9 687.544 Q2199.78 688.447 2202.44 688.447 L2206.81 688.447 L2206.81 692.012 L2202.44 692.012 Q2197.51 692.012 2195.63 690.183 Q2193.76 688.331 2193.76 683.47 L2193.76 669.396 L2190.63 669.396 L2190.63 666.086 L2193.76 666.086 L2193.76 658.725 L2198.04 658.725 Z" fill="#000000" fill-rule="evenodd" fill-opacity="1" /><path clip-path="url(#clip530)" d="M 0 0 M2233.46 677.984 L2233.46 680.068 L2213.87 680.068 Q2214.15 684.466 2216.51 686.781 Q2218.9 689.072 2223.13 689.072 Q2225.59 689.072 2227.88 688.47 Q2230.19 687.868 2232.46 686.665 L2232.46 690.693 Q2230.17 691.665 2227.76 692.174 Q2225.35 692.683 2222.88 692.683 Q2216.67 692.683 2213.04 689.072 Q2209.43 685.461 2209.43 679.304 Q2209.43 672.938 2212.85 669.211 Q2216.3 665.461 2222.14 665.461 Q2227.37 665.461 2230.4 668.841 Q2233.46 672.197 2233.46 677.984 M2229.2 676.734 Q2229.15 673.239 2227.23 671.156 Q2225.33 669.072 2222.18 669.072 Q2218.62 669.072 2216.47 671.086 Q2214.34 673.1 2214.01 676.757 L2229.2 676.734 Z" fill="#000000" fill-rule="evenodd" fill-opacity="1" /><polyline clip-path="url(#clip530)" style="stroke:#e26f46; stroke-width:4; stroke-opacity:1; fill:none" points="
  1919.49,735.212 2062.65,735.212 
  "/>
<path clip-path="url(#clip530)" d="M 0 0 M2104.94 727.33 L2104.94 731.358 Q2103.13 730.432 2101.19 729.969 Q2099.24 729.506 2097.16 729.506 Q2093.99 729.506 2092.39 730.478 Q2090.82 731.45 2090.82 733.395 Q2090.82 734.876 2091.95 735.733 Q2093.09 736.566 2096.51 737.33 L2097.97 737.654 Q2102.51 738.626 2104.41 740.409 Q2106.33 742.168 2106.33 745.339 Q2106.33 748.95 2103.46 751.057 Q2100.61 753.163 2095.61 753.163 Q2093.53 753.163 2091.26 752.747 Q2089.01 752.353 2086.51 751.543 L2086.51 747.145 Q2088.87 748.372 2091.16 748.997 Q2093.46 749.598 2095.7 749.598 Q2098.71 749.598 2100.33 748.58 Q2101.95 747.538 2101.95 745.663 Q2101.95 743.927 2100.77 743.001 Q2099.61 742.075 2095.66 741.219 L2094.17 740.872 Q2090.22 740.038 2088.46 738.325 Q2086.7 736.589 2086.7 733.58 Q2086.7 729.923 2089.29 727.932 Q2091.88 725.941 2096.65 725.941 Q2099.01 725.941 2101.1 726.288 Q2103.18 726.636 2104.94 727.33 Z" fill="#000000" fill-rule="evenodd" fill-opacity="1" /><path clip-path="url(#clip530)" d="M 0 0 M2142.39 727.33 L2142.39 731.358 Q2140.59 730.432 2138.64 729.969 Q2136.7 729.506 2134.61 729.506 Q2131.44 729.506 2129.85 730.478 Q2128.27 731.45 2128.27 733.395 Q2128.27 734.876 2129.41 735.733 Q2130.54 736.566 2133.97 737.33 L2135.42 737.654 Q2139.96 738.626 2141.86 740.409 Q2143.78 742.168 2143.78 745.339 Q2143.78 748.95 2140.91 751.057 Q2138.06 753.163 2133.06 753.163 Q2130.98 753.163 2128.71 752.747 Q2126.47 752.353 2123.97 751.543 L2123.97 747.145 Q2126.33 748.372 2128.62 748.997 Q2130.91 749.598 2133.16 749.598 Q2136.16 749.598 2137.78 748.58 Q2139.41 747.538 2139.41 745.663 Q2139.41 743.927 2138.22 743.001 Q2137.07 742.075 2133.11 741.219 L2131.63 740.872 Q2127.67 740.038 2125.91 738.325 Q2124.15 736.589 2124.15 733.58 Q2124.15 729.923 2126.74 727.932 Q2129.34 725.941 2134.1 725.941 Q2136.47 725.941 2138.55 726.288 Q2140.63 726.636 2142.39 727.33 Z" fill="#000000" fill-rule="evenodd" fill-opacity="1" /><path clip-path="url(#clip530)" d="M 0 0 M2152.46 719.205 L2152.46 726.566 L2161.23 726.566 L2161.23 729.876 L2152.46 729.876 L2152.46 743.95 Q2152.46 747.122 2153.32 748.024 Q2154.2 748.927 2156.86 748.927 L2161.23 748.927 L2161.23 752.492 L2156.86 752.492 Q2151.93 752.492 2150.05 750.663 Q2148.18 748.811 2148.18 743.95 L2148.18 729.876 L2145.05 729.876 L2145.05 726.566 L2148.18 726.566 L2148.18 719.205 L2152.46 719.205 Z" fill="#000000" fill-rule="evenodd" fill-opacity="1" /><path clip-path="url(#clip530)" d="M 0 0 M2177.48 739.46 Q2172.32 739.46 2170.33 740.64 Q2168.34 741.821 2168.34 744.668 Q2168.34 746.936 2169.82 748.279 Q2171.33 749.598 2173.9 749.598 Q2177.44 749.598 2179.57 747.098 Q2181.72 744.575 2181.72 740.409 L2181.72 739.46 L2177.48 739.46 M2185.98 737.7 L2185.98 752.492 L2181.72 752.492 L2181.72 748.557 Q2180.26 750.918 2178.09 752.052 Q2175.91 753.163 2172.76 753.163 Q2168.78 753.163 2166.42 750.941 Q2164.08 748.696 2164.08 744.946 Q2164.08 740.571 2167 738.349 Q2169.94 736.126 2175.75 736.126 L2181.72 736.126 L2181.72 735.71 Q2181.72 732.77 2179.78 731.173 Q2177.85 729.552 2174.36 729.552 Q2172.14 729.552 2170.03 730.085 Q2167.92 730.617 2165.98 731.682 L2165.98 727.747 Q2168.32 726.844 2170.52 726.404 Q2172.72 725.941 2174.8 725.941 Q2180.42 725.941 2183.2 728.858 Q2185.98 731.774 2185.98 737.7 Z" fill="#000000" fill-rule="evenodd" fill-opacity="1" /><path clip-path="url(#clip530)" d="M 0 0 M2194.66 719.205 L2194.66 726.566 L2203.43 726.566 L2203.43 729.876 L2194.66 729.876 L2194.66 743.95 Q2194.66 747.122 2195.52 748.024 Q2196.4 748.927 2199.06 748.927 L2203.43 748.927 L2203.43 752.492 L2199.06 752.492 Q2194.13 752.492 2192.25 750.663 Q2190.38 748.811 2190.38 743.95 L2190.38 729.876 L2187.25 729.876 L2187.25 726.566 L2190.38 726.566 L2190.38 719.205 L2194.66 719.205 Z" fill="#000000" fill-rule="evenodd" fill-opacity="1" /><path clip-path="url(#clip530)" d="M 0 0 M2230.08 738.464 L2230.08 740.548 L2210.49 740.548 Q2210.77 744.946 2213.13 747.261 Q2215.52 749.552 2219.75 749.552 Q2222.21 749.552 2224.5 748.95 Q2226.81 748.348 2229.08 747.145 L2229.08 751.173 Q2226.79 752.145 2224.38 752.654 Q2221.97 753.163 2219.5 753.163 Q2213.29 753.163 2209.66 749.552 Q2206.05 745.941 2206.05 739.784 Q2206.05 733.418 2209.47 729.691 Q2212.92 725.941 2218.76 725.941 Q2223.99 725.941 2227.02 729.321 Q2230.08 732.677 2230.08 738.464 M2225.82 737.214 Q2225.77 733.719 2223.85 731.636 Q2221.95 729.552 2218.8 729.552 Q2215.24 729.552 2213.09 731.566 Q2210.96 733.58 2210.63 737.237 L2225.82 737.214 Z" fill="#000000" fill-rule="evenodd" fill-opacity="1" /></svg>
