<?xml version="1.0" encoding="utf-8"?>
<svg xmlns="http://www.w3.org/2000/svg" xmlns:xlink="http://www.w3.org/1999/xlink" width="600" height="400" viewBox="0 0 2400 1600">
<defs>
  <clipPath id="clip210">
    <rect x="0" y="0" width="2400" height="1600"/>
  </clipPath>
</defs>
<path clip-path="url(#clip210)" d="
M0 1600 L2400 1600 L2400 0 L0 0  Z
  " fill="#ffffff" fill-rule="evenodd" fill-opacity="1"/>
<defs>
  <clipPath id="clip211">
    <rect x="480" y="0" width="1681" height="1600"/>
  </clipPath>
</defs>
<path clip-path="url(#clip210)" d="
M211.116 1423.18 L2352.76 1423.18 L2352.76 123.472 L211.116 123.472  Z
  " fill="#ffffff" fill-rule="evenodd" fill-opacity="1"/>
<defs>
  <clipPath id="clip212">
    <rect x="211" y="123" width="2143" height="1301"/>
  </clipPath>
</defs>
<polyline clip-path="url(#clip212)" style="stroke:#000000; stroke-width:2; stroke-opacity:0.1; fill:none" points="
  211.116,1423.18 211.116,123.472 
  "/>
<polyline clip-path="url(#clip212)" style="stroke:#000000; stroke-width:2; stroke-opacity:0.1; fill:none" points="
  746.526,1423.18 746.526,123.472 
  "/>
<polyline clip-path="url(#clip212)" style="stroke:#000000; stroke-width:2; stroke-opacity:0.1; fill:none" points="
  1281.94,1423.18 1281.94,123.472 
  "/>
<polyline clip-path="url(#clip212)" style="stroke:#000000; stroke-width:2; stroke-opacity:0.1; fill:none" points="
  1817.35,1423.18 1817.35,123.472 
  "/>
<polyline clip-path="url(#clip212)" style="stroke:#000000; stroke-width:2; stroke-opacity:0.1; fill:none" points="
  2352.76,1423.18 2352.76,123.472 
  "/>
<polyline clip-path="url(#clip210)" style="stroke:#000000; stroke-width:4; stroke-opacity:1; fill:none" points="
  211.116,1423.18 2352.76,1423.18 
  "/>
<polyline clip-path="url(#clip210)" style="stroke:#000000; stroke-width:4; stroke-opacity:1; fill:none" points="
  211.116,1423.18 211.116,1407.58 
  "/>
<polyline clip-path="url(#clip210)" style="stroke:#000000; stroke-width:4; stroke-opacity:1; fill:none" points="
  746.526,1423.18 746.526,1407.58 
  "/>
<polyline clip-path="url(#clip210)" style="stroke:#000000; stroke-width:4; stroke-opacity:1; fill:none" points="
  1281.94,1423.18 1281.94,1407.58 
  "/>
<polyline clip-path="url(#clip210)" style="stroke:#000000; stroke-width:4; stroke-opacity:1; fill:none" points="
  1817.35,1423.18 1817.35,1407.58 
  "/>
<polyline clip-path="url(#clip210)" style="stroke:#000000; stroke-width:4; stroke-opacity:1; fill:none" points="
  2352.76,1423.18 2352.76,1407.58 
  "/>
<path clip-path="url(#clip210)" d="M 0 0 M187.204 1453.37 L175.399 1471.81 L187.204 1471.81 L187.204 1453.37 M185.978 1449.29 L191.857 1449.29 L191.857 1471.81 L196.788 1471.81 L196.788 1475.7 L191.857 1475.7 L191.857 1483.85 L187.204 1483.85 L187.204 1475.7 L171.603 1475.7 L171.603 1471.19 L185.978 1449.29 Z" fill="#000000" fill-rule="evenodd" fill-opacity="1" /><path clip-path="url(#clip210)" d="M 0 0 M201.996 1483.13 L201.996 1478.88 Q203.755 1479.71 205.561 1480.15 Q207.366 1480.59 209.102 1480.59 Q213.732 1480.59 216.163 1477.49 Q218.616 1474.36 218.963 1468.02 Q217.621 1470.01 215.561 1471.07 Q213.501 1472.14 211.001 1472.14 Q205.815 1472.14 202.783 1469.01 Q199.774 1465.87 199.774 1460.43 Q199.774 1455.1 202.922 1451.88 Q206.07 1448.67 211.301 1448.67 Q217.297 1448.67 220.445 1453.27 Q223.616 1457.86 223.616 1466.61 Q223.616 1474.78 219.727 1479.66 Q215.862 1484.52 209.311 1484.52 Q207.552 1484.52 205.746 1484.18 Q203.94 1483.83 201.996 1483.13 M211.301 1468.48 Q214.45 1468.48 216.278 1466.33 Q218.13 1464.18 218.13 1460.43 Q218.13 1456.7 216.278 1454.55 Q214.45 1452.37 211.301 1452.37 Q208.153 1452.37 206.302 1454.55 Q204.473 1456.7 204.473 1460.43 Q204.473 1464.18 206.302 1466.33 Q208.153 1468.48 211.301 1468.48 Z" fill="#000000" fill-rule="evenodd" fill-opacity="1" /><path clip-path="url(#clip210)" d="M 0 0 M238.686 1452.37 Q235.075 1452.37 233.246 1455.94 Q231.44 1459.48 231.44 1466.61 Q231.44 1473.71 233.246 1477.28 Q235.075 1480.82 238.686 1480.82 Q242.32 1480.82 244.125 1477.28 Q245.954 1473.71 245.954 1466.61 Q245.954 1459.48 244.125 1455.94 Q242.32 1452.37 238.686 1452.37 M238.686 1448.67 Q244.496 1448.67 247.551 1453.27 Q250.63 1457.86 250.63 1466.61 Q250.63 1475.33 247.551 1479.94 Q244.496 1484.52 238.686 1484.52 Q232.875 1484.52 229.797 1479.94 Q226.741 1475.33 226.741 1466.61 Q226.741 1457.86 229.797 1453.27 Q232.875 1448.67 238.686 1448.67 Z" fill="#000000" fill-rule="evenodd" fill-opacity="1" /><path clip-path="url(#clip210)" d="M 0 0 M723.112 1453.37 L711.306 1471.81 L723.112 1471.81 L723.112 1453.37 M721.885 1449.29 L727.765 1449.29 L727.765 1471.81 L732.695 1471.81 L732.695 1475.7 L727.765 1475.7 L727.765 1483.85 L723.112 1483.85 L723.112 1475.7 L707.51 1475.7 L707.51 1471.19 L721.885 1449.29 Z" fill="#000000" fill-rule="evenodd" fill-opacity="1" /><path clip-path="url(#clip210)" d="M 0 0 M737.904 1483.13 L737.904 1478.88 Q739.663 1479.71 741.468 1480.15 Q743.274 1480.59 745.01 1480.59 Q749.64 1480.59 752.07 1477.49 Q754.524 1474.36 754.871 1468.02 Q753.528 1470.01 751.468 1471.07 Q749.408 1472.14 746.908 1472.14 Q741.723 1472.14 738.691 1469.01 Q735.681 1465.87 735.681 1460.43 Q735.681 1455.1 738.829 1451.88 Q741.978 1448.67 747.209 1448.67 Q753.204 1448.67 756.353 1453.27 Q759.524 1457.86 759.524 1466.61 Q759.524 1474.78 755.635 1479.66 Q751.769 1484.52 745.218 1484.52 Q743.459 1484.52 741.654 1484.18 Q739.848 1483.83 737.904 1483.13 M747.209 1468.48 Q750.357 1468.48 752.186 1466.33 Q754.038 1464.18 754.038 1460.43 Q754.038 1456.7 752.186 1454.55 Q750.357 1452.37 747.209 1452.37 Q744.061 1452.37 742.209 1454.55 Q740.38 1456.7 740.38 1460.43 Q740.38 1464.18 742.209 1466.33 Q744.061 1468.48 747.209 1468.48 Z" fill="#000000" fill-rule="evenodd" fill-opacity="1" /><path clip-path="url(#clip210)" d="M 0 0 M764.64 1449.29 L782.996 1449.29 L782.996 1453.23 L768.922 1453.23 L768.922 1461.7 Q769.94 1461.35 770.959 1461.19 Q771.977 1461 772.996 1461 Q778.783 1461 782.163 1464.18 Q785.542 1467.35 785.542 1472.76 Q785.542 1478.34 782.07 1481.44 Q778.598 1484.52 772.278 1484.52 Q770.102 1484.52 767.834 1484.15 Q765.589 1483.78 763.181 1483.04 L763.181 1478.34 Q765.265 1479.48 767.487 1480.03 Q769.709 1480.59 772.186 1480.59 Q776.19 1480.59 778.528 1478.48 Q780.866 1476.38 780.866 1472.76 Q780.866 1469.15 778.528 1467.05 Q776.19 1464.94 772.186 1464.94 Q770.311 1464.94 768.436 1465.36 Q766.584 1465.77 764.64 1466.65 L764.64 1449.29 Z" fill="#000000" fill-rule="evenodd" fill-opacity="1" /><path clip-path="url(#clip210)" d="M 0 0 M1245.2 1449.29 L1263.56 1449.29 L1263.56 1453.23 L1249.48 1453.23 L1249.48 1461.7 Q1250.5 1461.35 1251.52 1461.19 Q1252.54 1461 1253.56 1461 Q1259.34 1461 1262.72 1464.18 Q1266.1 1467.35 1266.1 1472.76 Q1266.1 1478.34 1262.63 1481.44 Q1259.16 1484.52 1252.84 1484.52 Q1250.66 1484.52 1248.39 1484.15 Q1246.15 1483.78 1243.74 1483.04 L1243.74 1478.34 Q1245.83 1479.48 1248.05 1480.03 Q1250.27 1480.59 1252.75 1480.59 Q1256.75 1480.59 1259.09 1478.48 Q1261.43 1476.38 1261.43 1472.76 Q1261.43 1469.15 1259.09 1467.05 Q1256.75 1464.94 1252.75 1464.94 Q1250.87 1464.94 1249 1465.36 Q1247.14 1465.77 1245.2 1466.65 L1245.2 1449.29 Z" fill="#000000" fill-rule="evenodd" fill-opacity="1" /><path clip-path="url(#clip210)" d="M 0 0 M1281.17 1452.37 Q1277.56 1452.37 1275.73 1455.94 Q1273.93 1459.48 1273.93 1466.61 Q1273.93 1473.71 1275.73 1477.28 Q1277.56 1480.82 1281.17 1480.82 Q1284.81 1480.82 1286.61 1477.28 Q1288.44 1473.71 1288.44 1466.61 Q1288.44 1459.48 1286.61 1455.94 Q1284.81 1452.37 1281.17 1452.37 M1281.17 1448.67 Q1286.98 1448.67 1290.04 1453.27 Q1293.12 1457.86 1293.12 1466.61 Q1293.12 1475.33 1290.04 1479.94 Q1286.98 1484.52 1281.17 1484.52 Q1275.36 1484.52 1272.28 1479.94 Q1269.23 1475.33 1269.23 1466.61 Q1269.23 1457.86 1272.28 1453.27 Q1275.36 1448.67 1281.17 1448.67 Z" fill="#000000" fill-rule="evenodd" fill-opacity="1" /><path clip-path="url(#clip210)" d="M 0 0 M1308.19 1452.37 Q1304.57 1452.37 1302.75 1455.94 Q1300.94 1459.48 1300.94 1466.61 Q1300.94 1473.71 1302.75 1477.28 Q1304.57 1480.82 1308.19 1480.82 Q1311.82 1480.82 1313.63 1477.28 Q1315.45 1473.71 1315.45 1466.61 Q1315.45 1459.48 1313.63 1455.94 Q1311.82 1452.37 1308.19 1452.37 M1308.19 1448.67 Q1314 1448.67 1317.05 1453.27 Q1320.13 1457.86 1320.13 1466.61 Q1320.13 1475.33 1317.05 1479.94 Q1314 1484.52 1308.19 1484.52 Q1302.38 1484.52 1299.3 1479.94 Q1296.24 1475.33 1296.24 1466.61 Q1296.24 1457.86 1299.3 1453.27 Q1302.38 1448.67 1308.19 1448.67 Z" fill="#000000" fill-rule="evenodd" fill-opacity="1" /><path clip-path="url(#clip210)" d="M 0 0 M1781.11 1449.29 L1799.46 1449.29 L1799.46 1453.23 L1785.39 1453.23 L1785.39 1461.7 Q1786.41 1461.35 1787.43 1461.19 Q1788.45 1461 1789.46 1461 Q1795.25 1461 1798.63 1464.18 Q1802.01 1467.35 1802.01 1472.76 Q1802.01 1478.34 1798.54 1481.44 Q1795.07 1484.52 1788.75 1484.52 Q1786.57 1484.52 1784.3 1484.15 Q1782.06 1483.78 1779.65 1483.04 L1779.65 1478.34 Q1781.73 1479.48 1783.95 1480.03 Q1786.18 1480.59 1788.65 1480.59 Q1792.66 1480.59 1795 1478.48 Q1797.33 1476.38 1797.33 1472.76 Q1797.33 1469.15 1795 1467.05 Q1792.66 1464.94 1788.65 1464.94 Q1786.78 1464.94 1784.9 1465.36 Q1783.05 1465.77 1781.11 1466.65 L1781.11 1449.29 Z" fill="#000000" fill-rule="evenodd" fill-opacity="1" /><path clip-path="url(#clip210)" d="M 0 0 M1817.08 1452.37 Q1813.47 1452.37 1811.64 1455.94 Q1809.83 1459.48 1809.83 1466.61 Q1809.83 1473.71 1811.64 1477.28 Q1813.47 1480.82 1817.08 1480.82 Q1820.71 1480.82 1822.52 1477.28 Q1824.35 1473.71 1824.35 1466.61 Q1824.35 1459.48 1822.52 1455.94 Q1820.71 1452.37 1817.08 1452.37 M1817.08 1448.67 Q1822.89 1448.67 1825.95 1453.27 Q1829.02 1457.86 1829.02 1466.61 Q1829.02 1475.33 1825.95 1479.94 Q1822.89 1484.52 1817.08 1484.52 Q1811.27 1484.52 1808.19 1479.94 Q1805.14 1475.33 1805.14 1466.61 Q1805.14 1457.86 1808.19 1453.27 Q1811.27 1448.67 1817.08 1448.67 Z" fill="#000000" fill-rule="evenodd" fill-opacity="1" /><path clip-path="url(#clip210)" d="M 0 0 M1834.14 1449.29 L1852.5 1449.29 L1852.5 1453.23 L1838.42 1453.23 L1838.42 1461.7 Q1839.44 1461.35 1840.46 1461.19 Q1841.48 1461 1842.5 1461 Q1848.28 1461 1851.66 1464.18 Q1855.04 1467.35 1855.04 1472.76 Q1855.04 1478.34 1851.57 1481.44 Q1848.1 1484.52 1841.78 1484.52 Q1839.6 1484.52 1837.33 1484.15 Q1835.09 1483.78 1832.68 1483.04 L1832.68 1478.34 Q1834.76 1479.48 1836.99 1480.03 Q1839.21 1480.59 1841.69 1480.59 Q1845.69 1480.59 1848.03 1478.48 Q1850.37 1476.38 1850.37 1472.76 Q1850.37 1469.15 1848.03 1467.05 Q1845.69 1464.94 1841.69 1464.94 Q1839.81 1464.94 1837.94 1465.36 Q1836.08 1465.77 1834.14 1466.65 L1834.14 1449.29 Z" fill="#000000" fill-rule="evenodd" fill-opacity="1" /><path clip-path="url(#clip210)" d="M 0 0 M2316.63 1449.29 L2334.99 1449.29 L2334.99 1453.23 L2320.92 1453.23 L2320.92 1461.7 Q2321.93 1461.35 2322.95 1461.19 Q2323.97 1461 2324.99 1461 Q2330.78 1461 2334.16 1464.18 Q2337.54 1467.35 2337.54 1472.76 Q2337.54 1478.34 2334.06 1481.44 Q2330.59 1484.52 2324.27 1484.52 Q2322.1 1484.52 2319.83 1484.15 Q2317.58 1483.78 2315.18 1483.04 L2315.18 1478.34 Q2317.26 1479.48 2319.48 1480.03 Q2321.7 1480.59 2324.18 1480.59 Q2328.18 1480.59 2330.52 1478.48 Q2332.86 1476.38 2332.86 1472.76 Q2332.86 1469.15 2330.52 1467.05 Q2328.18 1464.94 2324.18 1464.94 Q2322.3 1464.94 2320.43 1465.36 Q2318.58 1465.77 2316.63 1466.65 L2316.63 1449.29 Z" fill="#000000" fill-rule="evenodd" fill-opacity="1" /><path clip-path="url(#clip210)" d="M 0 0 M2343.42 1479.92 L2351.05 1479.92 L2351.05 1453.55 L2342.74 1455.22 L2342.74 1450.96 L2351.01 1449.29 L2355.68 1449.29 L2355.68 1479.92 L2363.32 1479.92 L2363.32 1483.85 L2343.42 1483.85 L2343.42 1479.92 Z" fill="#000000" fill-rule="evenodd" fill-opacity="1" /><path clip-path="url(#clip210)" d="M 0 0 M2378.39 1452.37 Q2374.78 1452.37 2372.95 1455.94 Q2371.15 1459.48 2371.15 1466.61 Q2371.15 1473.71 2372.95 1477.28 Q2374.78 1480.82 2378.39 1480.82 Q2382.03 1480.82 2383.83 1477.28 Q2385.66 1473.71 2385.66 1466.61 Q2385.66 1459.48 2383.83 1455.94 Q2382.03 1452.37 2378.39 1452.37 M2378.39 1448.67 Q2384.2 1448.67 2387.26 1453.27 Q2390.34 1457.86 2390.34 1466.61 Q2390.34 1475.33 2387.26 1479.94 Q2384.2 1484.52 2378.39 1484.52 Q2372.58 1484.52 2369.5 1479.94 Q2366.45 1475.33 2366.45 1466.61 Q2366.45 1457.86 2369.5 1453.27 Q2372.58 1448.67 2378.39 1448.67 Z" fill="#000000" fill-rule="evenodd" fill-opacity="1" /><path clip-path="url(#clip210)" d="M 0 0 M1259.48 1510.08 L1259.48 1516.35 Q1255.82 1514.6 1252.57 1513.74 Q1249.33 1512.88 1246.3 1512.88 Q1241.05 1512.88 1238.19 1514.92 Q1235.36 1516.96 1235.36 1520.71 Q1235.36 1523.87 1237.23 1525.49 Q1239.14 1527.08 1244.43 1528.07 L1248.31 1528.86 Q1255.5 1530.23 1258.91 1533.7 Q1262.35 1537.14 1262.35 1542.93 Q1262.35 1549.84 1257.7 1553.4 Q1253.08 1556.97 1244.14 1556.97 Q1240.77 1556.97 1236.95 1556.2 Q1233.16 1555.44 1229.08 1553.94 L1229.08 1547.32 Q1233 1549.52 1236.76 1550.63 Q1240.51 1551.75 1244.14 1551.75 Q1249.65 1551.75 1252.64 1549.58 Q1255.63 1547.42 1255.63 1543.41 Q1255.63 1539.91 1253.47 1537.93 Q1251.33 1535.96 1246.43 1534.97 L1242.52 1534.21 Q1235.32 1532.78 1232.11 1529.72 Q1228.89 1526.67 1228.89 1521.22 Q1228.89 1514.92 1233.32 1511.29 Q1237.77 1507.66 1245.57 1507.66 Q1248.91 1507.66 1252.38 1508.27 Q1255.85 1508.87 1259.48 1510.08 Z" fill="#000000" fill-rule="evenodd" fill-opacity="1" /><path clip-path="url(#clip210)" d="M 0 0 M1268.49 1520.4 L1274.35 1520.4 L1274.35 1556.04 L1268.49 1556.04 L1268.49 1520.4 M1268.49 1506.52 L1274.35 1506.52 L1274.35 1513.93 L1268.49 1513.93 L1268.49 1506.52 Z" fill="#000000" fill-rule="evenodd" fill-opacity="1" /><path clip-path="url(#clip210)" d="M 0 0 M1286.28 1510.27 L1286.28 1520.4 L1298.34 1520.4 L1298.34 1524.95 L1286.28 1524.95 L1286.28 1544.3 Q1286.28 1548.66 1287.46 1549.9 Q1288.67 1551.14 1292.33 1551.14 L1298.34 1551.14 L1298.34 1556.04 L1292.33 1556.04 Q1285.55 1556.04 1282.97 1553.53 Q1280.39 1550.98 1280.39 1544.3 L1280.39 1524.95 L1276.1 1524.95 L1276.1 1520.4 L1280.39 1520.4 L1280.39 1510.27 L1286.28 1510.27 Z" fill="#000000" fill-rule="evenodd" fill-opacity="1" /><path clip-path="url(#clip210)" d="M 0 0 M1334.98 1536.76 L1334.98 1539.62 L1308.05 1539.62 Q1308.43 1545.67 1311.68 1548.85 Q1314.96 1552 1320.78 1552 Q1324.16 1552 1327.31 1551.17 Q1330.49 1550.35 1333.61 1548.69 L1333.61 1554.23 Q1330.46 1555.57 1327.15 1556.27 Q1323.84 1556.97 1320.43 1556.97 Q1311.9 1556.97 1306.91 1552 Q1301.94 1547.04 1301.94 1538.57 Q1301.94 1529.82 1306.65 1524.69 Q1311.39 1519.54 1319.41 1519.54 Q1326.61 1519.54 1330.78 1524.18 Q1334.98 1528.8 1334.98 1536.76 M1329.12 1535.04 Q1329.06 1530.23 1326.42 1527.37 Q1323.81 1524.5 1319.48 1524.5 Q1314.58 1524.5 1311.62 1527.27 Q1308.69 1530.04 1308.24 1535.07 L1329.12 1535.04 Z" fill="#000000" fill-rule="evenodd" fill-opacity="1" /><polyline clip-path="url(#clip212)" style="stroke:#000000; stroke-width:2; stroke-opacity:0.1; fill:none" points="
  211.116,1386.4 2352.76,1386.4 
  "/>
<polyline clip-path="url(#clip212)" style="stroke:#000000; stroke-width:2; stroke-opacity:0.1; fill:none" points="
  211.116,1056.25 2352.76,1056.25 
  "/>
<polyline clip-path="url(#clip212)" style="stroke:#000000; stroke-width:2; stroke-opacity:0.1; fill:none" points="
  211.116,726.099 2352.76,726.099 
  "/>
<polyline clip-path="url(#clip212)" style="stroke:#000000; stroke-width:2; stroke-opacity:0.1; fill:none" points="
  211.116,395.951 2352.76,395.951 
  "/>
<polyline clip-path="url(#clip210)" style="stroke:#000000; stroke-width:4; stroke-opacity:1; fill:none" points="
  211.116,1423.18 211.116,123.472 
  "/>
<polyline clip-path="url(#clip210)" style="stroke:#000000; stroke-width:4; stroke-opacity:1; fill:none" points="
  211.116,1386.4 236.816,1386.4 
  "/>
<polyline clip-path="url(#clip210)" style="stroke:#000000; stroke-width:4; stroke-opacity:1; fill:none" points="
  211.116,1056.25 236.816,1056.25 
  "/>
<polyline clip-path="url(#clip210)" style="stroke:#000000; stroke-width:4; stroke-opacity:1; fill:none" points="
  211.116,726.099 236.816,726.099 
  "/>
<polyline clip-path="url(#clip210)" style="stroke:#000000; stroke-width:4; stroke-opacity:1; fill:none" points="
  211.116,395.951 236.816,395.951 
  "/>
<path clip-path="url(#clip210)" d="M 0 0 M126.205 1372.19 Q122.593 1372.19 120.765 1375.76 Q118.959 1379.3 118.959 1386.43 Q118.959 1393.54 120.765 1397.1 Q122.593 1400.64 126.205 1400.64 Q129.839 1400.64 131.644 1397.1 Q133.473 1393.54 133.473 1386.43 Q133.473 1379.3 131.644 1375.76 Q129.839 1372.19 126.205 1372.19 M126.205 1368.49 Q132.015 1368.49 135.07 1373.1 Q138.149 1377.68 138.149 1386.43 Q138.149 1395.16 135.07 1399.76 Q132.015 1404.35 126.205 1404.35 Q120.394 1404.35 117.316 1399.76 Q114.26 1395.16 114.26 1386.43 Q114.26 1377.68 117.316 1373.1 Q120.394 1368.49 126.205 1368.49 Z" fill="#000000" fill-rule="evenodd" fill-opacity="1" /><path clip-path="url(#clip210)" d="M 0 0 M143.218 1397.8 L148.103 1397.8 L148.103 1403.68 L143.218 1403.68 L143.218 1397.8 Z" fill="#000000" fill-rule="evenodd" fill-opacity="1" /><path clip-path="url(#clip210)" d="M 0 0 M163.172 1372.19 Q159.561 1372.19 157.732 1375.76 Q155.927 1379.3 155.927 1386.43 Q155.927 1393.54 157.732 1397.1 Q159.561 1400.64 163.172 1400.64 Q166.806 1400.64 168.612 1397.1 Q170.44 1393.54 170.44 1386.43 Q170.44 1379.3 168.612 1375.76 Q166.806 1372.19 163.172 1372.19 M163.172 1368.49 Q168.982 1368.49 172.038 1373.1 Q175.116 1377.68 175.116 1386.43 Q175.116 1395.16 172.038 1399.76 Q168.982 1404.35 163.172 1404.35 Q157.362 1404.35 154.283 1399.76 Q151.228 1395.16 151.228 1386.43 Q151.228 1377.68 154.283 1373.1 Q157.362 1368.49 163.172 1368.49 Z" fill="#000000" fill-rule="evenodd" fill-opacity="1" /><path clip-path="url(#clip210)" d="M 0 0 M127.431 1042.05 Q123.82 1042.05 121.992 1045.61 Q120.186 1049.15 120.186 1056.28 Q120.186 1063.39 121.992 1066.95 Q123.82 1070.5 127.431 1070.5 Q131.066 1070.5 132.871 1066.95 Q134.7 1063.39 134.7 1056.28 Q134.7 1049.15 132.871 1045.61 Q131.066 1042.05 127.431 1042.05 M127.431 1038.34 Q133.242 1038.34 136.297 1042.95 Q139.376 1047.53 139.376 1056.28 Q139.376 1065.01 136.297 1069.62 Q133.242 1074.2 127.431 1074.2 Q121.621 1074.2 118.543 1069.62 Q115.487 1065.01 115.487 1056.28 Q115.487 1047.53 118.543 1042.95 Q121.621 1038.34 127.431 1038.34 Z" fill="#000000" fill-rule="evenodd" fill-opacity="1" /><path clip-path="url(#clip210)" d="M 0 0 M144.445 1067.65 L149.329 1067.65 L149.329 1073.53 L144.445 1073.53 L144.445 1067.65 Z" fill="#000000" fill-rule="evenodd" fill-opacity="1" /><path clip-path="url(#clip210)" d="M 0 0 M155.209 1069.59 L162.848 1069.59 L162.848 1043.23 L154.538 1044.89 L154.538 1040.63 L162.802 1038.97 L167.477 1038.97 L167.477 1069.59 L175.116 1069.59 L175.116 1073.53 L155.209 1073.53 L155.209 1069.59 Z" fill="#000000" fill-rule="evenodd" fill-opacity="1" /><path clip-path="url(#clip210)" d="M 0 0 M127.802 711.898 Q124.191 711.898 122.362 715.463 Q120.556 719.005 120.556 726.134 Q120.556 733.241 122.362 736.805 Q124.191 740.347 127.802 740.347 Q131.436 740.347 133.242 736.805 Q135.07 733.241 135.07 726.134 Q135.07 719.005 133.242 715.463 Q131.436 711.898 127.802 711.898 M127.802 708.194 Q133.612 708.194 136.667 712.801 Q139.746 717.384 139.746 726.134 Q139.746 734.861 136.667 739.467 Q133.612 744.051 127.802 744.051 Q121.992 744.051 118.913 739.467 Q115.857 734.861 115.857 726.134 Q115.857 717.384 118.913 712.801 Q121.992 708.194 127.802 708.194 Z" fill="#000000" fill-rule="evenodd" fill-opacity="1" /><path clip-path="url(#clip210)" d="M 0 0 M144.816 737.5 L149.7 737.5 L149.7 743.379 L144.816 743.379 L144.816 737.5 Z" fill="#000000" fill-rule="evenodd" fill-opacity="1" /><path clip-path="url(#clip210)" d="M 0 0 M158.797 739.444 L175.116 739.444 L175.116 743.379 L153.172 743.379 L153.172 739.444 Q155.834 736.69 160.417 732.06 Q165.024 727.407 166.204 726.065 Q168.45 723.542 169.329 721.805 Q170.232 720.046 170.232 718.356 Q170.232 715.602 168.288 713.866 Q166.366 712.13 163.265 712.13 Q161.065 712.13 158.612 712.893 Q156.181 713.657 153.403 715.208 L153.403 710.486 Q156.228 709.352 158.681 708.773 Q161.135 708.194 163.172 708.194 Q168.542 708.194 171.737 710.88 Q174.931 713.565 174.931 718.055 Q174.931 720.185 174.121 722.106 Q173.334 724.005 171.227 726.597 Q170.649 727.268 167.547 730.486 Q164.445 733.68 158.797 739.444 Z" fill="#000000" fill-rule="evenodd" fill-opacity="1" /><path clip-path="url(#clip210)" d="M 0 0 M126.853 381.75 Q123.242 381.75 121.413 385.315 Q119.607 388.856 119.607 395.986 Q119.607 403.092 121.413 406.657 Q123.242 410.199 126.853 410.199 Q130.487 410.199 132.292 406.657 Q134.121 403.092 134.121 395.986 Q134.121 388.856 132.292 385.315 Q130.487 381.75 126.853 381.75 M126.853 378.046 Q132.663 378.046 135.718 382.653 Q138.797 387.236 138.797 395.986 Q138.797 404.713 135.718 409.319 Q132.663 413.903 126.853 413.903 Q121.043 413.903 117.964 409.319 Q114.908 404.713 114.908 395.986 Q114.908 387.236 117.964 382.653 Q121.043 378.046 126.853 378.046 Z" fill="#000000" fill-rule="evenodd" fill-opacity="1" /><path clip-path="url(#clip210)" d="M 0 0 M143.866 407.352 L148.751 407.352 L148.751 413.231 L143.866 413.231 L143.866 407.352 Z" fill="#000000" fill-rule="evenodd" fill-opacity="1" /><path clip-path="url(#clip210)" d="M 0 0 M167.987 394.597 Q171.343 395.315 173.218 397.583 Q175.116 399.852 175.116 403.185 Q175.116 408.301 171.598 411.102 Q168.079 413.903 161.598 413.903 Q159.422 413.903 157.107 413.463 Q154.815 413.046 152.362 412.19 L152.362 407.676 Q154.306 408.81 156.621 409.389 Q158.936 409.967 161.459 409.967 Q165.857 409.967 168.149 408.231 Q170.464 406.495 170.464 403.185 Q170.464 400.13 168.311 398.417 Q166.181 396.68 162.362 396.68 L158.334 396.68 L158.334 392.838 L162.547 392.838 Q165.996 392.838 167.825 391.472 Q169.653 390.083 169.653 387.491 Q169.653 384.829 167.755 383.417 Q165.88 381.981 162.362 381.981 Q160.44 381.981 158.241 382.398 Q156.042 382.815 153.403 383.694 L153.403 379.528 Q156.065 378.787 158.38 378.417 Q160.718 378.046 162.778 378.046 Q168.102 378.046 171.204 380.477 Q174.306 382.884 174.306 387.005 Q174.306 389.875 172.663 391.866 Q171.019 393.833 167.987 394.597 Z" fill="#000000" fill-rule="evenodd" fill-opacity="1" /><path clip-path="url(#clip210)" d="M 0 0 M45.7677 915.647 L63.6235 915.647 L63.6235 907.563 Q63.6235 903.075 61.3 900.624 Q58.9765 898.173 54.6797 898.173 Q50.4147 898.173 48.0912 900.624 Q45.7677 903.075 45.7677 907.563 L45.7677 915.647 M40.4842 922.077 L40.4842 907.563 Q40.4842 899.574 44.1126 895.5 Q47.7092 891.394 54.6797 891.394 Q61.7138 891.394 65.3104 895.5 Q68.907 899.574 68.907 907.563 L68.907 915.647 L88.0042 915.647 L88.0042 922.077 L40.4842 922.077 Z" fill="#000000" fill-rule="evenodd" fill-opacity="1" /><path clip-path="url(#clip210)" d="M 0 0 M57.8307 865.74 Q57.2578 866.727 57.0032 867.904 Q56.7167 869.05 56.7167 870.451 Q56.7167 875.416 59.9632 878.09 Q63.1779 880.731 69.2253 880.731 L88.0042 880.731 L88.0042 886.62 L52.3562 886.62 L52.3562 880.731 L57.8944 880.731 Q54.6479 878.885 53.0883 875.925 Q51.4968 872.965 51.4968 868.732 Q51.4968 868.127 51.5923 867.395 Q51.656 866.663 51.8151 865.772 L57.8307 865.74 Z" fill="#000000" fill-rule="evenodd" fill-opacity="1" /><path clip-path="url(#clip210)" d="M 0 0 M56.4621 847.216 Q56.4621 851.927 60.1542 854.664 Q63.8145 857.401 70.212 857.401 Q76.6095 857.401 80.3017 854.696 Q83.9619 851.958 83.9619 847.216 Q83.9619 842.537 80.2698 839.8 Q76.5777 837.063 70.212 837.063 Q63.8781 837.063 60.186 839.8 Q56.4621 842.537 56.4621 847.216 M51.4968 847.216 Q51.4968 839.577 56.4621 835.217 Q61.4273 830.856 70.212 830.856 Q78.9649 830.856 83.9619 835.217 Q88.9272 839.577 88.9272 847.216 Q88.9272 854.887 83.9619 859.247 Q78.9649 863.576 70.212 863.576 Q61.4273 863.576 56.4621 859.247 Q51.4968 854.887 51.4968 847.216 Z" fill="#000000" fill-rule="evenodd" fill-opacity="1" /><path clip-path="url(#clip210)" d="M 0 0 M70.212 799.123 Q63.7508 799.123 60.0905 801.797 Q56.3984 804.438 56.3984 809.085 Q56.3984 813.732 60.0905 816.406 Q63.7508 819.048 70.212 819.048 Q76.6732 819.048 80.3653 816.406 Q84.0256 813.732 84.0256 809.085 Q84.0256 804.438 80.3653 801.797 Q76.6732 799.123 70.212 799.123 M57.7671 819.048 Q54.5842 817.202 53.0564 814.401 Q51.4968 811.568 51.4968 807.653 Q51.4968 801.16 56.6531 797.118 Q61.8093 793.044 70.212 793.044 Q78.6147 793.044 83.771 797.118 Q88.9272 801.16 88.9272 807.653 Q88.9272 811.568 87.3994 814.401 Q85.8398 817.202 82.657 819.048 L88.0042 819.048 L88.0042 824.936 L38.479 824.936 L38.479 819.048 L57.7671 819.048 Z" fill="#000000" fill-rule="evenodd" fill-opacity="1" /><path clip-path="url(#clip210)" d="M 0 0 M70.0847 770.7 Q70.0847 777.798 71.7079 780.535 Q73.3312 783.272 77.2461 783.272 Q80.3653 783.272 82.2114 781.235 Q84.0256 779.167 84.0256 775.634 Q84.0256 770.764 80.5881 767.836 Q77.1188 764.876 71.3897 764.876 L70.0847 764.876 L70.0847 770.7 M67.6657 759.019 L88.0042 759.019 L88.0042 764.876 L82.5933 764.876 Q85.8398 766.881 87.3994 769.873 Q88.9272 772.864 88.9272 777.193 Q88.9272 782.668 85.8716 785.914 Q82.7843 789.129 77.6281 789.129 Q71.6125 789.129 68.5569 785.118 Q65.5014 781.076 65.5014 773.087 L65.5014 764.876 L64.9285 764.876 Q60.8862 764.876 58.6901 767.549 Q56.4621 770.191 56.4621 774.997 Q56.4621 778.053 57.1941 780.949 Q57.9262 783.845 59.3903 786.519 L53.9795 786.519 Q52.7381 783.304 52.1334 780.281 Q51.4968 777.257 51.4968 774.392 Q51.4968 766.658 55.5072 762.838 Q59.5176 759.019 67.6657 759.019 Z" fill="#000000" fill-rule="evenodd" fill-opacity="1" /><path clip-path="url(#clip210)" d="M 0 0 M70.212 727.286 Q63.7508 727.286 60.0905 729.96 Q56.3984 732.601 56.3984 737.248 Q56.3984 741.895 60.0905 744.569 Q63.7508 747.211 70.212 747.211 Q76.6732 747.211 80.3653 744.569 Q84.0256 741.895 84.0256 737.248 Q84.0256 732.601 80.3653 729.96 Q76.6732 727.286 70.212 727.286 M57.7671 747.211 Q54.5842 745.365 53.0564 742.564 Q51.4968 739.731 51.4968 735.816 Q51.4968 729.323 56.6531 725.281 Q61.8093 721.207 70.212 721.207 Q78.6147 721.207 83.771 725.281 Q88.9272 729.323 88.9272 735.816 Q88.9272 739.731 87.3994 742.564 Q85.8398 745.365 82.657 747.211 L88.0042 747.211 L88.0042 753.099 L38.479 753.099 L38.479 747.211 L57.7671 747.211 Z" fill="#000000" fill-rule="evenodd" fill-opacity="1" /><path clip-path="url(#clip210)" d="M 0 0 M52.3562 715.064 L52.3562 709.207 L88.0042 709.207 L88.0042 715.064 L52.3562 715.064 M38.479 715.064 L38.479 709.207 L45.895 709.207 L45.895 715.064 L38.479 715.064 Z" fill="#000000" fill-rule="evenodd" fill-opacity="1" /><path clip-path="url(#clip210)" d="M 0 0 M38.479 703.064 L38.479 697.208 L88.0042 697.208 L88.0042 703.064 L38.479 703.064 Z" fill="#000000" fill-rule="evenodd" fill-opacity="1" /><path clip-path="url(#clip210)" d="M 0 0 M52.3562 691.065 L52.3562 685.209 L88.0042 685.209 L88.0042 691.065 L52.3562 691.065 M38.479 691.065 L38.479 685.209 L45.895 685.209 L45.895 691.065 L38.479 691.065 Z" fill="#000000" fill-rule="evenodd" fill-opacity="1" /><path clip-path="url(#clip210)" d="M 0 0 M42.2347 673.273 L52.3562 673.273 L52.3562 661.21 L56.9077 661.21 L56.9077 673.273 L76.2594 673.273 Q80.6199 673.273 81.8613 672.095 Q83.1026 670.886 83.1026 667.226 L83.1026 661.21 L88.0042 661.21 L88.0042 667.226 Q88.0042 674.005 85.4897 676.583 Q82.9434 679.161 76.2594 679.161 L56.9077 679.161 L56.9077 683.458 L52.3562 683.458 L52.3562 679.161 L42.2347 679.161 L42.2347 673.273 Z" fill="#000000" fill-rule="evenodd" fill-opacity="1" /><path clip-path="url(#clip210)" d="M 0 0 M91.3143 640.235 Q97.68 642.718 99.6216 645.073 Q101.563 647.428 101.563 651.375 L101.563 656.054 L96.6615 656.054 L96.6615 652.616 Q96.6615 650.197 95.5157 648.861 Q94.3699 647.524 90.1048 645.9 L87.4312 644.85 L52.3562 659.268 L52.3562 653.062 L80.238 641.922 L52.3562 630.782 L52.3562 624.575 L91.3143 640.235 Z" fill="#000000" fill-rule="evenodd" fill-opacity="1" /><path clip-path="url(#clip210)" d="M 0 0 M497.823 16.7545 L497.823 25.383 Q493.691 21.5346 488.992 19.6307 Q484.333 17.7268 479.067 17.7268 Q468.697 17.7268 463.188 24.0867 Q457.678 30.4061 457.678 42.3968 Q457.678 54.3469 463.188 60.7069 Q468.697 67.0263 479.067 67.0263 Q484.333 67.0263 488.992 65.1223 Q493.691 63.2184 497.823 59.3701 L497.823 67.9175 Q493.529 70.8341 488.708 72.2924 Q483.928 73.7508 478.581 73.7508 Q464.848 73.7508 456.949 65.3654 Q449.05 56.9395 449.05 42.3968 Q449.05 27.8135 456.949 19.4281 Q464.848 11.0023 478.581 11.0023 Q484.009 11.0023 488.789 12.4606 Q493.61 13.8784 497.823 16.7545 Z" fill="#000000" fill-rule="evenodd" fill-opacity="1" /><path clip-path="url(#clip210)" d="M 0 0 M523.222 32.4315 Q517.227 32.4315 513.743 37.1306 Q510.259 41.7891 510.259 49.9314 Q510.259 58.0738 513.702 62.7728 Q517.186 67.4314 523.222 67.4314 Q529.177 67.4314 532.661 62.7323 Q536.144 58.0333 536.144 49.9314 Q536.144 41.8701 532.661 37.1711 Q529.177 32.4315 523.222 32.4315 M523.222 26.1121 Q532.944 26.1121 538.494 32.4315 Q544.044 38.7509 544.044 49.9314 Q544.044 61.0714 538.494 67.4314 Q532.944 73.7508 523.222 73.7508 Q513.459 73.7508 507.91 67.4314 Q502.4 61.0714 502.4 49.9314 Q502.4 38.7509 507.91 32.4315 Q513.459 26.1121 523.222 26.1121 Z" fill="#000000" fill-rule="evenodd" fill-opacity="1" /><path clip-path="url(#clip210)" d="M 0 0 M589.576 45.1919 L589.576 72.576 L582.122 72.576 L582.122 45.4349 Q582.122 38.994 579.611 35.7938 Q577.099 32.5936 572.076 32.5936 Q566.04 32.5936 562.556 36.4419 Q559.073 40.2903 559.073 46.9338 L559.073 72.576 L551.578 72.576 L551.578 27.2059 L559.073 27.2059 L559.073 34.2544 Q561.746 30.163 565.351 28.1376 Q568.997 26.1121 573.737 26.1121 Q581.555 26.1121 585.565 30.9732 Q589.576 35.7938 589.576 45.1919 Z" fill="#000000" fill-rule="evenodd" fill-opacity="1" /><path clip-path="url(#clip210)" d="M 0 0 M604.767 14.324 L604.767 27.2059 L620.12 27.2059 L620.12 32.9987 L604.767 32.9987 L604.767 57.6282 Q604.767 63.1779 606.266 64.7578 Q607.805 66.3376 612.463 66.3376 L620.12 66.3376 L620.12 72.576 L612.463 72.576 Q603.835 72.576 600.554 69.3758 Q597.273 66.1351 597.273 57.6282 L597.273 32.9987 L591.804 32.9987 L591.804 27.2059 L597.273 27.2059 L597.273 14.324 L604.767 14.324 Z" fill="#000000" fill-rule="evenodd" fill-opacity="1" /><path clip-path="url(#clip210)" d="M 0 0 M654.228 34.1734 Q652.972 33.4443 651.474 33.1202 Q650.015 32.7556 648.233 32.7556 Q641.913 32.7556 638.511 36.8875 Q635.148 40.9789 635.148 48.6757 L635.148 72.576 L627.654 72.576 L627.654 27.2059 L635.148 27.2059 L635.148 34.2544 Q637.498 30.1225 641.265 28.1376 Q645.033 26.1121 650.42 26.1121 Q651.19 26.1121 652.122 26.2337 Q653.053 26.3147 654.188 26.5172 L654.228 34.1734 Z" fill="#000000" fill-rule="evenodd" fill-opacity="1" /><path clip-path="url(#clip210)" d="M 0 0 M662.046 27.2059 L669.5 27.2059 L669.5 72.576 L662.046 72.576 L662.046 27.2059 M662.046 9.54393 L669.5 9.54393 L669.5 18.9825 L662.046 18.9825 L662.046 9.54393 Z" fill="#000000" fill-rule="evenodd" fill-opacity="1" /><path clip-path="url(#clip210)" d="M 0 0 M709.888 49.9314 Q709.888 41.7081 706.485 37.0496 Q703.123 32.3505 697.208 32.3505 Q691.294 32.3505 687.891 37.0496 Q684.529 41.7081 684.529 49.9314 Q684.529 58.1548 687.891 62.8538 Q691.294 67.5124 697.208 67.5124 Q703.123 67.5124 706.485 62.8538 Q709.888 58.1548 709.888 49.9314 M684.529 34.0924 Q686.879 30.0415 690.443 28.0971 Q694.049 26.1121 699.031 26.1121 Q707.295 26.1121 712.44 32.6746 Q717.625 39.2371 717.625 49.9314 Q717.625 60.6258 712.44 67.1883 Q707.295 73.7508 699.031 73.7508 Q694.049 73.7508 690.443 71.8063 Q686.879 69.8214 684.529 65.7705 L684.529 72.576 L677.035 72.576 L677.035 9.54393 L684.529 9.54393 L684.529 34.0924 Z" fill="#000000" fill-rule="evenodd" fill-opacity="1" /><path clip-path="url(#clip210)" d="M 0 0 M724.673 54.671 L724.673 27.2059 L732.127 27.2059 L732.127 54.3874 Q732.127 60.8284 734.639 64.0691 Q737.15 67.2693 742.173 67.2693 Q748.209 67.2693 751.693 63.421 Q755.217 59.5726 755.217 52.9291 L755.217 27.2059 L762.671 27.2059 L762.671 72.576 L755.217 72.576 L755.217 65.6084 Q752.503 69.7404 748.898 71.7658 Q745.333 73.7508 740.594 73.7508 Q732.775 73.7508 728.724 68.8897 Q724.673 64.0286 724.673 54.671 M743.429 26.1121 L743.429 26.1121 Z" fill="#000000" fill-rule="evenodd" fill-opacity="1" /><path clip-path="url(#clip210)" d="M 0 0 M777.862 14.324 L777.862 27.2059 L793.215 27.2059 L793.215 32.9987 L777.862 32.9987 L777.862 57.6282 Q777.862 63.1779 779.361 64.7578 Q780.9 66.3376 785.559 66.3376 L793.215 66.3376 L793.215 72.576 L785.559 72.576 Q776.93 72.576 773.649 69.3758 Q770.368 66.1351 770.368 57.6282 L770.368 32.9987 L764.899 32.9987 L764.899 27.2059 L770.368 27.2059 L770.368 14.324 L777.862 14.324 Z" fill="#000000" fill-rule="evenodd" fill-opacity="1" /><path clip-path="url(#clip210)" d="M 0 0 M801.033 27.2059 L808.487 27.2059 L808.487 72.576 L801.033 72.576 L801.033 27.2059 M801.033 9.54393 L808.487 9.54393 L808.487 18.9825 L801.033 18.9825 L801.033 9.54393 Z" fill="#000000" fill-rule="evenodd" fill-opacity="1" /><path clip-path="url(#clip210)" d="M 0 0 M833.886 32.4315 Q827.891 32.4315 824.407 37.1306 Q820.923 41.7891 820.923 49.9314 Q820.923 58.0738 824.366 62.7728 Q827.85 67.4314 833.886 67.4314 Q839.841 67.4314 843.324 62.7323 Q846.808 58.0333 846.808 49.9314 Q846.808 41.8701 843.324 37.1711 Q839.841 32.4315 833.886 32.4315 M833.886 26.1121 Q843.608 26.1121 849.158 32.4315 Q854.707 38.7509 854.707 49.9314 Q854.707 61.0714 849.158 67.4314 Q843.608 73.7508 833.886 73.7508 Q824.123 73.7508 818.573 67.4314 Q813.064 61.0714 813.064 49.9314 Q813.064 38.7509 818.573 32.4315 Q824.123 26.1121 833.886 26.1121 Z" fill="#000000" fill-rule="evenodd" fill-opacity="1" /><path clip-path="url(#clip210)" d="M 0 0 M900.24 45.1919 L900.24 72.576 L892.786 72.576 L892.786 45.4349 Q892.786 38.994 890.274 35.7938 Q887.763 32.5936 882.74 32.5936 Q876.704 32.5936 873.22 36.4419 Q869.736 40.2903 869.736 46.9338 L869.736 72.576 L862.242 72.576 L862.242 27.2059 L869.736 27.2059 L869.736 34.2544 Q872.41 30.163 876.015 28.1376 Q879.661 26.1121 884.401 26.1121 Q892.219 26.1121 896.229 30.9732 Q900.24 35.7938 900.24 45.1919 Z" fill="#000000" fill-rule="evenodd" fill-opacity="1" /><path clip-path="url(#clip210)" d="M 0 0 M952.01 32.4315 Q946.015 32.4315 942.531 37.1306 Q939.047 41.7891 939.047 49.9314 Q939.047 58.0738 942.491 62.7728 Q945.974 67.4314 952.01 67.4314 Q957.965 67.4314 961.449 62.7323 Q964.933 58.0333 964.933 49.9314 Q964.933 41.8701 961.449 37.1711 Q957.965 32.4315 952.01 32.4315 M952.01 26.1121 Q961.732 26.1121 967.282 32.4315 Q972.832 38.7509 972.832 49.9314 Q972.832 61.0714 967.282 67.4314 Q961.732 73.7508 952.01 73.7508 Q942.248 73.7508 936.698 67.4314 Q931.189 61.0714 931.189 49.9314 Q931.189 38.7509 936.698 32.4315 Q942.248 26.1121 952.01 26.1121 Z" fill="#000000" fill-rule="evenodd" fill-opacity="1" /><path clip-path="url(#clip210)" d="M 0 0 M1003.62 9.54393 L1003.62 15.7418 L996.489 15.7418 Q992.479 15.7418 990.899 17.3622 Q989.36 18.9825 989.36 23.1955 L989.36 27.2059 L1001.63 27.2059 L1001.63 32.9987 L989.36 32.9987 L989.36 72.576 L981.865 72.576 L981.865 32.9987 L974.736 32.9987 L974.736 27.2059 L981.865 27.2059 L981.865 24.0462 Q981.865 16.471 985.39 13.0277 Q988.914 9.54393 996.57 9.54393 L1003.62 9.54393 Z" fill="#000000" fill-rule="evenodd" fill-opacity="1" /><path clip-path="url(#clip210)" d="M 0 0 M1066.73 28.5427 L1066.73 35.5912 Q1063.57 33.9709 1060.17 33.1607 Q1056.77 32.3505 1053.12 32.3505 Q1047.57 32.3505 1044.78 34.0519 Q1042.02 35.7533 1042.02 39.156 Q1042.02 41.7486 1044.01 43.2475 Q1045.99 44.7058 1051.99 46.0426 L1054.54 46.6097 Q1062.48 48.3111 1065.8 51.4303 Q1069.16 54.509 1069.16 60.0587 Q1069.16 66.3781 1064.14 70.0644 Q1059.16 73.7508 1050.41 73.7508 Q1046.76 73.7508 1042.79 73.0216 Q1038.86 72.3329 1034.49 70.9151 L1034.49 63.2184 Q1038.62 65.3654 1042.63 66.4591 Q1046.64 67.5124 1050.57 67.5124 Q1055.83 67.5124 1058.67 65.73 Q1061.51 63.9071 1061.51 60.6258 Q1061.51 57.5877 1059.44 55.9673 Q1057.41 54.3469 1050.49 52.8481 L1047.9 52.2405 Q1040.97 50.7821 1037.89 47.7845 Q1034.81 44.7463 1034.81 39.4801 Q1034.81 33.0797 1039.35 29.5959 Q1043.88 26.1121 1052.23 26.1121 Q1056.36 26.1121 1060.01 26.7198 Q1063.65 27.3274 1066.73 28.5427 Z" fill="#000000" fill-rule="evenodd" fill-opacity="1" /><path clip-path="url(#clip210)" d="M 0 0 M1076.98 27.2059 L1084.43 27.2059 L1084.43 72.576 L1076.98 72.576 L1076.98 27.2059 M1076.98 9.54393 L1084.43 9.54393 L1084.43 18.9825 L1076.98 18.9825 L1076.98 9.54393 Z" fill="#000000" fill-rule="evenodd" fill-opacity="1" /><path clip-path="url(#clip210)" d="M 0 0 M1099.63 14.324 L1099.63 27.2059 L1114.98 27.2059 L1114.98 32.9987 L1099.63 32.9987 L1099.63 57.6282 Q1099.63 63.1779 1101.12 64.7578 Q1102.66 66.3376 1107.32 66.3376 L1114.98 66.3376 L1114.98 72.576 L1107.32 72.576 Q1098.69 72.576 1095.41 69.3758 Q1092.13 66.1351 1092.13 57.6282 L1092.13 32.9987 L1086.66 32.9987 L1086.66 27.2059 L1092.13 27.2059 L1092.13 14.324 L1099.63 14.324 Z" fill="#000000" fill-rule="evenodd" fill-opacity="1" /><path clip-path="url(#clip210)" d="M 0 0 M1161.6 48.0275 L1161.6 51.6733 L1127.33 51.6733 Q1127.82 59.3701 1131.95 63.421 Q1136.12 67.4314 1143.54 67.4314 Q1147.83 67.4314 1151.84 66.3781 Q1155.89 65.3249 1159.86 63.2184 L1159.86 70.267 Q1155.85 71.9684 1151.64 72.8596 Q1147.43 73.7508 1143.09 73.7508 Q1132.23 73.7508 1125.88 67.4314 Q1119.56 61.1119 1119.56 50.3365 Q1119.56 39.1965 1125.55 32.6746 Q1131.59 26.1121 1141.8 26.1121 Q1150.95 26.1121 1156.26 32.0264 Q1161.6 37.9003 1161.6 48.0275 M1154.15 45.84 Q1154.07 39.7232 1150.71 36.0774 Q1147.39 32.4315 1141.88 32.4315 Q1135.64 32.4315 1131.87 35.9558 Q1128.14 39.4801 1127.58 45.8805 L1154.15 45.84 Z" fill="#000000" fill-rule="evenodd" fill-opacity="1" /><path clip-path="url(#clip210)" d="M 0 0 M1213.37 32.4315 Q1207.38 32.4315 1203.9 37.1306 Q1200.41 41.7891 1200.41 49.9314 Q1200.41 58.0738 1203.85 62.7728 Q1207.34 67.4314 1213.37 67.4314 Q1219.33 67.4314 1222.81 62.7323 Q1226.3 58.0333 1226.3 49.9314 Q1226.3 41.8701 1222.81 37.1711 Q1219.33 32.4315 1213.37 32.4315 M1213.37 26.1121 Q1223.1 26.1121 1228.65 32.4315 Q1234.2 38.7509 1234.2 49.9314 Q1234.2 61.0714 1228.65 67.4314 Q1223.1 73.7508 1213.37 73.7508 Q1203.61 73.7508 1198.06 67.4314 Q1192.55 61.0714 1192.55 49.9314 Q1192.55 38.7509 1198.06 32.4315 Q1203.61 26.1121 1213.37 26.1121 Z" fill="#000000" fill-rule="evenodd" fill-opacity="1" /><path clip-path="url(#clip210)" d="M 0 0 M1268.3 34.1734 Q1267.05 33.4443 1265.55 33.1202 Q1264.09 32.7556 1262.31 32.7556 Q1255.99 32.7556 1252.59 36.8875 Q1249.23 40.9789 1249.23 48.6757 L1249.23 72.576 L1241.73 72.576 L1241.73 27.2059 L1249.23 27.2059 L1249.23 34.2544 Q1251.57 30.1225 1255.34 28.1376 Q1259.11 26.1121 1264.5 26.1121 Q1265.27 26.1121 1266.2 26.2337 Q1267.13 26.3147 1268.26 26.5172 L1268.3 34.1734 Z" fill="#000000" fill-rule="evenodd" fill-opacity="1" /><path clip-path="url(#clip210)" d="M 0 0 M1308.69 49.9314 Q1308.69 41.7081 1305.29 37.0496 Q1301.93 32.3505 1296.01 32.3505 Q1290.1 32.3505 1286.7 37.0496 Q1283.33 41.7081 1283.33 49.9314 Q1283.33 58.1548 1286.7 62.8538 Q1290.1 67.5124 1296.01 67.5124 Q1301.93 67.5124 1305.29 62.8538 Q1308.69 58.1548 1308.69 49.9314 M1283.33 34.0924 Q1285.68 30.0415 1289.25 28.0971 Q1292.85 26.1121 1297.84 26.1121 Q1306.1 26.1121 1311.24 32.6746 Q1316.43 39.2371 1316.43 49.9314 Q1316.43 60.6258 1311.24 67.1883 Q1306.1 73.7508 1297.84 73.7508 Q1292.85 73.7508 1289.25 71.8063 Q1285.68 69.8214 1283.33 65.7705 L1283.33 72.576 L1275.84 72.576 L1275.84 9.54393 L1283.33 9.54393 L1283.33 34.0924 Z" fill="#000000" fill-rule="evenodd" fill-opacity="1" /><path clip-path="url(#clip210)" d="M 0 0 M1324.25 27.2059 L1331.7 27.2059 L1331.7 72.576 L1324.25 72.576 L1324.25 27.2059 M1324.25 9.54393 L1331.7 9.54393 L1331.7 18.9825 L1324.25 18.9825 L1324.25 9.54393 Z" fill="#000000" fill-rule="evenodd" fill-opacity="1" /><path clip-path="url(#clip210)" d="M 0 0 M1346.89 14.324 L1346.89 27.2059 L1362.25 27.2059 L1362.25 32.9987 L1346.89 32.9987 L1346.89 57.6282 Q1346.89 63.1779 1348.39 64.7578 Q1349.93 66.3376 1354.59 66.3376 L1362.25 66.3376 L1362.25 72.576 L1354.59 72.576 Q1345.96 72.576 1342.68 69.3758 Q1339.4 66.1351 1339.4 57.6282 L1339.4 32.9987 L1333.93 32.9987 L1333.93 27.2059 L1339.4 27.2059 L1339.4 14.324 L1346.89 14.324 Z" fill="#000000" fill-rule="evenodd" fill-opacity="1" /><path clip-path="url(#clip210)" d="M 0 0 M1390.68 49.7694 Q1381.65 49.7694 1378.17 51.8354 Q1374.68 53.9013 1374.68 58.8839 Q1374.68 62.8538 1377.27 65.2034 Q1379.91 67.5124 1384.4 67.5124 Q1390.6 67.5124 1394.33 63.1374 Q1398.1 58.7219 1398.1 51.4303 L1398.1 49.7694 L1390.68 49.7694 M1405.55 46.6907 L1405.55 72.576 L1398.1 72.576 L1398.1 65.6895 Q1395.54 69.8214 1391.74 71.8063 Q1387.93 73.7508 1382.42 73.7508 Q1375.45 73.7508 1371.32 69.8619 Q1367.23 65.9325 1367.23 59.3701 Q1367.23 51.7138 1372.33 47.825 Q1377.48 43.9361 1387.64 43.9361 L1398.1 43.9361 L1398.1 43.2069 Q1398.1 38.0623 1394.69 35.2672 Q1391.33 32.4315 1385.21 32.4315 Q1381.33 32.4315 1377.64 33.3632 Q1373.95 34.295 1370.55 36.1584 L1370.55 29.2718 Q1374.64 27.692 1378.49 26.9223 Q1382.34 26.1121 1385.98 26.1121 Q1395.83 26.1121 1400.69 31.2163 Q1405.55 36.3204 1405.55 46.6907 Z" fill="#000000" fill-rule="evenodd" fill-opacity="1" /><path clip-path="url(#clip210)" d="M 0 0 M1413.37 9.54393 L1420.82 9.54393 L1420.82 72.576 L1413.37 72.576 L1413.37 9.54393 Z" fill="#000000" fill-rule="evenodd" fill-opacity="1" /><path clip-path="url(#clip210)" d="M 0 0 M1457.56 28.5427 L1457.56 35.5912 Q1454.4 33.9709 1451 33.1607 Q1447.6 32.3505 1443.95 32.3505 Q1438.4 32.3505 1435.61 34.0519 Q1432.85 35.7533 1432.85 39.156 Q1432.85 41.7486 1434.84 43.2475 Q1436.82 44.7058 1442.82 46.0426 L1445.37 46.6097 Q1453.31 48.3111 1456.63 51.4303 Q1459.99 54.509 1459.99 60.0587 Q1459.99 66.3781 1454.97 70.0644 Q1449.99 73.7508 1441.24 73.7508 Q1437.59 73.7508 1433.62 73.0216 Q1429.69 72.3329 1425.32 70.9151 L1425.32 63.2184 Q1429.45 65.3654 1433.46 66.4591 Q1437.47 67.5124 1441.4 67.5124 Q1446.67 67.5124 1449.5 65.73 Q1452.34 63.9071 1452.34 60.6258 Q1452.34 57.5877 1450.27 55.9673 Q1448.25 54.3469 1441.32 52.8481 L1438.73 52.2405 Q1431.8 50.7821 1428.72 47.7845 Q1425.64 44.7463 1425.64 39.4801 Q1425.64 33.0797 1430.18 29.5959 Q1434.72 26.1121 1443.06 26.1121 Q1447.19 26.1121 1450.84 26.7198 Q1454.48 27.3274 1457.56 28.5427 Z" fill="#000000" fill-rule="evenodd" fill-opacity="1" /><path clip-path="url(#clip210)" d="M 0 0 M1501.56 14.324 L1501.56 27.2059 L1516.91 27.2059 L1516.91 32.9987 L1501.56 32.9987 L1501.56 57.6282 Q1501.56 63.1779 1503.05 64.7578 Q1504.59 66.3376 1509.25 66.3376 L1516.91 66.3376 L1516.91 72.576 L1509.25 72.576 Q1500.62 72.576 1497.34 69.3758 Q1494.06 66.1351 1494.06 57.6282 L1494.06 32.9987 L1488.59 32.9987 L1488.59 27.2059 L1494.06 27.2059 L1494.06 14.324 L1501.56 14.324 Z" fill="#000000" fill-rule="evenodd" fill-opacity="1" /><path clip-path="url(#clip210)" d="M 0 0 M1542.31 32.4315 Q1536.31 32.4315 1532.83 37.1306 Q1529.35 41.7891 1529.35 49.9314 Q1529.35 58.0738 1532.79 62.7728 Q1536.27 67.4314 1542.31 67.4314 Q1548.26 67.4314 1551.75 62.7323 Q1555.23 58.0333 1555.23 49.9314 Q1555.23 41.8701 1551.75 37.1711 Q1548.26 32.4315 1542.31 32.4315 M1542.31 26.1121 Q1552.03 26.1121 1557.58 32.4315 Q1563.13 38.7509 1563.13 49.9314 Q1563.13 61.0714 1557.58 67.4314 Q1552.03 73.7508 1542.31 73.7508 Q1532.55 73.7508 1527 67.4314 Q1521.49 61.0714 1521.49 49.9314 Q1521.49 38.7509 1527 32.4315 Q1532.55 26.1121 1542.31 26.1121 Z" fill="#000000" fill-rule="evenodd" fill-opacity="1" /><path clip-path="url(#clip210)" d="M 0 0 M1597.32 27.2059 L1604.77 27.2059 L1604.77 72.576 L1597.32 72.576 L1597.32 27.2059 M1597.32 9.54393 L1604.77 9.54393 L1604.77 18.9825 L1597.32 18.9825 L1597.32 9.54393 Z" fill="#000000" fill-rule="evenodd" fill-opacity="1" /><path clip-path="url(#clip210)" d="M 0 0 M1647.92 35.9153 Q1650.71 30.8922 1654.6 28.5022 Q1658.49 26.1121 1663.75 26.1121 Q1670.84 26.1121 1674.69 31.0947 Q1678.54 36.0368 1678.54 45.1919 L1678.54 72.576 L1671.05 72.576 L1671.05 45.4349 Q1671.05 38.913 1668.74 35.7533 Q1666.43 32.5936 1661.69 32.5936 Q1655.9 32.5936 1652.53 36.4419 Q1649.17 40.2903 1649.17 46.9338 L1649.17 72.576 L1641.68 72.576 L1641.68 45.4349 Q1641.68 38.8725 1639.37 35.7533 Q1637.06 32.5936 1632.24 32.5936 Q1626.53 32.5936 1623.16 36.4824 Q1619.8 40.3308 1619.8 46.9338 L1619.8 72.576 L1612.31 72.576 L1612.31 27.2059 L1619.8 27.2059 L1619.8 34.2544 Q1622.35 30.082 1625.92 28.0971 Q1629.48 26.1121 1634.39 26.1121 Q1639.33 26.1121 1642.77 28.6237 Q1646.25 31.1352 1647.92 35.9153 Z" fill="#000000" fill-rule="evenodd" fill-opacity="1" /><path clip-path="url(#clip210)" d="M 0 0 M1693.57 65.7705 L1693.57 89.8329 L1686.07 89.8329 L1686.07 27.2059 L1693.57 27.2059 L1693.57 34.0924 Q1695.92 30.0415 1699.48 28.0971 Q1703.09 26.1121 1708.07 26.1121 Q1716.33 26.1121 1721.48 32.6746 Q1726.66 39.2371 1726.66 49.9314 Q1726.66 60.6258 1721.48 67.1883 Q1716.33 73.7508 1708.07 73.7508 Q1703.09 73.7508 1699.48 71.8063 Q1695.92 69.8214 1693.57 65.7705 M1718.93 49.9314 Q1718.93 41.7081 1715.52 37.0496 Q1712.16 32.3505 1706.25 32.3505 Q1700.33 32.3505 1696.93 37.0496 Q1693.57 41.7081 1693.57 49.9314 Q1693.57 58.1548 1696.93 62.8538 Q1700.33 67.5124 1706.25 67.5124 Q1712.16 67.5124 1715.52 62.8538 Q1718.93 58.1548 1718.93 49.9314 Z" fill="#000000" fill-rule="evenodd" fill-opacity="1" /><path clip-path="url(#clip210)" d="M 0 0 M1733.71 54.671 L1733.71 27.2059 L1741.17 27.2059 L1741.17 54.3874 Q1741.17 60.8284 1743.68 64.0691 Q1746.19 67.2693 1751.21 67.2693 Q1757.25 67.2693 1760.73 63.421 Q1764.26 59.5726 1764.26 52.9291 L1764.26 27.2059 L1771.71 27.2059 L1771.71 72.576 L1764.26 72.576 L1764.26 65.6084 Q1761.54 69.7404 1757.94 71.7658 Q1754.37 73.7508 1749.63 73.7508 Q1741.82 73.7508 1737.76 68.8897 Q1733.71 64.0286 1733.71 54.671 M1752.47 26.1121 L1752.47 26.1121 Z" fill="#000000" fill-rule="evenodd" fill-opacity="1" /><path clip-path="url(#clip210)" d="M 0 0 M1805.82 34.1734 Q1804.56 33.4443 1803.06 33.1202 Q1801.61 32.7556 1799.82 32.7556 Q1793.5 32.7556 1790.1 36.8875 Q1786.74 40.9789 1786.74 48.6757 L1786.74 72.576 L1779.25 72.576 L1779.25 27.2059 L1786.74 27.2059 L1786.74 34.2544 Q1789.09 30.1225 1792.86 28.1376 Q1796.62 26.1121 1802.01 26.1121 Q1802.78 26.1121 1803.71 26.2337 Q1804.64 26.3147 1805.78 26.5172 L1805.82 34.1734 Z" fill="#000000" fill-rule="evenodd" fill-opacity="1" /><path clip-path="url(#clip210)" d="M 0 0 M1813.64 27.2059 L1821.09 27.2059 L1821.09 72.576 L1813.64 72.576 L1813.64 27.2059 M1813.64 9.54393 L1821.09 9.54393 L1821.09 18.9825 L1813.64 18.9825 L1813.64 9.54393 Z" fill="#000000" fill-rule="evenodd" fill-opacity="1" /><path clip-path="url(#clip210)" d="M 0 0 M1836.28 14.324 L1836.28 27.2059 L1851.64 27.2059 L1851.64 32.9987 L1836.28 32.9987 L1836.28 57.6282 Q1836.28 63.1779 1837.78 64.7578 Q1839.32 66.3376 1843.98 66.3376 L1851.64 66.3376 L1851.64 72.576 L1843.98 72.576 Q1835.35 72.576 1832.07 69.3758 Q1828.79 66.1351 1828.79 57.6282 L1828.79 32.9987 L1823.32 32.9987 L1823.32 27.2059 L1828.79 27.2059 L1828.79 14.324 L1836.28 14.324 Z" fill="#000000" fill-rule="evenodd" fill-opacity="1" /><path clip-path="url(#clip210)" d="M 0 0 M1878.33 76.7889 Q1875.17 84.8907 1872.17 87.3618 Q1869.18 89.8329 1864.15 89.8329 L1858.2 89.8329 L1858.2 83.5945 L1862.57 83.5945 Q1865.65 83.5945 1867.35 82.1361 Q1869.05 80.6778 1871.12 75.2496 L1872.46 71.8468 L1854.11 27.2059 L1862.01 27.2059 L1876.18 62.6918 L1890.36 27.2059 L1898.26 27.2059 L1878.33 76.7889 Z" fill="#000000" fill-rule="evenodd" fill-opacity="1" /><path clip-path="url(#clip210)" d="M 0 0 M1961.37 28.5427 L1961.37 35.5912 Q1958.21 33.9709 1954.81 33.1607 Q1951.41 32.3505 1947.76 32.3505 Q1942.21 32.3505 1939.42 34.0519 Q1936.66 35.7533 1936.66 39.156 Q1936.66 41.7486 1938.65 43.2475 Q1940.63 44.7058 1946.63 46.0426 L1949.18 46.6097 Q1957.12 48.3111 1960.44 51.4303 Q1963.8 54.509 1963.8 60.0587 Q1963.8 66.3781 1958.78 70.0644 Q1953.8 73.7508 1945.05 73.7508 Q1941.4 73.7508 1937.43 73.0216 Q1933.5 72.3329 1929.13 70.9151 L1929.13 63.2184 Q1933.26 65.3654 1937.27 66.4591 Q1941.28 67.5124 1945.21 67.5124 Q1950.48 67.5124 1953.31 65.73 Q1956.15 63.9071 1956.15 60.6258 Q1956.15 57.5877 1954.08 55.9673 Q1952.06 54.3469 1945.13 52.8481 L1942.54 52.2405 Q1935.61 50.7821 1932.53 47.7845 Q1929.45 44.7463 1929.45 39.4801 Q1929.45 33.0797 1933.99 29.5959 Q1938.53 26.1121 1946.87 26.1121 Q1951 26.1121 1954.65 26.7198 Q1958.3 27.3274 1961.37 28.5427 Z" fill="#000000" fill-rule="evenodd" fill-opacity="1" /><path clip-path="url(#clip210)" d="M 0 0 M1979 14.324 L1979 27.2059 L1994.35 27.2059 L1994.35 32.9987 L1979 32.9987 L1979 57.6282 Q1979 63.1779 1980.49 64.7578 Q1982.03 66.3376 1986.69 66.3376 L1994.35 66.3376 L1994.35 72.576 L1986.69 72.576 Q1978.06 72.576 1974.78 69.3758 Q1971.5 66.1351 1971.5 57.6282 L1971.5 32.9987 L1966.03 32.9987 L1966.03 27.2059 L1971.5 27.2059 L1971.5 14.324 L1979 14.324 Z" fill="#000000" fill-rule="evenodd" fill-opacity="1" /><path clip-path="url(#clip210)" d="M 0 0 M2022.79 49.7694 Q2013.75 49.7694 2010.27 51.8354 Q2006.78 53.9013 2006.78 58.8839 Q2006.78 62.8538 2009.38 65.2034 Q2012.01 67.5124 2016.51 67.5124 Q2022.7 67.5124 2026.43 63.1374 Q2030.2 58.7219 2030.2 51.4303 L2030.2 49.7694 L2022.79 49.7694 M2037.65 46.6907 L2037.65 72.576 L2030.2 72.576 L2030.2 65.6895 Q2027.65 69.8214 2023.84 71.8063 Q2020.03 73.7508 2014.52 73.7508 Q2007.55 73.7508 2003.42 69.8619 Q1999.33 65.9325 1999.33 59.3701 Q1999.33 51.7138 2004.44 47.825 Q2009.58 43.9361 2019.75 43.9361 L2030.2 43.9361 L2030.2 43.2069 Q2030.2 38.0623 2026.8 35.2672 Q2023.43 32.4315 2017.32 32.4315 Q2013.43 32.4315 2009.74 33.3632 Q2006.06 34.295 2002.65 36.1584 L2002.65 29.2718 Q2006.74 27.692 2010.59 26.9223 Q2014.44 26.1121 2018.09 26.1121 Q2027.93 26.1121 2032.79 31.2163 Q2037.65 36.3204 2037.65 46.6907 Z" fill="#000000" fill-rule="evenodd" fill-opacity="1" /><path clip-path="url(#clip210)" d="M 0 0 M2052.84 14.324 L2052.84 27.2059 L2068.2 27.2059 L2068.2 32.9987 L2052.84 32.9987 L2052.84 57.6282 Q2052.84 63.1779 2054.34 64.7578 Q2055.88 66.3376 2060.54 66.3376 L2068.2 66.3376 L2068.2 72.576 L2060.54 72.576 Q2051.91 72.576 2048.63 69.3758 Q2045.35 66.1351 2045.35 57.6282 L2045.35 32.9987 L2039.88 32.9987 L2039.88 27.2059 L2045.35 27.2059 L2045.35 14.324 L2052.84 14.324 Z" fill="#000000" fill-rule="evenodd" fill-opacity="1" /><path clip-path="url(#clip210)" d="M 0 0 M2114.82 48.0275 L2114.82 51.6733 L2080.55 51.6733 Q2081.04 59.3701 2085.17 63.421 Q2089.34 67.4314 2096.76 67.4314 Q2101.05 67.4314 2105.06 66.3781 Q2109.11 65.3249 2113.08 63.2184 L2113.08 70.267 Q2109.07 71.9684 2104.86 72.8596 Q2100.64 73.7508 2096.31 73.7508 Q2085.45 73.7508 2079.09 67.4314 Q2072.77 61.1119 2072.77 50.3365 Q2072.77 39.1965 2078.77 32.6746 Q2084.81 26.1121 2095.01 26.1121 Q2104.17 26.1121 2109.48 32.0264 Q2114.82 37.9003 2114.82 48.0275 M2107.37 45.84 Q2107.29 39.7232 2103.93 36.0774 Q2100.6 32.4315 2095.09 32.4315 Q2088.86 32.4315 2085.09 35.9558 Q2081.36 39.4801 2080.79 45.8805 L2107.37 45.84 Z" fill="#000000" fill-rule="evenodd" fill-opacity="1" /><polyline clip-path="url(#clip212)" style="stroke:#009af9; stroke-width:4; stroke-opacity:1; fill:none" points="
  -52152,1386.4 -52044.9,1386.4 -51937.8,1386.4 -51830.7,1386.4 -51723.6,1386.4 -51616.6,1386.4 -51509.5,1386.4 -51402.4,1386.4 -51295.3,1386.4 -51188.2,1386.4 
  -51081.2,1386.4 -50974.1,1386.4 -50867,1386.4 -50759.9,1386.4 -50652.8,1386.4 -50545.7,1386.4 -50438.7,1386.4 -50331.6,1386.4 -50224.5,1386.4 -50117.4,1386.4 
  -50010.3,1386.4 -49903.3,1386.4 -49796.2,1386.4 -49689.1,1386.4 -49582,1386.4 -49474.9,1386.4 -49367.8,1386.4 -49260.8,1386.4 -49153.7,1386.4 -49046.6,1386.4 
  -48939.5,1386.4 -48832.4,1386.4 -48725.3,1386.4 -48618.3,1386.4 -48511.2,1386.4 -48404.1,1386.4 -48297,1386.4 -48189.9,1386.4 -48082.9,1386.4 -47975.8,1386.4 
  -47868.7,1386.4 -47761.6,1386.4 -47654.5,1386.4 -47547.4,1386.4 -47440.4,1386.4 -47333.3,1386.4 -47226.2,1386.4 -47119.1,1386.4 -47012,1386.4 -46905,1386.4 
  -46797.9,1386.4 -46690.8,1386.4 -46583.7,1386.4 -46476.6,1386.4 -46369.5,1386.4 -46262.5,1386.4 -46155.4,1386.4 -46048.3,1386.4 -45941.2,1386.4 -45834.1,1386.4 
  -45727.1,1386.4 -45620,1386.4 -45512.9,1386.4 -45405.8,1386.4 -45298.7,1386.4 -45191.6,1386.4 -45084.6,1386.4 -44977.5,1386.4 -44870.4,1386.4 -44763.3,1386.4 
  -44656.2,1386.4 -44549.2,1386.4 -44442.1,1386.4 -44335,1386.4 -44227.9,1386.4 -44120.8,1386.4 -44013.7,1386.4 -43906.7,1386.4 -43799.6,1386.4 -43692.5,1386.4 
  -43585.4,1386.4 -43478.3,1386.4 -43371.2,1386.4 -43264.2,1386.4 -43157.1,1386.4 -43050,1386.4 -42942.9,1386.4 -42835.8,1386.4 -42728.8,1386.4 -42621.7,1386.4 
  -42514.6,1386.4 -42407.5,1386.4 -42300.4,1386.4 -42193.3,1386.4 -42086.3,1386.4 -41979.2,1386.4 -41872.1,1386.4 -41765,1386.4 -41657.9,1386.4 -41550.9,1386.4 
  -41443.8,1386.4 -41336.7,1386.4 -41229.6,1386.4 -41122.5,1386.4 -41015.4,1386.4 -40908.4,1386.4 -40801.3,1386.4 -40694.2,1386.4 -40587.1,1386.4 -40480,1386.4 
  -40373,1386.4 -40265.9,1386.4 -40158.8,1386.4 -40051.7,1386.4 -39944.6,1386.4 -39837.5,1386.4 -39730.5,1386.4 -39623.4,1386.4 -39516.3,1386.4 -39409.2,1386.4 
  -39302.1,1386.4 -39195.1,1386.4 -39088,1386.4 -38980.9,1386.4 -38873.8,1386.4 -38766.7,1386.4 -38659.6,1386.4 -38552.6,1386.4 -38445.5,1386.4 -38338.4,1386.4 
  -38231.3,1386.4 -38124.2,1386.4 -38017.2,1386.4 -37910.1,1386.4 -37803,1386.4 -37695.9,1386.4 -37588.8,1386.4 -37481.7,1386.4 -37374.7,1386.4 -37267.6,1386.4 
  -37160.5,1386.4 -37053.4,1386.4 -36946.3,1386.4 -36839.2,1386.4 -36732.2,1386.4 -36625.1,1386.4 -36518,1386.4 -36410.9,1386.4 -36303.8,1386.4 -36196.8,1386.4 
  -36089.7,1386.4 -35982.6,1386.4 -35875.5,1386.4 -35768.4,1386.4 -35661.3,1386.4 -35554.3,1386.4 -35447.2,1386.4 -35340.1,1386.4 -35233,1386.4 -35125.9,1386.4 
  -35018.9,1386.4 -34911.8,1386.4 -34804.7,1386.4 -34697.6,1386.4 -34590.5,1386.4 -34483.4,1386.4 -34376.4,1386.4 -34269.3,1386.4 -34162.2,1386.4 -34055.1,1386.4 
  -33948,1386.4 -33841,1386.4 -33733.9,1386.4 -33626.8,1386.4 -33519.7,1386.4 -33412.6,1386.4 -33305.5,1386.4 -33198.5,1386.4 -33091.4,1386.4 -32984.3,1386.4 
  -32877.2,1386.4 -32770.1,1386.4 -32663.1,1386.4 -32556,1386.4 -32448.9,1386.4 -32341.8,1386.4 -32234.7,1386.4 -32127.6,1386.4 -32020.6,1386.4 -31913.5,1386.4 
  -31806.4,1386.4 -31699.3,1386.4 -31592.2,1386.4 -31485.1,1386.4 -31378.1,1386.4 -31271,1386.4 -31163.9,1386.4 -31056.8,1386.4 -30949.7,1386.4 -30842.7,1386.4 
  -30735.6,1386.4 -30628.5,1386.4 -30521.4,1386.4 -30414.3,1386.4 -30307.2,1386.4 -30200.2,1386.4 -30093.1,1386.4 -29986,1386.4 -29878.9,1386.4 -29771.8,1386.4 
  -29664.8,1386.4 -29557.7,1386.4 -29450.6,1386.4 -29343.5,1386.4 -29236.4,1386.4 -29129.3,1386.4 -29022.3,1386.4 -28915.2,1386.4 -28808.1,1386.4 -28701,1386.4 
  -28593.9,1386.4 -28486.9,1386.4 -28379.8,1386.4 -28272.7,1386.4 -28165.6,1386.4 -28058.5,1386.4 -27951.4,1386.4 -27844.4,1386.4 -27737.3,1386.4 -27630.2,1386.4 
  -27523.1,1386.4 -27416,1386.4 -27309,1386.4 -27201.9,1386.4 -27094.8,1386.4 -26987.7,1386.4 -26880.6,1386.4 -26773.5,1386.4 -26666.5,1386.4 -26559.4,1386.4 
  -26452.3,1386.4 -26345.2,1386.4 -26238.1,1386.4 -26131.1,1386.4 -26024,1386.4 -25916.9,1386.4 -25809.8,1386.4 -25702.7,1386.4 -25595.6,1386.4 -25488.6,1386.4 
  -25381.5,1386.4 -25274.4,1386.4 -25167.3,1386.4 -25060.2,1386.4 -24953.1,1386.4 -24846.1,1386.4 -24739,1386.4 -24631.9,1386.4 -24524.8,1386.4 -24417.7,1386.4 
  -24310.7,1386.4 -24203.6,1386.4 -24096.5,1386.4 -23989.4,1386.4 -23882.3,1386.4 -23775.2,1386.4 -23668.2,1386.4 -23561.1,1386.4 -23454,1386.4 -23346.9,1386.4 
  -23239.8,1386.4 -23132.8,1386.4 -23025.7,1386.4 -22918.6,1386.4 -22811.5,1386.4 -22704.4,1386.4 -22597.3,1386.4 -22490.3,1386.4 -22383.2,1386.4 -22276.1,1386.4 
  -22169,1386.4 -22061.9,1386.4 -21954.9,1386.4 -21847.8,1386.4 -21740.7,1386.4 -21633.6,1386.4 -21526.5,1386.4 -21419.4,1386.4 -21312.4,1386.4 -21205.3,1386.4 
  -21098.2,1386.4 -20991.1,1386.4 -20884,1386.4 -20777,1386.4 -20669.9,1386.4 -20562.8,1386.4 -20455.7,1386.4 -20348.6,1386.4 -20241.5,1386.4 -20134.5,1386.4 
  -20027.4,1386.4 -19920.3,1386.4 -19813.2,1386.4 -19706.1,1386.4 -19599,1386.4 -19492,1386.4 -19384.9,1386.4 -19277.8,1386.4 -19170.7,1386.4 -19063.6,1386.4 
  -18956.6,1386.4 -18849.5,1386.4 -18742.4,1386.4 -18635.3,1386.4 -18528.2,1386.4 -18421.1,1386.4 -18314.1,1386.4 -18207,1386.4 -18099.9,1386.4 -17992.8,1386.4 
  -17885.7,1386.4 -17778.7,1386.4 -17671.6,1386.4 -17564.5,1386.4 -17457.4,1386.4 -17350.3,1386.4 -17243.2,1386.4 -17136.2,1386.4 -17029.1,1386.4 -16922,1386.4 
  -16814.9,1386.4 -16707.8,1386.4 -16600.8,1386.4 -16493.7,1386.4 -16386.6,1386.4 -16279.5,1386.4 -16172.4,1386.4 -16065.3,1386.4 -15958.3,1386.4 -15851.2,1386.4 
  -15744.1,1386.4 -15637,1386.4 -15529.9,1386.4 -15422.9,1386.4 -15315.8,1386.4 -15208.7,1386.4 -15101.6,1386.4 -14994.5,1386.4 -14887.4,1386.4 -14780.4,1386.4 
  -14673.3,1386.4 -14566.2,1386.4 -14459.1,1386.4 -14352,1386.4 -14245,1386.4 -14137.9,1386.4 -14030.8,1386.4 -13923.7,1386.4 -13816.6,1386.4 -13709.5,1386.4 
  -13602.5,1386.4 -13495.4,1386.4 -13388.3,1386.4 -13281.2,1386.4 -13174.1,1386.4 -13067,1386.4 -12960,1386.4 -12852.9,1386.4 -12745.8,1386.4 -12638.7,1386.4 
  -12531.6,1386.4 -12424.6,1386.4 -12317.5,1386.4 -12210.4,1386.4 -12103.3,1386.4 -11996.2,1386.4 -11889.1,1386.4 -11782.1,1386.4 -11675,1386.4 -11567.9,1386.4 
  -11460.8,1386.4 -11353.7,1386.4 -11246.7,1386.4 -11139.6,1386.4 -11032.5,1386.4 -10925.4,1386.4 -10818.3,1386.4 -10711.2,1386.4 -10604.2,1386.4 -10497.1,1386.4 
  -10390,1386.4 -10282.9,1386.4 -10175.8,1386.4 -10068.8,1386.4 -9961.67,1386.4 -9854.59,1386.4 -9747.51,1386.4 -9640.43,1386.4 -9533.34,1386.4 -9426.26,1386.4 
  -9319.18,1386.4 -9212.1,1386.4 -9105.02,1386.4 -8997.93,1386.4 -8890.85,1386.4 -8783.77,1386.4 -8676.69,1386.4 -8569.61,1386.4 -8462.52,1386.4 -8355.44,1386.4 
  -8248.36,1386.4 -8141.28,1386.4 -8034.2,1386.4 -7927.11,1386.4 -7820.03,1386.4 -7712.95,1386.4 -7605.87,1386.4 -7498.79,1386.4 -7391.7,1386.4 -7284.62,1386.4 
  -7177.54,1386.4 -7070.46,1386.4 -6963.38,1386.4 -6856.29,1386.4 -6749.21,1386.4 -6642.13,1386.4 -6535.05,1386.4 -6427.97,1386.4 -6320.88,1386.4 -6213.8,1386.4 
  -6106.72,1386.4 -5999.64,1386.4 -5892.56,1386.4 -5785.47,1386.4 -5678.39,1386.4 -5571.31,1386.4 -5464.23,1386.4 -5357.15,1386.4 -5250.06,1386.4 -5142.98,1386.4 
  -5035.9,1386.4 -4928.82,1386.4 -4821.74,1386.4 -4714.65,1386.4 -4607.57,1386.4 -4500.49,1386.4 -4393.41,1386.4 -4286.33,1386.4 -4179.24,1386.4 -4072.16,1386.4 
  -3965.08,1386.4 -3858,1386.4 -3750.92,1386.4 -3643.83,1386.4 -3536.75,1386.4 -3429.67,1386.4 -3322.59,1386.4 -3215.51,1386.4 -3108.43,1386.4 -3001.34,1386.4 
  -2894.26,1386.4 -2787.18,1386.4 -2680.1,1386.4 -2573.02,1386.4 -2465.93,1386.4 -2358.85,1386.4 -2251.77,1386.4 -2144.69,1386.4 -2037.61,1386.4 -1930.52,1386.4 
  -1823.44,1386.4 -1716.36,1386.4 -1609.28,1386.4 -1502.2,1386.4 -1395.11,1386.4 -1288.03,1386.4 -1180.95,1386.4 -1073.87,1386.4 -966.785,1386.4 -859.703,1386.4 
  -752.622,1386.4 -645.54,1386.39 -538.458,1386.39 -431.376,1386.39 -324.294,1386.39 -217.212,1386.37 -110.13,1386.35 -3.04765,1386.29 104.034,1386.17 211.116,1385.89 
  318.198,1385.3 425.28,1384.01 532.362,1381.18 639.444,1375.02 746.526,1361.59 853.608,1332.27 960.69,1268.31 1067.77,1128.78 1174.85,824.366 1281.94,160.256 
  1389.02,824.366 1496.1,1128.78 1603.18,1268.31 1710.26,1332.27 1817.35,1361.59 1924.43,1375.02 2031.51,1381.18 2138.59,1384.01 2245.67,1385.3 2352.76,1385.89 
  2459.84,1386.17 2566.92,1386.29 2674,1386.35 2781.08,1386.37 2888.17,1386.39 2995.25,1386.39 3102.33,1386.39 3209.41,1386.39 3316.49,1386.4 3423.58,1386.4 
  3530.66,1386.4 3637.74,1386.4 3744.82,1386.4 3851.9,1386.4 3958.99,1386.4 4066.07,1386.4 4173.15,1386.4 4280.23,1386.4 4387.31,1386.4 4494.4,1386.4 
  4601.48,1386.4 4708.56,1386.4 4815.64,1386.4 4922.72,1386.4 5029.81,1386.4 5136.89,1386.4 5243.97,1386.4 5351.05,1386.4 5458.13,1386.4 5565.22,1386.4 
  5672.3,1386.4 5779.38,1386.4 5886.46,1386.4 5993.54,1386.4 6100.63,1386.4 6207.71,1386.4 6314.79,1386.4 6421.87,1386.4 6528.95,1386.4 6636.04,1386.4 
  6743.12,1386.4 6850.2,1386.4 6957.28,1386.4 7064.36,1386.4 7171.44,1386.4 7278.53,1386.4 7385.61,1386.4 7492.69,1386.4 7599.77,1386.4 7706.85,1386.4 
  7813.94,1386.4 7921.02,1386.4 8028.1,1386.4 8135.18,1386.4 8242.26,1386.4 8349.35,1386.4 8456.43,1386.4 8563.51,1386.4 8670.59,1386.4 8777.67,1386.4 
  8884.76,1386.4 8991.84,1386.4 9098.92,1386.4 9206,1386.4 9313.08,1386.4 9420.17,1386.4 9527.25,1386.4 9634.33,1386.4 9741.41,1386.4 9848.49,1386.4 
  9955.58,1386.4 10062.7,1386.4 10169.7,1386.4 10276.8,1386.4 10383.9,1386.4 10491,1386.4 10598.1,1386.4 10705.2,1386.4 10812.2,1386.4 10919.3,1386.4 
  11026.4,1386.4 11133.5,1386.4 11240.6,1386.4 11347.6,1386.4 11454.7,1386.4 11561.8,1386.4 11668.9,1386.4 11776,1386.4 11883.1,1386.4 11990.1,1386.4 
  12097.2,1386.4 12204.3,1386.4 12311.4,1386.4 12418.5,1386.4 12525.5,1386.4 12632.6,1386.4 12739.7,1386.4 12846.8,1386.4 12953.9,1386.4 13061,1386.4 
  13168,1386.4 13275.1,1386.4 13382.2,1386.4 13489.3,1386.4 13596.4,1386.4 13703.4,1386.4 13810.5,1386.4 13917.6,1386.4 14024.7,1386.4 14131.8,1386.4 
  14238.9,1386.4 14345.9,1386.4 14453,1386.4 14560.1,1386.4 14667.2,1386.4 14774.3,1386.4 14881.3,1386.4 14988.4,1386.4 15095.5,1386.4 15202.6,1386.4 
  15309.7,1386.4 15416.8,1386.4 15523.8,1386.4 15630.9,1386.4 15738,1386.4 15845.1,1386.4 15952.2,1386.4 16059.2,1386.4 16166.3,1386.4 16273.4,1386.4 
  16380.5,1386.4 16487.6,1386.4 16594.7,1386.4 16701.7,1386.4 16808.8,1386.4 16915.9,1386.4 17023,1386.4 17130.1,1386.4 17237.2,1386.4 17344.2,1386.4 
  17451.3,1386.4 17558.4,1386.4 17665.5,1386.4 17772.6,1386.4 17879.6,1386.4 17986.7,1386.4 18093.8,1386.4 18200.9,1386.4 18308,1386.4 18415.1,1386.4 
  18522.1,1386.4 18629.2,1386.4 18736.3,1386.4 18843.4,1386.4 18950.5,1386.4 19057.5,1386.4 19164.6,1386.4 19271.7,1386.4 19378.8,1386.4 19485.9,1386.4 
  19593,1386.4 19700,1386.4 19807.1,1386.4 19914.2,1386.4 20021.3,1386.4 20128.4,1386.4 20235.4,1386.4 20342.5,1386.4 20449.6,1386.4 20556.7,1386.4 
  20663.8,1386.4 20770.9,1386.4 20877.9,1386.4 20985,1386.4 21092.1,1386.4 21199.2,1386.4 21306.3,1386.4 21413.3,1386.4 21520.4,1386.4 21627.5,1386.4 
  21734.6,1386.4 21841.7,1386.4 21948.8,1386.4 22055.8,1386.4 22162.9,1386.4 22270,1386.4 22377.1,1386.4 22484.2,1386.4 22591.3,1386.4 22698.3,1386.4 
  22805.4,1386.4 22912.5,1386.4 23019.6,1386.4 23126.7,1386.4 23233.7,1386.4 23340.8,1386.4 23447.9,1386.4 23555,1386.4 23662.1,1386.4 23769.2,1386.4 
  23876.2,1386.4 23983.3,1386.4 24090.4,1386.4 24197.5,1386.4 24304.6,1386.4 24411.6,1386.4 24518.7,1386.4 24625.8,1386.4 24732.9,1386.4 24840,1386.4 
  24947.1,1386.4 25054.1,1386.4 25161.2,1386.4 25268.3,1386.4 25375.4,1386.4 25482.5,1386.4 25589.5,1386.4 25696.6,1386.4 25803.7,1386.4 25910.8,1386.4 
  26017.9,1386.4 26125,1386.4 26232,1386.4 26339.1,1386.4 26446.2,1386.4 26553.3,1386.4 26660.4,1386.4 26767.4,1386.4 26874.5,1386.4 26981.6,1386.4 
  27088.7,1386.4 27195.8,1386.4 27302.9,1386.4 27409.9,1386.4 27517,1386.4 27624.1,1386.4 27731.2,1386.4 27838.3,1386.4 27945.3,1386.4 28052.4,1386.4 
  28159.5,1386.4 28266.6,1386.4 28373.7,1386.4 28480.8,1386.4 28587.8,1386.4 28694.9,1386.4 28802,1386.4 28909.1,1386.4 29016.2,1386.4 29123.3,1386.4 
  29230.3,1386.4 29337.4,1386.4 29444.5,1386.4 29551.6,1386.4 29658.7,1386.4 29765.7,1386.4 29872.8,1386.4 29979.9,1386.4 30087,1386.4 30194.1,1386.4 
  30301.2,1386.4 30408.2,1386.4 30515.3,1386.4 30622.4,1386.4 30729.5,1386.4 30836.6,1386.4 30943.6,1386.4 31050.7,1386.4 31157.8,1386.4 31264.9,1386.4 
  31372,1386.4 31479.1,1386.4 31586.1,1386.4 31693.2,1386.4 31800.3,1386.4 31907.4,1386.4 32014.5,1386.4 32121.5,1386.4 32228.6,1386.4 32335.7,1386.4 
  32442.8,1386.4 32549.9,1386.4 32657,1386.4 32764,1386.4 32871.1,1386.4 32978.2,1386.4 33085.3,1386.4 33192.4,1386.4 33299.4,1386.4 33406.5,1386.4 
  33513.6,1386.4 33620.7,1386.4 33727.8,1386.4 33834.9,1386.4 33941.9,1386.4 34049,1386.4 34156.1,1386.4 34263.2,1386.4 34370.3,1386.4 34477.3,1386.4 
  34584.4,1386.4 34691.5,1386.4 34798.6,1386.4 34905.7,1386.4 35012.8,1386.4 35119.8,1386.4 35226.9,1386.4 35334,1386.4 35441.1,1386.4 35548.2,1386.4 
  35655.3,1386.4 35762.3,1386.4 35869.4,1386.4 35976.5,1386.4 36083.6,1386.4 36190.7,1386.4 36297.7,1386.4 36404.8,1386.4 36511.9,1386.4 36619,1386.4 
  36726.1,1386.4 36833.2,1386.4 36940.2,1386.4 37047.3,1386.4 37154.4,1386.4 37261.5,1386.4 37368.6,1386.4 37475.6,1386.4 37582.7,1386.4 37689.8,1386.4 
  37796.9,1386.4 37904,1386.4 38011.1,1386.4 38118.1,1386.4 38225.2,1386.4 38332.3,1386.4 38439.4,1386.4 38546.5,1386.4 38653.5,1386.4 38760.6,1386.4 
  38867.7,1386.4 38974.8,1386.4 39081.9,1386.4 39189,1386.4 39296,1386.4 39403.1,1386.4 39510.2,1386.4 39617.3,1386.4 39724.4,1386.4 39831.4,1386.4 
  39938.5,1386.4 40045.6,1386.4 40152.7,1386.4 40259.8,1386.4 40366.9,1386.4 40473.9,1386.4 40581,1386.4 40688.1,1386.4 40795.2,1386.4 40902.3,1386.4 
  41009.4,1386.4 41116.4,1386.4 41223.5,1386.4 41330.6,1386.4 41437.7,1386.4 41544.8,1386.4 41651.8,1386.4 41758.9,1386.4 41866,1386.4 41973.1,1386.4 
  42080.2,1386.4 42187.3,1386.4 42294.3,1386.4 42401.4,1386.4 42508.5,1386.4 42615.6,1386.4 42722.7,1386.4 42829.7,1386.4 42936.8,1386.4 43043.9,1386.4 
  43151,1386.4 43258.1,1386.4 43365.2,1386.4 43472.2,1386.4 43579.3,1386.4 43686.4,1386.4 43793.5,1386.4 43900.6,1386.4 44007.6,1386.4 44114.7,1386.4 
  44221.8,1386.4 44328.9,1386.4 44436,1386.4 44543.1,1386.4 44650.1,1386.4 44757.2,1386.4 44864.3,1386.4 44971.4,1386.4 45078.5,1386.4 45185.5,1386.4 
  45292.6,1386.4 45399.7,1386.4 45506.8,1386.4 45613.9,1386.4 45721,1386.4 45828,1386.4 45935.1,1386.4 46042.2,1386.4 46149.3,1386.4 46256.4,1386.4 
  46363.4,1386.4 46470.5,1386.4 46577.6,1386.4 46684.7,1386.4 46791.8,1386.4 46898.9,1386.4 47005.9,1386.4 47113,1386.4 47220.1,1386.4 47327.2,1386.4 
  47434.3,1386.4 47541.4,1386.4 47648.4,1386.4 47755.5,1386.4 47862.6,1386.4 47969.7,1386.4 48076.8,1386.4 48183.8,1386.4 48290.9,1386.4 48398,1386.4 
  48505.1,1386.4 48612.2,1386.4 48719.3,1386.4 48826.3,1386.4 48933.4,1386.4 49040.5,1386.4 49147.6,1386.4 49254.7,1386.4 49361.7,1386.4 49468.8,1386.4 
  49575.9,1386.4 49683,1386.4 49790.1,1386.4 49897.2,1386.4 50004.2,1386.4 50111.3,1386.4 50218.4,1386.4 50325.5,1386.4 50432.6,1386.4 50539.6,1386.4 
  50646.7,1386.4 50753.8,1386.4 50860.9,1386.4 50968,1386.4 51075.1,1386.4 51182.1,1386.4 51289.2,1386.4 51396.3,1386.4 51503.4,1386.4 51610.5,1386.4 
  51717.5,1386.4 51824.6,1386.4 51931.7,1386.4 52038.8,1386.4 52145.9,1386.4 52253,1386.4 52360,1386.4 52467.1,1386.4 52574.2,1386.4 52681.3,1386.4 
  52788.4,1386.4 52895.5,1386.4 53002.5,1386.4 53109.6,1386.4 53216.7,1386.4 53323.8,1386.4 53430.9,1386.4 53537.9,1386.4 53645,1386.4 53752.1,1386.4 
  53859.2,1386.4 53966.3,1386.4 54073.4,1386.4 54180.4,1386.4 54287.5,1386.4 54394.6,1386.4 54501.7,1386.4 54608.8,1386.4 54715.8,1386.4 54822.9,1386.4 
  54930,1386.4 
  "/>
<path clip-path="url(#clip210)" d="
M1791.19 287.756 L2281.37 287.756 L2281.37 166.796 L1791.19 166.796  Z
  " fill="#ffffff" fill-rule="evenodd" fill-opacity="1"/>
<polyline clip-path="url(#clip210)" style="stroke:#000000; stroke-width:4; stroke-opacity:1; fill:none" points="
  1791.19,287.756 2281.37,287.756 2281.37,166.796 1791.19,166.796 1791.19,287.756 
  "/>
<polyline clip-path="url(#clip210)" style="stroke:#009af9; stroke-width:4; stroke-opacity:1; fill:none" points="
  1814.98,227.276 1957.76,227.276 
  "/>
<path clip-path="url(#clip210)" d="M 0 0 M1986.23 228.051 L1986.23 240.713 L1993.73 240.713 Q1997.5 240.713 1999.31 239.162 Q2001.14 237.588 2001.14 234.371 Q2001.14 231.13 1999.31 229.602 Q1997.5 228.051 1993.73 228.051 L1986.23 228.051 M1986.23 213.838 L1986.23 224.255 L1993.15 224.255 Q1996.58 224.255 1998.24 222.982 Q1999.93 221.685 1999.93 219.047 Q1999.93 216.431 1998.24 215.135 Q1996.58 213.838 1993.15 213.838 L1986.23 213.838 M1981.56 209.996 L1993.5 209.996 Q1998.85 209.996 2001.74 212.218 Q2004.63 214.44 2004.63 218.537 Q2004.63 221.709 2003.15 223.584 Q2001.67 225.459 1998.8 225.922 Q2002.25 226.662 2004.15 229.023 Q2006.07 231.361 2006.07 234.88 Q2006.07 239.509 2002.92 242.033 Q1999.77 244.556 1993.96 244.556 L1981.56 244.556 L1981.56 209.996 Z" fill="#000000" fill-rule="evenodd" fill-opacity="1" /><path clip-path="url(#clip210)" d="M 0 0 M2020.58 221.616 Q2017.16 221.616 2015.17 224.301 Q2013.18 226.963 2013.18 231.616 Q2013.18 236.269 2015.14 238.954 Q2017.13 241.616 2020.58 241.616 Q2023.99 241.616 2025.98 238.931 Q2027.97 236.246 2027.97 231.616 Q2027.97 227.01 2025.98 224.324 Q2023.99 221.616 2020.58 221.616 M2020.58 218.005 Q2026.14 218.005 2029.31 221.616 Q2032.48 225.227 2032.48 231.616 Q2032.48 237.982 2029.31 241.616 Q2026.14 245.227 2020.58 245.227 Q2015 245.227 2011.83 241.616 Q2008.68 237.982 2008.68 231.616 Q2008.68 225.227 2011.83 221.616 Q2015 218.005 2020.58 218.005 Z" fill="#000000" fill-rule="evenodd" fill-opacity="1" /><path clip-path="url(#clip210)" d="M 0 0 M2036.51 234.324 L2036.51 218.63 L2040.77 218.63 L2040.77 234.162 Q2040.77 237.843 2042.2 239.695 Q2043.64 241.523 2046.51 241.523 Q2049.96 241.523 2051.95 239.324 Q2053.96 237.125 2053.96 233.329 L2053.96 218.63 L2058.22 218.63 L2058.22 244.556 L2053.96 244.556 L2053.96 240.574 Q2052.41 242.935 2050.35 244.093 Q2048.31 245.227 2045.61 245.227 Q2041.14 245.227 2038.82 242.449 Q2036.51 239.671 2036.51 234.324 M2047.23 218.005 L2047.23 218.005 Z" fill="#000000" fill-rule="evenodd" fill-opacity="1" /><path clip-path="url(#clip210)" d="M 0 0 M2084.24 228.908 L2084.24 244.556 L2079.98 244.556 L2079.98 229.047 Q2079.98 225.366 2078.55 223.537 Q2077.11 221.709 2074.24 221.709 Q2070.79 221.709 2068.8 223.908 Q2066.81 226.107 2066.81 229.903 L2066.81 244.556 L2062.53 244.556 L2062.53 218.63 L2066.81 218.63 L2066.81 222.658 Q2068.34 220.32 2070.4 219.162 Q2072.48 218.005 2075.19 218.005 Q2079.66 218.005 2081.95 220.783 Q2084.24 223.537 2084.24 228.908 Z" fill="#000000" fill-rule="evenodd" fill-opacity="1" /><path clip-path="url(#clip210)" d="M 0 0 M2105.77 222.565 L2105.77 208.537 L2110.03 208.537 L2110.03 244.556 L2105.77 244.556 L2105.77 240.667 Q2104.42 242.982 2102.36 244.116 Q2100.33 245.227 2097.46 245.227 Q2092.76 245.227 2089.8 241.477 Q2086.86 237.727 2086.86 231.616 Q2086.86 225.505 2089.8 221.755 Q2092.76 218.005 2097.46 218.005 Q2100.33 218.005 2102.36 219.139 Q2104.42 220.25 2105.77 222.565 M2091.25 231.616 Q2091.25 236.315 2093.17 239 Q2095.12 241.662 2098.5 241.662 Q2101.88 241.662 2103.82 239 Q2105.77 236.315 2105.77 231.616 Q2105.77 226.917 2103.82 224.255 Q2101.88 221.57 2098.5 221.57 Q2095.12 221.57 2093.17 224.255 Q2091.25 226.917 2091.25 231.616 Z" fill="#000000" fill-rule="evenodd" fill-opacity="1" /><path clip-path="url(#clip210)" d="M 0 0 M2146.09 219.394 L2146.09 223.422 Q2144.29 222.496 2142.34 222.033 Q2140.4 221.57 2138.31 221.57 Q2135.14 221.57 2133.54 222.542 Q2131.97 223.514 2131.97 225.459 Q2131.97 226.94 2133.11 227.797 Q2134.24 228.63 2137.67 229.394 L2139.12 229.718 Q2143.66 230.69 2145.56 232.472 Q2147.48 234.232 2147.48 237.403 Q2147.48 241.014 2144.61 243.121 Q2141.76 245.227 2136.76 245.227 Q2134.68 245.227 2132.41 244.81 Q2130.17 244.417 2127.67 243.607 L2127.67 239.209 Q2130.03 240.435 2132.32 241.06 Q2134.61 241.662 2136.86 241.662 Q2139.86 241.662 2141.48 240.644 Q2143.11 239.602 2143.11 237.727 Q2143.11 235.991 2141.92 235.065 Q2140.77 234.139 2136.81 233.283 L2135.33 232.935 Q2131.37 232.102 2129.61 230.389 Q2127.85 228.653 2127.85 225.644 Q2127.85 221.986 2130.44 219.996 Q2133.04 218.005 2137.8 218.005 Q2140.17 218.005 2142.25 218.352 Q2144.33 218.699 2146.09 219.394 Z" fill="#000000" fill-rule="evenodd" fill-opacity="1" /><path clip-path="url(#clip210)" d="M 0 0 M2156.16 211.269 L2156.16 218.63 L2164.93 218.63 L2164.93 221.94 L2156.16 221.94 L2156.16 236.014 Q2156.16 239.185 2157.02 240.088 Q2157.9 240.991 2160.56 240.991 L2164.93 240.991 L2164.93 244.556 L2160.56 244.556 Q2155.63 244.556 2153.75 242.727 Q2151.88 240.875 2151.88 236.014 L2151.88 221.94 L2148.75 221.94 L2148.75 218.63 L2151.88 218.63 L2151.88 211.269 L2156.16 211.269 Z" fill="#000000" fill-rule="evenodd" fill-opacity="1" /><path clip-path="url(#clip210)" d="M 0 0 M2181.18 231.523 Q2176.02 231.523 2174.03 232.704 Q2172.04 233.884 2172.04 236.732 Q2172.04 239 2173.52 240.343 Q2175.03 241.662 2177.6 241.662 Q2181.14 241.662 2183.27 239.162 Q2185.42 236.639 2185.42 232.472 L2185.42 231.523 L2181.18 231.523 M2189.68 229.764 L2189.68 244.556 L2185.42 244.556 L2185.42 240.621 Q2183.96 242.982 2181.79 244.116 Q2179.61 245.227 2176.46 245.227 Q2172.48 245.227 2170.12 243.005 Q2167.78 240.759 2167.78 237.009 Q2167.78 232.634 2170.7 230.412 Q2173.64 228.19 2179.45 228.19 L2185.42 228.19 L2185.42 227.773 Q2185.42 224.834 2183.48 223.236 Q2181.55 221.616 2178.06 221.616 Q2175.84 221.616 2173.73 222.148 Q2171.62 222.681 2169.68 223.746 L2169.68 219.81 Q2172.02 218.908 2174.22 218.468 Q2176.42 218.005 2178.5 218.005 Q2184.12 218.005 2186.9 220.922 Q2189.68 223.838 2189.68 229.764 Z" fill="#000000" fill-rule="evenodd" fill-opacity="1" /><path clip-path="url(#clip210)" d="M 0 0 M2198.36 211.269 L2198.36 218.63 L2207.13 218.63 L2207.13 221.94 L2198.36 221.94 L2198.36 236.014 Q2198.36 239.185 2199.22 240.088 Q2200.1 240.991 2202.76 240.991 L2207.13 240.991 L2207.13 244.556 L2202.76 244.556 Q2197.83 244.556 2195.95 242.727 Q2194.08 240.875 2194.08 236.014 L2194.08 221.94 L2190.95 221.94 L2190.95 218.63 L2194.08 218.63 L2194.08 211.269 L2198.36 211.269 Z" fill="#000000" fill-rule="evenodd" fill-opacity="1" /><path clip-path="url(#clip210)" d="M 0 0 M2233.78 230.528 L2233.78 232.611 L2214.19 232.611 Q2214.47 237.009 2216.83 239.324 Q2219.22 241.616 2223.45 241.616 Q2225.91 241.616 2228.2 241.014 Q2230.51 240.412 2232.78 239.209 L2232.78 243.236 Q2230.49 244.208 2228.08 244.718 Q2225.67 245.227 2223.2 245.227 Q2216.99 245.227 2213.36 241.616 Q2209.75 238.005 2209.75 231.847 Q2209.75 225.482 2213.17 221.755 Q2216.62 218.005 2222.46 218.005 Q2227.69 218.005 2230.72 221.385 Q2233.78 224.741 2233.78 230.528 M2229.52 229.278 Q2229.47 225.783 2227.55 223.699 Q2225.65 221.616 2222.5 221.616 Q2218.94 221.616 2216.79 223.63 Q2214.66 225.644 2214.33 229.301 L2229.52 229.278 Z" fill="#000000" fill-rule="evenodd" fill-opacity="1" /></svg>
