<?xml version="1.0" encoding="utf-8"?>
<svg xmlns="http://www.w3.org/2000/svg" xmlns:xlink="http://www.w3.org/1999/xlink" width="600" height="400" viewBox="0 0 2400 1600">
<defs>
  <clipPath id="clip490">
    <rect x="0" y="0" width="2400" height="1600"/>
  </clipPath>
</defs>
<path clip-path="url(#clip490)" d="
M0 1600 L2400 1600 L2400 0 L0 0  Z
  " fill="#ffffff" fill-rule="evenodd" fill-opacity="1"/>
<defs>
  <clipPath id="clip491">
    <rect x="480" y="0" width="1681" height="1600"/>
  </clipPath>
</defs>
<path clip-path="url(#clip490)" d="
M205.352 1423.18 L2352.76 1423.18 L2352.76 47.2441 L205.352 47.2441  Z
  " fill="#ffffff" fill-rule="evenodd" fill-opacity="1"/>
<defs>
  <clipPath id="clip492">
    <rect x="205" y="47" width="2148" height="1377"/>
  </clipPath>
</defs>
<polyline clip-path="url(#clip492)" style="stroke:#000000; stroke-width:2; stroke-opacity:0.1; fill:none" points="
  468.713,1423.18 468.713,47.2441 
  "/>
<polyline clip-path="url(#clip492)" style="stroke:#000000; stroke-width:2; stroke-opacity:0.1; fill:none" points="
  873.884,1423.18 873.884,47.2441 
  "/>
<polyline clip-path="url(#clip492)" style="stroke:#000000; stroke-width:2; stroke-opacity:0.1; fill:none" points="
  1279.05,1423.18 1279.05,47.2441 
  "/>
<polyline clip-path="url(#clip492)" style="stroke:#000000; stroke-width:2; stroke-opacity:0.1; fill:none" points="
  1684.22,1423.18 1684.22,47.2441 
  "/>
<polyline clip-path="url(#clip492)" style="stroke:#000000; stroke-width:2; stroke-opacity:0.1; fill:none" points="
  2089.4,1423.18 2089.4,47.2441 
  "/>
<polyline clip-path="url(#clip490)" style="stroke:#000000; stroke-width:4; stroke-opacity:1; fill:none" points="
  205.352,1423.18 2352.76,1423.18 
  "/>
<polyline clip-path="url(#clip490)" style="stroke:#000000; stroke-width:4; stroke-opacity:1; fill:none" points="
  468.713,1423.18 468.713,1406.67 
  "/>
<polyline clip-path="url(#clip490)" style="stroke:#000000; stroke-width:4; stroke-opacity:1; fill:none" points="
  873.884,1423.18 873.884,1406.67 
  "/>
<polyline clip-path="url(#clip490)" style="stroke:#000000; stroke-width:4; stroke-opacity:1; fill:none" points="
  1279.05,1423.18 1279.05,1406.67 
  "/>
<polyline clip-path="url(#clip490)" style="stroke:#000000; stroke-width:4; stroke-opacity:1; fill:none" points="
  1684.22,1423.18 1684.22,1406.67 
  "/>
<polyline clip-path="url(#clip490)" style="stroke:#000000; stroke-width:4; stroke-opacity:1; fill:none" points="
  2089.4,1423.18 2089.4,1406.67 
  "/>
<path clip-path="url(#clip490)" d="M 0 0 M421.642 1467.02 L451.318 1467.02 L451.318 1470.96 L421.642 1470.96 L421.642 1467.02 Z" fill="#000000" fill-rule="evenodd" fill-opacity="1" /><path clip-path="url(#clip490)" d="M 0 0 M466.387 1452.37 Q462.776 1452.37 460.947 1455.94 Q459.142 1459.48 459.142 1466.61 Q459.142 1473.71 460.947 1477.28 Q462.776 1480.82 466.387 1480.82 Q470.021 1480.82 471.827 1477.28 Q473.655 1473.71 473.655 1466.61 Q473.655 1459.48 471.827 1455.94 Q470.021 1452.37 466.387 1452.37 M466.387 1448.67 Q472.197 1448.67 475.253 1453.27 Q478.331 1457.86 478.331 1466.61 Q478.331 1475.33 475.253 1479.94 Q472.197 1484.52 466.387 1484.52 Q460.577 1484.52 457.498 1479.94 Q454.442 1475.33 454.442 1466.61 Q454.442 1457.86 457.498 1453.27 Q460.577 1448.67 466.387 1448.67 Z" fill="#000000" fill-rule="evenodd" fill-opacity="1" /><path clip-path="url(#clip490)" d="M 0 0 M483.401 1477.97 L488.285 1477.97 L488.285 1483.85 L483.401 1483.85 L483.401 1477.97 Z" fill="#000000" fill-rule="evenodd" fill-opacity="1" /><path clip-path="url(#clip490)" d="M 0 0 M506.201 1453.37 L494.396 1471.81 L506.201 1471.81 L506.201 1453.37 M504.975 1449.29 L510.854 1449.29 L510.854 1471.81 L515.785 1471.81 L515.785 1475.7 L510.854 1475.7 L510.854 1483.85 L506.201 1483.85 L506.201 1475.7 L490.6 1475.7 L490.6 1471.19 L504.975 1449.29 Z" fill="#000000" fill-rule="evenodd" fill-opacity="1" /><path clip-path="url(#clip490)" d="M 0 0 M827.854 1467.02 L857.53 1467.02 L857.53 1470.96 L827.854 1470.96 L827.854 1467.02 Z" fill="#000000" fill-rule="evenodd" fill-opacity="1" /><path clip-path="url(#clip490)" d="M 0 0 M872.599 1452.37 Q868.988 1452.37 867.159 1455.94 Q865.354 1459.48 865.354 1466.61 Q865.354 1473.71 867.159 1477.28 Q868.988 1480.82 872.599 1480.82 Q876.233 1480.82 878.039 1477.28 Q879.867 1473.71 879.867 1466.61 Q879.867 1459.48 878.039 1455.94 Q876.233 1452.37 872.599 1452.37 M872.599 1448.67 Q878.409 1448.67 881.465 1453.27 Q884.543 1457.86 884.543 1466.61 Q884.543 1475.33 881.465 1479.94 Q878.409 1484.52 872.599 1484.52 Q866.789 1484.52 863.71 1479.94 Q860.655 1475.33 860.655 1466.61 Q860.655 1457.86 863.71 1453.27 Q866.789 1448.67 872.599 1448.67 Z" fill="#000000" fill-rule="evenodd" fill-opacity="1" /><path clip-path="url(#clip490)" d="M 0 0 M889.613 1477.97 L894.497 1477.97 L894.497 1483.85 L889.613 1483.85 L889.613 1477.97 Z" fill="#000000" fill-rule="evenodd" fill-opacity="1" /><path clip-path="url(#clip490)" d="M 0 0 M903.594 1479.92 L919.914 1479.92 L919.914 1483.85 L897.969 1483.85 L897.969 1479.92 Q900.631 1477.16 905.215 1472.53 Q909.821 1467.88 911.002 1466.54 Q913.247 1464.01 914.127 1462.28 Q915.029 1460.52 915.029 1458.83 Q915.029 1456.07 913.085 1454.34 Q911.164 1452.6 908.062 1452.6 Q905.863 1452.6 903.409 1453.37 Q900.978 1454.13 898.201 1455.68 L898.201 1450.96 Q901.025 1449.82 903.478 1449.25 Q905.932 1448.67 907.969 1448.67 Q913.34 1448.67 916.534 1451.35 Q919.728 1454.04 919.728 1458.53 Q919.728 1460.66 918.918 1462.58 Q918.131 1464.48 916.025 1467.07 Q915.446 1467.74 912.344 1470.96 Q909.242 1474.15 903.594 1479.92 Z" fill="#000000" fill-rule="evenodd" fill-opacity="1" /><path clip-path="url(#clip490)" d="M 0 0 M1260.57 1452.37 Q1256.96 1452.37 1255.13 1455.94 Q1253.33 1459.48 1253.33 1466.61 Q1253.33 1473.71 1255.13 1477.28 Q1256.96 1480.82 1260.57 1480.82 Q1264.2 1480.82 1266.01 1477.28 Q1267.84 1473.71 1267.84 1466.61 Q1267.84 1459.48 1266.01 1455.94 Q1264.2 1452.37 1260.57 1452.37 M1260.57 1448.67 Q1266.38 1448.67 1269.44 1453.27 Q1272.51 1457.86 1272.51 1466.61 Q1272.51 1475.33 1269.44 1479.94 Q1266.38 1484.52 1260.57 1484.52 Q1254.76 1484.52 1251.68 1479.94 Q1248.63 1475.33 1248.63 1466.61 Q1248.63 1457.86 1251.68 1453.27 Q1254.76 1448.67 1260.57 1448.67 Z" fill="#000000" fill-rule="evenodd" fill-opacity="1" /><path clip-path="url(#clip490)" d="M 0 0 M1277.58 1477.97 L1282.47 1477.97 L1282.47 1483.85 L1277.58 1483.85 L1277.58 1477.97 Z" fill="#000000" fill-rule="evenodd" fill-opacity="1" /><path clip-path="url(#clip490)" d="M 0 0 M1297.54 1452.37 Q1293.93 1452.37 1292.1 1455.94 Q1290.29 1459.48 1290.29 1466.61 Q1290.29 1473.71 1292.1 1477.28 Q1293.93 1480.82 1297.54 1480.82 Q1301.17 1480.82 1302.98 1477.28 Q1304.81 1473.71 1304.81 1466.61 Q1304.81 1459.48 1302.98 1455.94 Q1301.17 1452.37 1297.54 1452.37 M1297.54 1448.67 Q1303.35 1448.67 1306.4 1453.27 Q1309.48 1457.86 1309.48 1466.61 Q1309.48 1475.33 1306.4 1479.94 Q1303.35 1484.52 1297.54 1484.52 Q1291.73 1484.52 1288.65 1479.94 Q1285.59 1475.33 1285.59 1466.61 Q1285.59 1457.86 1288.65 1453.27 Q1291.73 1448.67 1297.54 1448.67 Z" fill="#000000" fill-rule="evenodd" fill-opacity="1" /><path clip-path="url(#clip490)" d="M 0 0 M1666.54 1452.37 Q1662.93 1452.37 1661.1 1455.94 Q1659.29 1459.48 1659.29 1466.61 Q1659.29 1473.71 1661.1 1477.28 Q1662.93 1480.82 1666.54 1480.82 Q1670.17 1480.82 1671.98 1477.28 Q1673.81 1473.71 1673.81 1466.61 Q1673.81 1459.48 1671.98 1455.94 Q1670.17 1452.37 1666.54 1452.37 M1666.54 1448.67 Q1672.35 1448.67 1675.41 1453.27 Q1678.48 1457.86 1678.48 1466.61 Q1678.48 1475.33 1675.41 1479.94 Q1672.35 1484.52 1666.54 1484.52 Q1660.73 1484.52 1657.65 1479.94 Q1654.6 1475.33 1654.6 1466.61 Q1654.6 1457.86 1657.65 1453.27 Q1660.73 1448.67 1666.54 1448.67 Z" fill="#000000" fill-rule="evenodd" fill-opacity="1" /><path clip-path="url(#clip490)" d="M 0 0 M1683.55 1477.97 L1688.44 1477.97 L1688.44 1483.85 L1683.55 1483.85 L1683.55 1477.97 Z" fill="#000000" fill-rule="evenodd" fill-opacity="1" /><path clip-path="url(#clip490)" d="M 0 0 M1697.53 1479.92 L1713.85 1479.92 L1713.85 1483.85 L1691.91 1483.85 L1691.91 1479.92 Q1694.57 1477.16 1699.16 1472.53 Q1703.76 1467.88 1704.94 1466.54 Q1707.19 1464.01 1708.07 1462.28 Q1708.97 1460.52 1708.97 1458.83 Q1708.97 1456.07 1707.03 1454.34 Q1705.1 1452.6 1702 1452.6 Q1699.8 1452.6 1697.35 1453.37 Q1694.92 1454.13 1692.14 1455.68 L1692.14 1450.96 Q1694.97 1449.82 1697.42 1449.25 Q1699.87 1448.67 1701.91 1448.67 Q1707.28 1448.67 1710.47 1451.35 Q1713.67 1454.04 1713.67 1458.53 Q1713.67 1460.66 1712.86 1462.58 Q1712.07 1464.48 1709.97 1467.07 Q1709.39 1467.74 1706.28 1470.96 Q1703.18 1474.15 1697.53 1479.92 Z" fill="#000000" fill-rule="evenodd" fill-opacity="1" /><path clip-path="url(#clip490)" d="M 0 0 M2070.67 1452.37 Q2067.06 1452.37 2065.23 1455.94 Q2063.42 1459.48 2063.42 1466.61 Q2063.42 1473.71 2065.23 1477.28 Q2067.06 1480.82 2070.67 1480.82 Q2074.3 1480.82 2076.11 1477.28 Q2077.94 1473.71 2077.94 1466.61 Q2077.94 1459.48 2076.11 1455.94 Q2074.3 1452.37 2070.67 1452.37 M2070.67 1448.67 Q2076.48 1448.67 2079.53 1453.27 Q2082.61 1457.86 2082.61 1466.61 Q2082.61 1475.33 2079.53 1479.94 Q2076.48 1484.52 2070.67 1484.52 Q2064.86 1484.52 2061.78 1479.94 Q2058.72 1475.33 2058.72 1466.61 Q2058.72 1457.86 2061.78 1453.27 Q2064.86 1448.67 2070.67 1448.67 Z" fill="#000000" fill-rule="evenodd" fill-opacity="1" /><path clip-path="url(#clip490)" d="M 0 0 M2087.68 1477.97 L2092.57 1477.97 L2092.57 1483.85 L2087.68 1483.85 L2087.68 1477.97 Z" fill="#000000" fill-rule="evenodd" fill-opacity="1" /><path clip-path="url(#clip490)" d="M 0 0 M2110.48 1453.37 L2098.68 1471.81 L2110.48 1471.81 L2110.48 1453.37 M2109.26 1449.29 L2115.14 1449.29 L2115.14 1471.81 L2120.07 1471.81 L2120.07 1475.7 L2115.14 1475.7 L2115.14 1483.85 L2110.48 1483.85 L2110.48 1475.7 L2094.88 1475.7 L2094.88 1471.19 L2109.26 1449.29 Z" fill="#000000" fill-rule="evenodd" fill-opacity="1" /><path clip-path="url(#clip490)" d="M 0 0 M1199.98 1506.52 L1205.86 1506.52 L1205.86 1535.77 L1223.34 1520.4 L1230.82 1520.4 L1211.91 1537.07 L1231.61 1556.04 L1223.97 1556.04 L1205.86 1538.63 L1205.86 1556.04 L1199.98 1556.04 L1199.98 1506.52 Z" fill="#000000" fill-rule="evenodd" fill-opacity="1" /><path clip-path="url(#clip490)" d="M 0 0 M1264.14 1550.7 L1264.14 1569.6 L1258.25 1569.6 L1258.25 1520.4 L1264.14 1520.4 L1264.14 1525.81 Q1265.99 1522.62 1268.79 1521.1 Q1271.62 1519.54 1275.54 1519.54 Q1282.03 1519.54 1286.07 1524.69 Q1290.15 1529.85 1290.15 1538.25 Q1290.15 1546.65 1286.07 1551.81 Q1282.03 1556.97 1275.54 1556.97 Q1271.62 1556.97 1268.79 1555.44 Q1265.99 1553.88 1264.14 1550.7 M1284.07 1538.25 Q1284.07 1531.79 1281.39 1528.13 Q1278.75 1524.44 1274.1 1524.44 Q1269.46 1524.44 1266.78 1528.13 Q1264.14 1531.79 1264.14 1538.25 Q1264.14 1544.71 1266.78 1548.4 Q1269.46 1552.07 1274.1 1552.07 Q1278.75 1552.07 1281.39 1548.4 Q1284.07 1544.71 1284.07 1538.25 Z" fill="#000000" fill-rule="evenodd" fill-opacity="1" /><path clip-path="url(#clip490)" d="M 0 0 M1296.29 1520.4 L1302.15 1520.4 L1302.15 1556.04 L1296.29 1556.04 L1296.29 1520.4 M1296.29 1506.52 L1302.15 1506.52 L1302.15 1513.93 L1296.29 1513.93 L1296.29 1506.52 Z" fill="#000000" fill-rule="evenodd" fill-opacity="1" /><path clip-path="url(#clip490)" d="M 0 0 M1318.7 1508.52 L1324.11 1508.52 L1307.56 1562.09 L1302.15 1562.09 L1318.7 1508.52 Z" fill="#000000" fill-rule="evenodd" fill-opacity="1" /><path clip-path="url(#clip490)" d="M 0 0 M1346.45 1538.12 Q1339.35 1538.12 1336.62 1539.75 Q1333.88 1541.37 1333.88 1545.29 Q1333.88 1548.4 1335.92 1550.25 Q1337.98 1552.07 1341.52 1552.07 Q1346.39 1552.07 1349.32 1548.63 Q1352.28 1545.16 1352.28 1539.43 L1352.28 1538.12 L1346.45 1538.12 M1358.13 1535.71 L1358.13 1556.04 L1352.28 1556.04 L1352.28 1550.63 Q1350.27 1553.88 1347.28 1555.44 Q1344.29 1556.97 1339.96 1556.97 Q1334.48 1556.97 1331.24 1553.91 Q1328.02 1550.82 1328.02 1545.67 Q1328.02 1539.65 1332.03 1536.6 Q1336.07 1533.54 1344.06 1533.54 L1352.28 1533.54 L1352.28 1532.97 Q1352.28 1528.93 1349.6 1526.73 Q1346.96 1524.5 1342.15 1524.5 Q1339.1 1524.5 1336.2 1525.23 Q1333.31 1525.97 1330.63 1527.43 L1330.63 1522.02 Q1333.85 1520.78 1336.87 1520.17 Q1339.89 1519.54 1342.76 1519.54 Q1350.49 1519.54 1354.31 1523.55 Q1358.13 1527.56 1358.13 1535.71 Z" fill="#000000" fill-rule="evenodd" fill-opacity="1" /><polyline clip-path="url(#clip492)" style="stroke:#000000; stroke-width:2; stroke-opacity:0.1; fill:none" points="
  205.352,1207.5 2352.76,1207.5 
  "/>
<polyline clip-path="url(#clip492)" style="stroke:#000000; stroke-width:2; stroke-opacity:0.1; fill:none" points="
  205.352,892.643 2352.76,892.643 
  "/>
<polyline clip-path="url(#clip492)" style="stroke:#000000; stroke-width:2; stroke-opacity:0.1; fill:none" points="
  205.352,577.781 2352.76,577.781 
  "/>
<polyline clip-path="url(#clip492)" style="stroke:#000000; stroke-width:2; stroke-opacity:0.1; fill:none" points="
  205.352,262.92 2352.76,262.92 
  "/>
<polyline clip-path="url(#clip490)" style="stroke:#000000; stroke-width:4; stroke-opacity:1; fill:none" points="
  205.352,1423.18 205.352,47.2441 
  "/>
<polyline clip-path="url(#clip490)" style="stroke:#000000; stroke-width:4; stroke-opacity:1; fill:none" points="
  205.352,1207.5 231.121,1207.5 
  "/>
<polyline clip-path="url(#clip490)" style="stroke:#000000; stroke-width:4; stroke-opacity:1; fill:none" points="
  205.352,892.643 231.121,892.643 
  "/>
<polyline clip-path="url(#clip490)" style="stroke:#000000; stroke-width:4; stroke-opacity:1; fill:none" points="
  205.352,577.781 231.121,577.781 
  "/>
<polyline clip-path="url(#clip490)" style="stroke:#000000; stroke-width:4; stroke-opacity:1; fill:none" points="
  205.352,262.92 231.121,262.92 
  "/>
<path clip-path="url(#clip490)" d="M 0 0 M114.26 1207.96 L143.936 1207.96 L143.936 1211.89 L114.26 1211.89 L114.26 1207.96 Z" fill="#000000" fill-rule="evenodd" fill-opacity="1" /><path clip-path="url(#clip490)" d="M 0 0 M153.033 1220.85 L169.352 1220.85 L169.352 1224.78 L147.408 1224.78 L147.408 1220.85 Q150.07 1218.09 154.653 1213.46 Q159.26 1208.81 160.44 1207.47 Q162.686 1204.95 163.565 1203.21 Q164.468 1201.45 164.468 1199.76 Q164.468 1197.01 162.524 1195.27 Q160.603 1193.53 157.501 1193.53 Q155.302 1193.53 152.848 1194.3 Q150.417 1195.06 147.64 1196.61 L147.64 1191.89 Q150.464 1190.76 152.917 1190.18 Q155.371 1189.6 157.408 1189.6 Q162.778 1189.6 165.973 1192.28 Q169.167 1194.97 169.167 1199.46 Q169.167 1201.59 168.357 1203.51 Q167.57 1205.41 165.464 1208 Q164.885 1208.67 161.783 1211.89 Q158.681 1215.08 153.033 1220.85 Z" fill="#000000" fill-rule="evenodd" fill-opacity="1" /><path clip-path="url(#clip490)" d="M 0 0 M157.408 878.441 Q153.797 878.441 151.968 882.006 Q150.163 885.548 150.163 892.677 Q150.163 899.784 151.968 903.349 Q153.797 906.89 157.408 906.89 Q161.042 906.89 162.848 903.349 Q164.677 899.784 164.677 892.677 Q164.677 885.548 162.848 882.006 Q161.042 878.441 157.408 878.441 M157.408 874.738 Q163.218 874.738 166.274 879.344 Q169.352 883.927 169.352 892.677 Q169.352 901.404 166.274 906.011 Q163.218 910.594 157.408 910.594 Q151.598 910.594 148.519 906.011 Q145.464 901.404 145.464 892.677 Q145.464 883.927 148.519 879.344 Q151.598 874.738 157.408 874.738 Z" fill="#000000" fill-rule="evenodd" fill-opacity="1" /><path clip-path="url(#clip490)" d="M 0 0 M153.033 591.126 L169.352 591.126 L169.352 595.061 L147.408 595.061 L147.408 591.126 Q150.07 588.372 154.653 583.742 Q159.26 579.089 160.44 577.747 Q162.686 575.223 163.565 573.487 Q164.468 571.728 164.468 570.038 Q164.468 567.284 162.524 565.548 Q160.603 563.811 157.501 563.811 Q155.302 563.811 152.848 564.575 Q150.417 565.339 147.64 566.89 L147.64 562.168 Q150.464 561.034 152.917 560.455 Q155.371 559.876 157.408 559.876 Q162.778 559.876 165.973 562.561 Q169.167 565.247 169.167 569.737 Q169.167 571.867 168.357 573.788 Q167.57 575.686 165.464 578.279 Q164.885 578.95 161.783 582.168 Q158.681 585.362 153.033 591.126 Z" fill="#000000" fill-rule="evenodd" fill-opacity="1" /><path clip-path="url(#clip490)" d="M 0 0 M159.769 249.714 L147.964 268.163 L159.769 268.163 L159.769 249.714 M158.542 245.64 L164.422 245.64 L164.422 268.163 L169.352 268.163 L169.352 272.052 L164.422 272.052 L164.422 280.2 L159.769 280.2 L159.769 272.052 L144.167 272.052 L144.167 267.538 L158.542 245.64 Z" fill="#000000" fill-rule="evenodd" fill-opacity="1" /><path clip-path="url(#clip490)" d="M 0 0 M40.4842 835.599 L40.4842 805.553 L45.895 805.553 L45.895 829.17 L59.9632 829.17 L59.9632 806.54 L65.3741 806.54 L65.3741 829.17 L82.5933 829.17 L82.5933 804.98 L88.0042 804.98 L88.0042 835.599 L40.4842 835.599 Z" fill="#000000" fill-rule="evenodd" fill-opacity="1" /><path clip-path="url(#clip490)" d="M 0 0 M66.4881 769.205 L88.0042 769.205 L88.0042 775.061 L66.679 775.061 Q61.6183 775.061 59.1038 777.035 Q56.5894 779.008 56.5894 782.955 Q56.5894 787.697 59.6131 790.434 Q62.6368 793.172 67.8567 793.172 L88.0042 793.172 L88.0042 799.06 L52.3562 799.06 L52.3562 793.172 L57.8944 793.172 Q54.6797 791.071 53.0883 788.238 Q51.4968 785.374 51.4968 781.65 Q51.4968 775.507 55.3163 772.356 Q59.1038 769.205 66.4881 769.205 Z" fill="#000000" fill-rule="evenodd" fill-opacity="1" /><path clip-path="url(#clip490)" d="M 0 0 M68.7161 732.57 L71.5806 732.57 L71.5806 759.497 Q77.6281 759.115 80.8109 755.869 Q83.9619 752.59 83.9619 746.766 Q83.9619 743.392 83.1344 740.241 Q82.3069 737.058 80.6518 733.939 L86.1899 733.939 Q87.5267 737.09 88.227 740.4 Q88.9272 743.71 88.9272 747.116 Q88.9272 755.646 83.9619 760.643 Q78.9967 765.608 70.5303 765.608 Q61.7774 765.608 56.6531 760.898 Q51.4968 756.155 51.4968 748.134 Q51.4968 740.941 56.1438 736.772 Q60.7589 732.57 68.7161 732.57 M66.9973 738.427 Q62.1912 738.49 59.3266 741.132 Q56.4621 743.742 56.4621 748.071 Q56.4621 752.972 59.2312 755.932 Q62.0002 758.861 67.0292 759.306 L66.9973 738.427 Z" fill="#000000" fill-rule="evenodd" fill-opacity="1" /><path clip-path="url(#clip490)" d="M 0 0 M57.8307 705.771 Q57.2578 706.757 57.0032 707.935 Q56.7167 709.081 56.7167 710.481 Q56.7167 715.446 59.9632 718.12 Q63.1779 720.762 69.2253 720.762 L88.0042 720.762 L88.0042 726.65 L52.3562 726.65 L52.3562 720.762 L57.8944 720.762 Q54.6479 718.916 53.0883 715.956 Q51.4968 712.996 51.4968 708.762 Q51.4968 708.158 51.5923 707.426 Q51.656 706.694 51.8151 705.802 L57.8307 705.771 Z" fill="#000000" fill-rule="evenodd" fill-opacity="1" /><path clip-path="url(#clip490)" d="M 0 0 M69.7664 677.316 Q63.4007 677.316 59.8996 679.958 Q56.3984 682.568 56.3984 687.31 Q56.3984 692.021 59.8996 694.662 Q63.4007 697.272 69.7664 697.272 Q76.1003 697.272 79.6014 694.662 Q83.1026 692.021 83.1026 687.31 Q83.1026 682.568 79.6014 679.958 Q76.1003 677.316 69.7664 677.316 M83.58 671.459 Q92.683 671.459 97.1071 675.502 Q101.563 679.544 101.563 687.883 Q101.563 690.97 101.086 693.708 Q100.64 696.445 99.6852 699.023 L93.9879 699.023 Q95.3884 696.445 96.0568 693.93 Q96.7252 691.416 96.7252 688.806 Q96.7252 683.045 93.7015 680.18 Q90.7096 677.316 84.6303 677.316 L81.7339 677.316 Q84.885 679.13 86.4446 681.963 Q88.0042 684.796 88.0042 688.742 Q88.0042 695.299 83.0071 699.309 Q78.01 703.32 69.7664 703.32 Q61.491 703.32 56.4939 699.309 Q51.4968 695.299 51.4968 688.742 Q51.4968 684.796 53.0564 681.963 Q54.616 679.13 57.7671 677.316 L52.3562 677.316 L52.3562 671.459 L83.58 671.459 Z" fill="#000000" fill-rule="evenodd" fill-opacity="1" /><path clip-path="url(#clip490)" d="M 0 0 M91.3143 650.484 Q97.68 652.967 99.6216 655.322 Q101.563 657.678 101.563 661.624 L101.563 666.303 L96.6615 666.303 L96.6615 662.866 Q96.6615 660.447 95.5157 659.11 Q94.3699 657.773 90.1048 656.15 L87.4312 655.1 L52.3562 669.518 L52.3562 663.311 L80.238 652.171 L52.3562 641.031 L52.3562 634.825 L91.3143 650.484 Z" fill="#000000" fill-rule="evenodd" fill-opacity="1" /><polyline clip-path="url(#clip492)" style="stroke:#009af9; stroke-width:4; stroke-opacity:1; fill:none" points="
  266.128,892.643 286.591,893.905 307.054,897.63 327.517,903.639 347.981,911.676 368.444,921.449 388.907,932.664 409.37,945.049 429.833,958.364 450.296,972.404 
  470.76,986.995 491.223,1001.99 511.686,1017.28 532.149,1032.75 552.612,1048.32 573.075,1063.92 593.538,1079.48 614.002,1094.96 634.465,1110.3 654.928,1125.47 
  675.391,1140.41 695.854,1155.11 716.317,1169.53 736.781,1183.63 757.244,1197.41 777.707,1210.82 798.17,1223.86 818.633,1236.49 839.096,1248.7 859.56,1260.47 
  880.023,1271.78 900.486,1282.63 920.949,1292.98 941.412,1302.84 961.875,1312.18 982.338,1320.99 1002.8,1329.27 1023.26,1337 1043.73,1344.17 1064.19,1350.77 
  1084.65,1356.8 1105.12,1362.25 1125.58,1367.11 1146.04,1371.37 1166.51,1375.04 1186.97,1378.1 1207.43,1380.55 1227.9,1382.39 1248.36,1383.62 1268.82,1384.24 
  1289.29,1384.24 1309.75,1383.62 1330.21,1382.39 1350.68,1380.55 1371.14,1378.1 1391.6,1375.04 1412.06,1371.37 1432.53,1367.11 1452.99,1362.25 1473.45,1356.8 
  1493.92,1350.77 1514.38,1344.17 1534.84,1337 1555.31,1329.27 1575.77,1320.99 1596.23,1312.18 1616.7,1302.84 1637.16,1292.98 1657.62,1282.63 1678.09,1271.78 
  1698.55,1260.47 1719.01,1248.7 1739.48,1236.49 1759.94,1223.86 1780.4,1210.82 1800.86,1197.41 1821.33,1183.63 1841.79,1169.53 1862.25,1155.11 1882.72,1140.41 
  1903.18,1125.47 1923.64,1110.3 1944.11,1094.96 1964.57,1079.48 1985.03,1063.92 2005.5,1048.32 2025.96,1032.75 2046.42,1017.28 2066.89,1001.99 2087.35,986.995 
  2107.81,972.404 2128.28,958.364 2148.74,945.049 2169.2,932.664 2189.66,921.449 2210.13,911.676 2230.59,903.639 2251.05,897.63 2271.52,893.905 2291.98,892.643 
  
  "/>
<polyline clip-path="url(#clip492)" style="stroke:#e26f46; stroke-width:4; stroke-opacity:1; fill:none" points="
  266.128,577.781 286.591,576.519 307.054,572.794 327.517,566.785 347.981,558.748 368.444,548.975 388.907,537.76 409.37,525.375 429.833,512.06 450.296,498.02 
  470.76,483.429 491.223,468.431 511.686,453.146 532.149,437.675 552.612,422.104 573.075,406.504 593.538,390.939 614.002,375.462 634.465,360.121 654.928,344.958 
  675.391,330.011 695.854,315.314 716.317,300.897 736.781,286.789 757.244,273.016 777.707,259.601 798.17,246.568 818.633,233.936 839.096,221.726 859.56,209.955 
  880.023,198.64 900.486,187.798 920.949,177.442 941.412,167.588 961.875,158.247 982.338,149.433 1002.8,141.156 1023.26,133.427 1043.73,126.256 1064.19,119.652 
  1084.65,113.622 1105.12,108.174 1125.58,103.315 1146.04,99.0506 1166.51,95.3858 1186.97,92.3252 1207.43,89.8723 1227.9,88.0301 1248.36,86.8007 1268.82,86.1857 
  1289.29,86.1857 1309.75,86.8007 1330.21,88.0301 1350.68,89.8723 1371.14,92.3252 1391.6,95.3858 1412.06,99.0506 1432.53,103.315 1452.99,108.174 1473.45,113.622 
  1493.92,119.652 1514.38,126.256 1534.84,133.427 1555.31,141.156 1575.77,149.433 1596.23,158.247 1616.7,167.588 1637.16,177.442 1657.62,187.798 1678.09,198.64 
  1698.55,209.955 1719.01,221.726 1739.48,233.936 1759.94,246.568 1780.4,259.601 1800.86,273.016 1821.33,286.789 1841.79,300.897 1862.25,315.314 1882.72,330.011 
  1903.18,344.958 1923.64,360.121 1944.11,375.462 1964.57,390.939 1985.03,406.504 2005.5,422.104 2025.96,437.675 2046.42,453.146 2066.89,468.431 2087.35,483.429 
  2107.81,498.02 2128.28,512.06 2148.74,525.375 2169.2,537.76 2189.66,548.975 2210.13,558.748 2230.59,566.785 2251.05,572.794 2271.52,576.519 2291.98,577.781 
  
  "/>
<path clip-path="url(#clip490)" d="
M811.833 795.692 L1326.77 795.692 L1326.77 614.252 L811.833 614.252  Z
  " fill="#ffffff" fill-rule="evenodd" fill-opacity="1"/>
<polyline clip-path="url(#clip490)" style="stroke:#000000; stroke-width:4; stroke-opacity:1; fill:none" points="
  811.833,795.692 1326.77,795.692 1326.77,614.252 811.833,614.252 811.833,795.692 
  "/>
<polyline clip-path="url(#clip490)" style="stroke:#009af9; stroke-width:4; stroke-opacity:1; fill:none" points="
  835.693,674.732 978.853,674.732 
  "/>
<path clip-path="url(#clip490)" d="M 0 0 M1028.27 687.081 L1028.27 677.799 L1020.63 677.799 L1020.63 673.957 L1032.9 673.957 L1032.9 688.794 Q1030.19 690.716 1026.93 691.711 Q1023.66 692.683 1019.96 692.683 Q1011.86 692.683 1007.27 687.961 Q1002.71 683.216 1002.71 674.767 Q1002.71 666.295 1007.27 661.572 Q1011.86 656.827 1019.96 656.827 Q1023.34 656.827 1026.37 657.66 Q1029.43 658.494 1032 660.114 L1032 665.091 Q1029.4 662.892 1026.49 661.781 Q1023.57 660.67 1020.35 660.67 Q1014.01 660.67 1010.81 664.211 Q1007.64 667.753 1007.64 674.767 Q1007.64 681.757 1010.81 685.299 Q1014.01 688.841 1020.35 688.841 Q1022.83 688.841 1024.77 688.424 Q1026.72 687.984 1028.27 687.081 Z" fill="#000000" fill-rule="evenodd" fill-opacity="1" /><path clip-path="url(#clip490)" d="M 0 0 M1052.39 670.068 Q1051.67 669.651 1050.81 669.466 Q1049.98 669.257 1048.96 669.257 Q1045.35 669.257 1043.41 671.619 Q1041.49 673.957 1041.49 678.355 L1041.49 692.012 L1037.2 692.012 L1037.2 666.086 L1041.49 666.086 L1041.49 670.114 Q1042.83 667.753 1044.98 666.619 Q1047.13 665.461 1050.21 665.461 Q1050.65 665.461 1051.19 665.531 Q1051.72 665.577 1052.37 665.693 L1052.39 670.068 Z" fill="#000000" fill-rule="evenodd" fill-opacity="1" /><path clip-path="url(#clip490)" d="M 0 0 M1065.86 669.072 Q1062.43 669.072 1060.44 671.757 Q1058.45 674.419 1058.45 679.072 Q1058.45 683.725 1060.42 686.41 Q1062.41 689.072 1065.86 689.072 Q1069.26 689.072 1071.25 686.387 Q1073.25 683.702 1073.25 679.072 Q1073.25 674.466 1071.25 671.781 Q1069.26 669.072 1065.86 669.072 M1065.86 665.461 Q1071.42 665.461 1074.59 669.072 Q1077.76 672.683 1077.76 679.072 Q1077.76 685.438 1074.59 689.072 Q1071.42 692.683 1065.86 692.683 Q1060.28 692.683 1057.11 689.072 Q1053.96 685.438 1053.96 679.072 Q1053.96 672.683 1057.11 669.072 Q1060.28 665.461 1065.86 665.461 Z" fill="#000000" fill-rule="evenodd" fill-opacity="1" /><path clip-path="url(#clip490)" d="M 0 0 M1081.79 681.781 L1081.79 666.086 L1086.05 666.086 L1086.05 681.619 Q1086.05 685.299 1087.48 687.151 Q1088.92 688.98 1091.79 688.98 Q1095.24 688.98 1097.23 686.781 Q1099.24 684.581 1099.24 680.785 L1099.24 666.086 L1103.5 666.086 L1103.5 692.012 L1099.24 692.012 L1099.24 688.031 Q1097.69 690.392 1095.63 691.549 Q1093.59 692.683 1090.88 692.683 Q1086.42 692.683 1084.1 689.905 Q1081.79 687.128 1081.79 681.781 M1092.5 665.461 L1092.5 665.461 Z" fill="#000000" fill-rule="evenodd" fill-opacity="1" /><path clip-path="url(#clip490)" d="M 0 0 M1129.52 676.364 L1129.52 692.012 L1125.26 692.012 L1125.26 676.503 Q1125.26 672.822 1123.82 670.994 Q1122.39 669.165 1119.52 669.165 Q1116.07 669.165 1114.08 671.364 Q1112.09 673.563 1112.09 677.359 L1112.09 692.012 L1107.81 692.012 L1107.81 666.086 L1112.09 666.086 L1112.09 670.114 Q1113.62 667.776 1115.68 666.619 Q1117.76 665.461 1120.47 665.461 Q1124.93 665.461 1127.23 668.239 Q1129.52 670.994 1129.52 676.364 Z" fill="#000000" fill-rule="evenodd" fill-opacity="1" /><path clip-path="url(#clip490)" d="M 0 0 M1151.05 670.021 L1151.05 655.994 L1155.3 655.994 L1155.3 692.012 L1151.05 692.012 L1151.05 688.123 Q1149.7 690.438 1147.64 691.572 Q1145.61 692.683 1142.74 692.683 Q1138.04 692.683 1135.07 688.933 Q1132.13 685.183 1132.13 679.072 Q1132.13 672.961 1135.07 669.211 Q1138.04 665.461 1142.74 665.461 Q1145.61 665.461 1147.64 666.595 Q1149.7 667.707 1151.05 670.021 M1136.53 679.072 Q1136.53 683.771 1138.45 686.456 Q1140.4 689.118 1143.78 689.118 Q1147.16 689.118 1149.1 686.456 Q1151.05 683.771 1151.05 679.072 Q1151.05 674.373 1149.1 671.711 Q1147.16 669.026 1143.78 669.026 Q1140.4 669.026 1138.45 671.711 Q1136.53 674.373 1136.53 679.072 Z" fill="#000000" fill-rule="evenodd" fill-opacity="1" /><path clip-path="url(#clip490)" d="M 0 0 M1191.37 666.85 L1191.37 670.878 Q1189.56 669.952 1187.62 669.489 Q1185.68 669.026 1183.59 669.026 Q1180.42 669.026 1178.82 669.998 Q1177.25 670.97 1177.25 672.915 Q1177.25 674.396 1178.38 675.253 Q1179.52 676.086 1182.94 676.85 L1184.4 677.174 Q1188.94 678.146 1190.84 679.929 Q1192.76 681.688 1192.76 684.859 Q1192.76 688.47 1189.89 690.577 Q1187.04 692.683 1182.04 692.683 Q1179.96 692.683 1177.69 692.267 Q1175.44 691.873 1172.94 691.063 L1172.94 686.665 Q1175.3 687.892 1177.6 688.517 Q1179.89 689.118 1182.13 689.118 Q1185.14 689.118 1186.76 688.1 Q1188.38 687.058 1188.38 685.183 Q1188.38 683.447 1187.2 682.521 Q1186.05 681.595 1182.09 680.739 L1180.61 680.392 Q1176.65 679.558 1174.89 677.845 Q1173.13 676.109 1173.13 673.1 Q1173.13 669.443 1175.72 667.452 Q1178.31 665.461 1183.08 665.461 Q1185.44 665.461 1187.53 665.808 Q1189.61 666.156 1191.37 666.85 Z" fill="#000000" fill-rule="evenodd" fill-opacity="1" /><path clip-path="url(#clip490)" d="M 0 0 M1201.44 658.725 L1201.44 666.086 L1210.21 666.086 L1210.21 669.396 L1201.44 669.396 L1201.44 683.47 Q1201.44 686.642 1202.3 687.544 Q1203.17 688.447 1205.84 688.447 L1210.21 688.447 L1210.21 692.012 L1205.84 692.012 Q1200.91 692.012 1199.03 690.183 Q1197.16 688.331 1197.16 683.47 L1197.16 669.396 L1194.03 669.396 L1194.03 666.086 L1197.16 666.086 L1197.16 658.725 L1201.44 658.725 Z" fill="#000000" fill-rule="evenodd" fill-opacity="1" /><path clip-path="url(#clip490)" d="M 0 0 M1226.46 678.98 Q1221.3 678.98 1219.31 680.16 Q1217.32 681.341 1217.32 684.188 Q1217.32 686.456 1218.8 687.799 Q1220.3 689.118 1222.87 689.118 Q1226.42 689.118 1228.55 686.618 Q1230.7 684.095 1230.7 679.929 L1230.7 678.98 L1226.46 678.98 M1234.96 677.22 L1234.96 692.012 L1230.7 692.012 L1230.7 688.077 Q1229.24 690.438 1227.06 691.572 Q1224.89 692.683 1221.74 692.683 Q1217.76 692.683 1215.4 690.461 Q1213.06 688.216 1213.06 684.466 Q1213.06 680.091 1215.98 677.869 Q1218.92 675.646 1224.73 675.646 L1230.7 675.646 L1230.7 675.23 Q1230.7 672.29 1228.75 670.693 Q1226.83 669.072 1223.34 669.072 Q1221.11 669.072 1219.01 669.605 Q1216.9 670.137 1214.96 671.202 L1214.96 667.267 Q1217.3 666.364 1219.49 665.924 Q1221.69 665.461 1223.78 665.461 Q1229.4 665.461 1232.18 668.378 Q1234.96 671.294 1234.96 677.22 Z" fill="#000000" fill-rule="evenodd" fill-opacity="1" /><path clip-path="url(#clip490)" d="M 0 0 M1243.64 658.725 L1243.64 666.086 L1252.41 666.086 L1252.41 669.396 L1243.64 669.396 L1243.64 683.47 Q1243.64 686.642 1244.49 687.544 Q1245.37 688.447 1248.04 688.447 L1252.41 688.447 L1252.41 692.012 L1248.04 692.012 Q1243.11 692.012 1241.23 690.183 Q1239.36 688.331 1239.36 683.47 L1239.36 669.396 L1236.23 669.396 L1236.23 666.086 L1239.36 666.086 L1239.36 658.725 L1243.64 658.725 Z" fill="#000000" fill-rule="evenodd" fill-opacity="1" /><path clip-path="url(#clip490)" d="M 0 0 M1279.05 677.984 L1279.05 680.068 L1259.47 680.068 Q1259.75 684.466 1262.11 686.781 Q1264.49 689.072 1268.73 689.072 Q1271.18 689.072 1273.48 688.47 Q1275.79 687.868 1278.06 686.665 L1278.06 690.693 Q1275.77 691.665 1273.36 692.174 Q1270.95 692.683 1268.48 692.683 Q1262.27 692.683 1258.64 689.072 Q1255.03 685.461 1255.03 679.304 Q1255.03 672.938 1258.45 669.211 Q1261.9 665.461 1267.73 665.461 Q1272.97 665.461 1276 668.841 Q1279.05 672.197 1279.05 677.984 M1274.79 676.734 Q1274.75 673.239 1272.83 671.156 Q1270.93 669.072 1267.78 669.072 Q1264.22 669.072 1262.06 671.086 Q1259.93 673.1 1259.61 676.757 L1274.79 676.734 Z" fill="#000000" fill-rule="evenodd" fill-opacity="1" /><polyline clip-path="url(#clip490)" style="stroke:#e26f46; stroke-width:4; stroke-opacity:1; fill:none" points="
  835.693,735.212 978.853,735.212 
  "/>
<path clip-path="url(#clip490)" d="M 0 0 M1002.71 717.932 L1024.56 717.932 L1024.56 721.867 L1007.39 721.867 L1007.39 732.099 L1023.85 732.099 L1023.85 736.034 L1007.39 736.034 L1007.39 748.557 L1024.98 748.557 L1024.98 752.492 L1002.71 752.492 L1002.71 717.932 Z" fill="#000000" fill-rule="evenodd" fill-opacity="1" /><path clip-path="url(#clip490)" d="M 0 0 M1051 726.566 L1041.62 739.182 L1051.49 752.492 L1046.46 752.492 L1038.92 742.307 L1031.37 752.492 L1026.35 752.492 L1036.42 738.927 L1027.2 726.566 L1032.23 726.566 L1039.1 735.802 L1045.98 726.566 L1051 726.566 Z" fill="#000000" fill-rule="evenodd" fill-opacity="1" /><path clip-path="url(#clip490)" d="M 0 0 M1073.78 727.562 L1073.78 731.543 Q1071.97 730.548 1070.14 730.062 Q1068.34 729.552 1066.49 729.552 Q1062.34 729.552 1060.05 732.191 Q1057.76 734.807 1057.76 739.552 Q1057.76 744.298 1060.05 746.936 Q1062.34 749.552 1066.49 749.552 Q1068.34 749.552 1070.14 749.066 Q1071.97 748.557 1073.78 747.561 L1073.78 751.497 Q1072 752.33 1070.07 752.747 Q1068.18 753.163 1066.02 753.163 Q1060.17 753.163 1056.72 749.483 Q1053.27 745.802 1053.27 739.552 Q1053.27 733.21 1056.74 729.575 Q1060.24 725.941 1066.3 725.941 Q1068.27 725.941 1070.14 726.358 Q1072.02 726.751 1073.78 727.562 Z" fill="#000000" fill-rule="evenodd" fill-opacity="1" /><path clip-path="url(#clip490)" d="M 0 0 M1078.25 726.566 L1082.5 726.566 L1082.5 752.492 L1078.25 752.492 L1078.25 726.566 M1078.25 716.474 L1082.5 716.474 L1082.5 721.867 L1078.25 721.867 L1078.25 716.474 Z" fill="#000000" fill-rule="evenodd" fill-opacity="1" /><path clip-path="url(#clip490)" d="M 0 0 M1091.18 719.205 L1091.18 726.566 L1099.96 726.566 L1099.96 729.876 L1091.18 729.876 L1091.18 743.95 Q1091.18 747.122 1092.04 748.024 Q1092.92 748.927 1095.58 748.927 L1099.96 748.927 L1099.96 752.492 L1095.58 752.492 Q1090.65 752.492 1088.78 750.663 Q1086.9 748.811 1086.9 743.95 L1086.9 729.876 L1083.78 729.876 L1083.78 726.566 L1086.9 726.566 L1086.9 719.205 L1091.18 719.205 Z" fill="#000000" fill-rule="evenodd" fill-opacity="1" /><path clip-path="url(#clip490)" d="M 0 0 M1126.6 738.464 L1126.6 740.548 L1107.02 740.548 Q1107.3 744.946 1109.66 747.261 Q1112.04 749.552 1116.28 749.552 Q1118.73 749.552 1121.02 748.95 Q1123.34 748.348 1125.61 747.145 L1125.61 751.173 Q1123.31 752.145 1120.91 752.654 Q1118.5 753.163 1116.02 753.163 Q1109.82 753.163 1106.18 749.552 Q1102.57 745.941 1102.57 739.784 Q1102.57 733.418 1106 729.691 Q1109.45 725.941 1115.28 725.941 Q1120.51 725.941 1123.55 729.321 Q1126.6 732.677 1126.6 738.464 M1122.34 737.214 Q1122.3 733.719 1120.37 731.636 Q1118.48 729.552 1115.33 729.552 Q1111.76 729.552 1109.61 731.566 Q1107.48 733.58 1107.16 737.237 L1122.34 737.214 Z" fill="#000000" fill-rule="evenodd" fill-opacity="1" /><path clip-path="url(#clip490)" d="M 0 0 M1148.13 730.501 L1148.13 716.474 L1152.39 716.474 L1152.39 752.492 L1148.13 752.492 L1148.13 748.603 Q1146.79 750.918 1144.73 752.052 Q1142.69 753.163 1139.82 753.163 Q1135.12 753.163 1132.16 749.413 Q1129.22 745.663 1129.22 739.552 Q1129.22 733.441 1132.16 729.691 Q1135.12 725.941 1139.82 725.941 Q1142.69 725.941 1144.73 727.075 Q1146.79 728.187 1148.13 730.501 M1133.62 739.552 Q1133.62 744.251 1135.54 746.936 Q1137.48 749.598 1140.86 749.598 Q1144.24 749.598 1146.18 746.936 Q1148.13 744.251 1148.13 739.552 Q1148.13 734.853 1146.18 732.191 Q1144.24 729.506 1140.86 729.506 Q1137.48 729.506 1135.54 732.191 Q1133.62 734.853 1133.62 739.552 Z" fill="#000000" fill-rule="evenodd" fill-opacity="1" /><path clip-path="url(#clip490)" d="M 0 0 M1188.45 727.33 L1188.45 731.358 Q1186.65 730.432 1184.7 729.969 Q1182.76 729.506 1180.68 729.506 Q1177.5 729.506 1175.91 730.478 Q1174.33 731.45 1174.33 733.395 Q1174.33 734.876 1175.47 735.733 Q1176.6 736.566 1180.03 737.33 L1181.49 737.654 Q1186.02 738.626 1187.92 740.409 Q1189.84 742.168 1189.84 745.339 Q1189.84 748.95 1186.97 751.057 Q1184.12 753.163 1179.12 753.163 Q1177.04 753.163 1174.77 752.747 Q1172.53 752.353 1170.03 751.543 L1170.03 747.145 Q1172.39 748.372 1174.68 748.997 Q1176.97 749.598 1179.22 749.598 Q1182.23 749.598 1183.85 748.58 Q1185.47 747.538 1185.47 745.663 Q1185.47 743.927 1184.29 743.001 Q1183.13 742.075 1179.17 741.219 L1177.69 740.872 Q1173.73 740.038 1171.97 738.325 Q1170.21 736.589 1170.21 733.58 Q1170.21 729.923 1172.8 727.932 Q1175.4 725.941 1180.17 725.941 Q1182.53 725.941 1184.61 726.288 Q1186.69 726.636 1188.45 727.33 Z" fill="#000000" fill-rule="evenodd" fill-opacity="1" /><path clip-path="url(#clip490)" d="M 0 0 M1198.52 719.205 L1198.52 726.566 L1207.3 726.566 L1207.3 729.876 L1198.52 729.876 L1198.52 743.95 Q1198.52 747.122 1199.38 748.024 Q1200.26 748.927 1202.92 748.927 L1207.3 748.927 L1207.3 752.492 L1202.92 752.492 Q1197.99 752.492 1196.11 750.663 Q1194.24 748.811 1194.24 743.95 L1194.24 729.876 L1191.11 729.876 L1191.11 726.566 L1194.24 726.566 L1194.24 719.205 L1198.52 719.205 Z" fill="#000000" fill-rule="evenodd" fill-opacity="1" /><path clip-path="url(#clip490)" d="M 0 0 M1223.55 739.46 Q1218.38 739.46 1216.39 740.64 Q1214.4 741.821 1214.4 744.668 Q1214.4 746.936 1215.88 748.279 Q1217.39 749.598 1219.96 749.598 Q1223.5 749.598 1225.63 747.098 Q1227.78 744.575 1227.78 740.409 L1227.78 739.46 L1223.55 739.46 M1232.04 737.7 L1232.04 752.492 L1227.78 752.492 L1227.78 748.557 Q1226.32 750.918 1224.15 752.052 Q1221.97 753.163 1218.82 753.163 Q1214.84 753.163 1212.48 750.941 Q1210.14 748.696 1210.14 744.946 Q1210.14 740.571 1213.06 738.349 Q1216 736.126 1221.81 736.126 L1227.78 736.126 L1227.78 735.71 Q1227.78 732.77 1225.84 731.173 Q1223.92 729.552 1220.42 729.552 Q1218.2 729.552 1216.09 730.085 Q1213.99 730.617 1212.04 731.682 L1212.04 727.747 Q1214.38 726.844 1216.58 726.404 Q1218.78 725.941 1220.86 725.941 Q1226.49 725.941 1229.26 728.858 Q1232.04 731.774 1232.04 737.7 Z" fill="#000000" fill-rule="evenodd" fill-opacity="1" /><path clip-path="url(#clip490)" d="M 0 0 M1240.72 719.205 L1240.72 726.566 L1249.49 726.566 L1249.49 729.876 L1240.72 729.876 L1240.72 743.95 Q1240.72 747.122 1241.58 748.024 Q1242.46 748.927 1245.12 748.927 L1249.49 748.927 L1249.49 752.492 L1245.12 752.492 Q1240.19 752.492 1238.31 750.663 Q1236.44 748.811 1236.44 743.95 L1236.44 729.876 L1233.31 729.876 L1233.31 726.566 L1236.44 726.566 L1236.44 719.205 L1240.72 719.205 Z" fill="#000000" fill-rule="evenodd" fill-opacity="1" /><path clip-path="url(#clip490)" d="M 0 0 M1276.14 738.464 L1276.14 740.548 L1256.55 740.548 Q1256.83 744.946 1259.19 747.261 Q1261.58 749.552 1265.81 749.552 Q1268.27 749.552 1270.56 748.95 Q1272.87 748.348 1275.14 747.145 L1275.14 751.173 Q1272.85 752.145 1270.44 752.654 Q1268.04 753.163 1265.56 753.163 Q1259.36 753.163 1255.72 749.552 Q1252.11 745.941 1252.11 739.784 Q1252.11 733.418 1255.54 729.691 Q1258.98 725.941 1264.82 725.941 Q1270.05 725.941 1273.08 729.321 Q1276.14 732.677 1276.14 738.464 M1271.88 737.214 Q1271.83 733.719 1269.91 731.636 Q1268.01 729.552 1264.86 729.552 Q1261.3 729.552 1259.15 731.566 Q1257.02 733.58 1256.69 737.237 L1271.88 737.214 Z" fill="#000000" fill-rule="evenodd" fill-opacity="1" /></svg>
